.SFNSText-Light.ufo
<glyph name="exclam" format="2">
  <advance width="234"/>
  <unicode hex="0021"/>
  <outline>
    <contour>
      <point x="118" y="680" type="line"/>
      <point x="116" y="680" type="line"/>
      <point x="116" y="188" type="line"/>
      <point x="118" y="188" type="line"/>
    </contour>
    <contour>
      <point x="117" y="11" type="curve" smooth="yes"/>
      <point x="113" y="11"/>
      <point x="110" y="8"/>
      <point x="110" y="4" type="curve" smooth="yes"/>
      <point x="110" y="0"/>
      <point x="113" y="-3"/>
      <point x="117" y="-3" type="curve" smooth="yes"/>
      <point x="121" y="-3"/>
      <point x="124" y="0"/>
      <point x="124" y="4" type="curve" smooth="yes"/>
      <point x="124" y="8"/>
      <point x="121" y="11"/>
    </contour>
  </outline>
</glyph>
<glyph name="quotesingle" format="2">
  <advance width="182"/>
  <unicode hex="0027"/>
  <outline>
    <contour>
      <point x="90" y="446" type="line"/>
      <point x="92" y="446" type="line"/>
      <point x="92" y="680" type="line"/>
      <point x="90" y="680" type="line"/>
    </contour>
  </outline>
</glyph>
<glyph name="comma" format="2">
  <advance width="120"/>
  <unicode hex="002C"/>
  <outline>
    <contour>
      <point x="60" y="10" type="curve" smooth="yes"/>
      <point x="56" y="10"/>
      <point x="53" y="7"/>
      <point x="53" y="3" type="curve" smooth="yes"/>
      <point x="53" y="0"/>
      <point x="55" y="-3"/>
      <point x="59" y="-4" type="curve"/>
      <point x="26" y="-109" type="line"/>
      <point x="29" y="-109" type="line"/>
      <point x="65" y="-6" type="line" smooth="yes"/>
      <point x="66" y="-3"/>
      <point x="67" y="-1"/>
      <point x="67" y="3" type="curve" smooth="yes"/>
      <point x="67" y="7"/>
      <point x="64" y="10"/>
    </contour>
  </outline>
</glyph>
<glyph name="less" format="2">
  <advance width="496"/>
  <unicode hex="003C"/>
  <outline>
    <contour>
      <point x="405" y="487" type="line"/>
      <point x="90" y="334" type="line"/>
      <point x="90" y="332" type="line"/>
      <point x="405" y="175" type="line"/>
      <point x="406" y="177" type="line"/>
      <point x="92" y="333" type="line"/>
      <point x="406" y="485" type="line"/>
    </contour>
  </outline>
</glyph>
<glyph name="greater" format="2">
  <advance width="496"/>
  <unicode hex="003E"/>
  <outline>
    <contour>
      <point x="91" y="487" type="line"/>
      <point x="90" y="485" type="line"/>
      <point x="404" y="333" type="line"/>
      <point x="90" y="177" type="line"/>
      <point x="91" y="175" type="line"/>
      <point x="406" y="332" type="line"/>
      <point x="406" y="334" type="line"/>
    </contour>
  </outline>
</glyph>
<glyph name="A" format="2">
  <advance width="556"/>
  <unicode hex="0041"/>
  <anchor x="278" y="0" name="bottom"/>
  <anchor x="531" y="0" name="ogonek"/>
  <anchor x="278" y="680" name="top"/>
  <anchor x="170" y="680" name="topleft"/>
  <outline>
    <contour>
      <point x="278" y="680" type="line"/>
      <point x="276" y="680" type="line"/>
      <point x="35" y="0" type="line"/>
      <point x="37" y="0" type="line"/>
      <point x="277" y="678" type="line"/>
      <point x="519" y="0" type="line"/>
      <point x="521" y="0" type="line"/>
    </contour>
    <contour>
      <point x="443" y="215" type="line"/>
      <point x="112" y="215" type="line"/>
      <point x="112" y="213" type="line"/>
      <point x="443" y="213" type="line"/>
    </contour>
  </outline>
</glyph>
<glyph name="C" format="2">
  <advance width="529"/>
  <unicode hex="0043"/>
  <anchor x="341" y="0" name="bottom"/>
  <anchor x="323" y="341" name="center"/>
  <anchor x="343" y="680" name="top"/>
  <outline>
    <contour>
      <point x="342" y="690" type="curve" smooth="yes"/>
      <point x="191" y="690"/>
      <point x="85" y="577"/>
      <point x="85" y="339" type="curve" smooth="yes"/>
      <point x="85" y="114"/>
      <point x="188" y="-9"/>
      <point x="341" y="-9" type="curve" smooth="yes"/>
      <point x="423" y="-9"/>
      <point x="471" y="23"/>
      <point x="503" y="50" type="curve"/>
      <point x="502" y="52" type="line"/>
      <point x="470" y="25"/>
      <point x="422" y="-7"/>
      <point x="341" y="-7" type="curve" smooth="yes"/>
      <point x="190" y="-7"/>
      <point x="87" y="115"/>
      <point x="87" y="339" type="curve" smooth="yes"/>
      <point x="87" y="575"/>
      <point x="193" y="688"/>
      <point x="342" y="688" type="curve" smooth="yes"/>
      <point x="415" y="688"/>
      <point x="458" y="662"/>
      <point x="493" y="631" type="curve"/>
      <point x="494" y="633" type="line"/>
      <point x="459" y="664"/>
      <point x="416" y="690"/>
    </contour>
  </outline>
</glyph>
<glyph name="D" format="2">
  <advance width="613"/>
  <unicode hex="0044"/>
  <anchor x="310" y="0" name="bottom"/>
  <anchor x="309" y="340" name="center"/>
  <anchor x="289" y="680" name="top"/>
  <outline>
    <contour>
      <point x="234" y="680" type="curve" smooth="yes"/>
      <point x="130" y="680" type="line"/>
      <point x="130" y="0" type="line"/>
      <point x="241" y="0" type="line" smooth="yes"/>
      <point x="380" y="0"/>
      <point x="528" y="69"/>
      <point x="528" y="348" type="curve" smooth="yes"/>
      <point x="528" y="626"/>
      <point x="378" y="680"/>
    </contour>
    <contour>
      <point x="234" y="678" type="line" smooth="yes"/>
      <point x="377" y="678"/>
      <point x="526" y="624"/>
      <point x="526" y="348" type="curve" smooth="yes"/>
      <point x="526" y="71"/>
      <point x="380" y="2"/>
      <point x="241" y="2" type="curve" smooth="yes"/>
      <point x="132" y="2" type="line"/>
      <point x="132" y="678" type="line"/>
    </contour>
  </outline>
</glyph>
<glyph name="F" format="2">
  <advance width="470"/>
  <unicode hex="0046"/>
  <anchor x="235" y="0" name="bottom"/>
  <anchor x="290" y="680" name="top"/>
  <outline>
    <contour>
      <point x="430" y="680" type="line"/>
      <point x="130" y="680" type="line"/>
      <point x="130" y="0" type="line"/>
      <point x="132" y="0" type="line"/>
      <point x="132" y="345" type="line"/>
      <point x="390" y="345" type="line"/>
      <point x="390" y="347" type="line"/>
      <point x="132" y="347" type="line"/>
      <point x="132" y="678" type="line"/>
      <point x="430" y="678" type="line"/>
    </contour>
  </outline>
</glyph>
<glyph name="H" format="2">
  <advance width="654"/>
  <unicode hex="0048"/>
  <anchor x="327" y="0" name="bottom"/>
  <anchor x="534" y="0" name="bottomright"/>
  <anchor x="326" y="340" name="center"/>
  <anchor x="326" y="680" name="top"/>
  <anchor x="80" y="680" name="topleft"/>
  <outline>
    <contour>
      <point x="522" y="0" type="line"/>
      <point x="524" y="0" type="line"/>
      <point x="524" y="680" type="line"/>
      <point x="522" y="680" type="line"/>
      <point x="522" y="362" type="line"/>
      <point x="132" y="362" type="line"/>
      <point x="132" y="680" type="line"/>
      <point x="130" y="680" type="line"/>
      <point x="130" y="0" type="line"/>
      <point x="132" y="0" type="line"/>
      <point x="132" y="360" type="line"/>
      <point x="522" y="360" type="line"/>
    </contour>
  </outline>
</glyph>
<glyph name="J" format="2">
  <advance width="273.5"/>
  <unicode hex="004A"/>
  <anchor x="136.75" y="-188" name="bottom"/>
  <anchor x="150" y="680" name="top"/>
  <outline>
    <contour>
      <point x="150" y="680" type="line"/>
      <point x="148" y="680" type="line"/>
      <point x="148" y="85" type="line" smooth="yes"/>
      <point x="148" y="-6"/>
      <point x="129" y="-49"/>
      <point x="30" y="-89" type="curve"/>
      <point x="31" y="-91" type="line"/>
      <point x="131" y="-50"/>
      <point x="150" y="-7"/>
      <point x="150" y="85" type="curve" smooth="yes"/>
    </contour>
  </outline>
</glyph>
<glyph name="K" format="2">
  <advance width="504"/>
  <unicode hex="004B"/>
  <anchor x="284" y="0" name="bottom"/>
  <anchor x="284" y="680" name="top"/>
  <outline>
    <contour>
      <point x="473" y="680" type="line"/>
      <point x="470" y="680" type="line"/>
      <point x="135" y="366" type="line"/>
      <point x="486" y="0" type="line"/>
      <point x="489" y="0" type="line"/>
      <point x="138" y="366" type="line"/>
    </contour>
    <contour>
      <point x="132" y="680" type="line"/>
      <point x="130" y="680" type="line"/>
      <point x="130" y="1" type="line"/>
      <point x="132" y="1" type="line"/>
    </contour>
  </outline>
</glyph>
<glyph name="L" format="2">
  <advance width="445"/>
  <unicode hex="004C"/>
  <anchor x="275" y="0" name="bottom"/>
  <anchor x="350" y="355" name="center"/>
  <anchor x="131" y="680" name="top"/>
  <anchor x="182" y="680" name="topright"/>
  <outline>
    <contour>
      <point x="132" y="680" type="line"/>
      <point x="130" y="680" type="line"/>
      <point x="130" y="0" type="line"/>
      <point x="420" y="0" type="line"/>
      <point x="420" y="2" type="line"/>
      <point x="132" y="2" type="line"/>
    </contour>
  </outline>
</glyph>
<glyph name="M" format="2">
  <advance width="757"/>
  <unicode hex="004D"/>
  <anchor x="378.5" y="0" name="bottom"/>
  <anchor x="681" y="0" name="bottomright"/>
  <anchor x="378" y="680" name="top"/>
  <outline>
    <contour>
      <point x="592" y="680" type="line"/>
      <point x="589" y="680" type="line"/>
      <point x="378" y="88" type="line"/>
      <point x="167" y="680" type="line"/>
      <point x="164" y="680" type="line"/>
      <point x="85" y="0" type="line"/>
      <point x="87" y="0" type="line"/>
      <point x="129" y="361" type="line" smooth="yes"/>
      <point x="142" y="474"/>
      <point x="161" y="628"/>
      <point x="166" y="676" type="curve"/>
      <point x="377" y="85" type="line"/>
      <point x="379" y="85" type="line"/>
      <point x="590" y="676" type="line"/>
      <point x="598" y="604"/>
      <point x="615" y="468"/>
      <point x="628" y="354" type="curve" smooth="yes"/>
      <point x="670" y="0" type="line"/>
      <point x="672" y="0" type="line"/>
    </contour>
  </outline>
</glyph>
<glyph name="N" format="2">
  <advance width="654"/>
  <unicode hex="004E"/>
  <anchor x="321" y="0" name="bottom"/>
  <anchor x="331" y="680" name="top"/>
  <outline>
    <contour>
      <point x="524" y="680" type="line"/>
      <point x="522" y="680" type="line"/>
      <point x="522" y="136" type="line"/>
      <point x="522" y="95"/>
      <point x="522" y="43"/>
      <point x="522" y="2" type="curve"/>
      <point x="133" y="680" type="line"/>
      <point x="130" y="680" type="line"/>
      <point x="130" y="0" type="line"/>
      <point x="132" y="0" type="line"/>
      <point x="132" y="575" type="line"/>
      <point x="132" y="622"/>
      <point x="132" y="655"/>
      <point x="132" y="678" type="curve"/>
      <point x="521" y="0" type="line"/>
      <point x="524" y="0" type="line"/>
    </contour>
  </outline>
</glyph>
<glyph name="O" format="2">
  <advance width="687"/>
  <unicode hex="004F"/>
  <anchor x="344" y="0" name="bottom"/>
  <anchor x="422" y="0" name="ogonek"/>
  <anchor x="344" y="680" name="top"/>
  <anchor x="102" y="680" name="topleft"/>
  <anchor x="517" y="680" name="topright"/>
  <outline>
    <contour>
      <point x="343" y="690" type="curve" smooth="yes"/>
      <point x="188" y="690"/>
      <point x="85" y="557"/>
      <point x="85" y="338" type="curve" smooth="yes"/>
      <point x="85" y="119"/>
      <point x="184" y="-9"/>
      <point x="343" y="-9" type="curve" smooth="yes"/>
      <point x="510" y="-9"/>
      <point x="602" y="120"/>
      <point x="602" y="340" type="curve" smooth="yes"/>
      <point x="602" y="563"/>
      <point x="504" y="690"/>
    </contour>
    <contour>
      <point x="343" y="688" type="curve" smooth="yes"/>
      <point x="503" y="688"/>
      <point x="600" y="561"/>
      <point x="600" y="340" type="curve" smooth="yes"/>
      <point x="600" y="122"/>
      <point x="509" y="-7"/>
      <point x="343" y="-7" type="curve" smooth="yes"/>
      <point x="185" y="-7"/>
      <point x="87" y="121"/>
      <point x="87" y="338" type="curve" smooth="yes"/>
      <point x="87" y="555"/>
      <point x="189" y="688"/>
    </contour>
  </outline>
</glyph>
<glyph name="T" format="2">
  <advance width="472"/>
  <unicode hex="0054"/>
  <anchor x="236" y="0" name="bottom"/>
  <anchor x="247" y="0" name="bottomright"/>
  <anchor x="236" y="340" name="center"/>
  <anchor x="236" y="680" name="top"/>
  <outline>
    <contour>
      <point x="452" y="680" type="line"/>
      <point x="20" y="680" type="line"/>
      <point x="20" y="678" type="line"/>
      <point x="235" y="678" type="line"/>
      <point x="235" y="0" type="line"/>
      <point x="237" y="0" type="line"/>
      <point x="237" y="678" type="line"/>
      <point x="452" y="678" type="line"/>
    </contour>
  </outline>
</glyph>
<glyph name="V" format="2">
  <advance width="523"/>
  <unicode hex="0056"/>
  <anchor x="261.5" y="0" name="bottom"/>
  <anchor x="261.5" y="680" name="top"/>
  <outline>
    <contour>
      <point x="488" y="680" type="line"/>
      <point x="486" y="680" type="line"/>
      <point x="263" y="2" type="line"/>
      <point x="37" y="680" type="line"/>
      <point x="35" y="680" type="line"/>
      <point x="262" y="0" type="line"/>
      <point x="264" y="0" type="line"/>
    </contour>
  </outline>
</glyph>
<glyph name="W" format="2">
  <advance width="776"/>
  <unicode hex="0057"/>
  <anchor x="388" y="0" name="bottom"/>
  <anchor x="388" y="680" name="top"/>
  <outline>
    <contour>
      <point x="731" y="680" type="line"/>
      <point x="729" y="680" type="line"/>
      <point x="570" y="3" type="line"/>
      <point x="389" y="680" type="line"/>
      <point x="387" y="680" type="line"/>
      <point x="206" y="2" type="line"/>
      <point x="47" y="680" type="line"/>
      <point x="45" y="680" type="line"/>
      <point x="205" y="0" type="line"/>
      <point x="207" y="0" type="line"/>
      <point x="388" y="678" type="line"/>
      <point x="569" y="0" type="line"/>
      <point x="571" y="0" type="line"/>
    </contour>
  </outline>
</glyph>
<glyph name="X" format="2">
  <advance width="467"/>
  <unicode hex="0058"/>
  <anchor x="233.5" y="0" name="bottom"/>
  <anchor x="454" y="0" name="bottomright"/>
  <anchor x="233.5" y="680" name="top"/>
  <outline>
    <contour>
      <point x="53" y="680" type="line"/>
      <point x="51" y="680" type="line"/>
      <point x="231" y="370" type="line"/>
      <point x="233" y="369" type="line"/>
      <point x="445" y="0" type="line"/>
      <point x="447" y="0" type="line"/>
      <point x="235" y="370" type="line"/>
      <point x="233" y="371" type="line"/>
    </contour>
    <contour>
      <point x="416" y="680" type="line"/>
      <point x="414" y="680" type="line"/>
      <point x="233" y="371" type="line"/>
      <point x="231" y="370" type="line"/>
      <point x="20" y="0" type="line"/>
      <point x="22" y="0" type="line"/>
      <point x="233" y="369" type="line"/>
      <point x="235" y="370" type="line"/>
    </contour>
  </outline>
</glyph>
<glyph name="Y" format="2">
  <advance width="479"/>
  <unicode hex="0059"/>
  <anchor x="240" y="0" name="bottom"/>
  <anchor x="240" y="680" name="top"/>
  <anchor x="15" y="680" name="topleft"/>
  <outline>
    <contour>
      <point x="454" y="680" type="line"/>
      <point x="452" y="680" type="line"/>
      <point x="240" y="273" type="line"/>
      <point x="27" y="680" type="line"/>
      <point x="25" y="680" type="line"/>
      <point x="239" y="271" type="line"/>
      <point x="239" y="0" type="line"/>
      <point x="241" y="0" type="line"/>
      <point x="241" y="271" type="line"/>
    </contour>
  </outline>
</glyph>
<glyph name="Z" format="2">
  <advance width="504"/>
  <unicode hex="005A"/>
  <anchor x="258" y="0" name="bottom"/>
  <anchor x="254" y="680" name="top"/>
  <outline>
    <contour>
      <point x="454" y="680" type="line"/>
      <point x="82" y="680" type="line"/>
      <point x="82" y="678" type="line"/>
      <point x="451" y="678" type="line"/>
      <point x="45" y="2" type="line"/>
      <point x="45" y="0" type="line"/>
      <point x="437" y="0" type="line"/>
      <point x="437" y="2" type="line"/>
      <point x="48" y="2" type="line"/>
      <point x="454" y="678" type="line"/>
    </contour>
  </outline>
</glyph>
<glyph name="bracketleft" format="2">
  <advance width="310"/>
  <unicode hex="005B"/>
  <outline>
    <contour>
      <point x="220" y="790" type="line"/>
      <point x="110" y="790" type="line"/>
      <point x="110" y="-100" type="line"/>
      <point x="220" y="-100" type="line"/>
      <point x="220" y="-98" type="line"/>
      <point x="112" y="-98" type="line"/>
      <point x="112" y="788" type="line"/>
      <point x="220" y="788" type="line"/>
    </contour>
  </outline>
</glyph>
<glyph name="backslash" format="2">
  <advance width="520"/>
  <unicode hex="005C"/>
  <outline>
    <contour>
      <point x="145" y="794" type="line"/>
      <point x="143" y="793" type="line"/>
      <point x="375" y="-92" type="line"/>
      <point x="377" y="-91" type="line"/>
    </contour>
  </outline>
</glyph>
<glyph name="f" format="2">
  <advance width="299"/>
  <unicode hex="0066"/>
  <anchor x="128" y="0" name="bottom"/>
  <anchor x="240" y="727" name="top"/>
  <outline>
    <contour>
      <point x="238" y="733" type="curve" smooth="yes"/>
      <point x="174" y="733"/>
      <point x="127" y="694"/>
      <point x="127" y="618" type="curve" smooth="yes"/>
      <point x="127" y="0" type="line"/>
      <point x="129" y="0" type="line"/>
      <point x="129" y="618" type="line" smooth="yes"/>
      <point x="129" y="693"/>
      <point x="175" y="731"/>
      <point x="238" y="731" type="curve" smooth="yes"/>
      <point x="282" y="731"/>
      <point x="318" y="717"/>
      <point x="348" y="698" type="curve"/>
      <point x="349" y="700" type="line"/>
      <point x="319" y="719"/>
      <point x="282" y="733"/>
    </contour>
    <contour>
      <point x="280" y="517" type="line"/>
      <point x="35" y="517" type="line"/>
      <point x="35" y="515" type="line"/>
      <point x="280" y="515" type="line"/>
    </contour>
  </outline>
</glyph>
<glyph name="h" format="2">
  <advance width="580"/>
  <unicode hex="0068"/>
  <anchor x="293" y="0" name="bottom"/>
  <anchor x="293" y="260" name="center"/>
  <anchor x="293" y="727" name="top"/>
  <outline>
    <contour>
      <point x="326" y="527" type="curve" smooth="yes"/>
      <point x="238" y="527"/>
      <point x="174" y="475"/>
      <point x="126" y="389" type="curve"/>
      <point x="127" y="387" type="line"/>
      <point x="175" y="473"/>
      <point x="239" y="525"/>
      <point x="326" y="525" type="curve" smooth="yes"/>
      <point x="419" y="525"/>
      <point x="458" y="464"/>
      <point x="458" y="368" type="curve" smooth="yes"/>
      <point x="458" y="0" type="line"/>
      <point x="460" y="0" type="line"/>
      <point x="460" y="368" type="line" smooth="yes"/>
      <point x="460" y="465"/>
      <point x="420" y="527"/>
    </contour>
    <contour>
      <point x="127" y="730" type="line"/>
      <point x="125" y="730" type="line"/>
      <point x="125" y="0" type="line"/>
      <point x="127" y="0" type="line"/>
    </contour>
  </outline>
</glyph>
<glyph name="k" format="2">
  <advance width="448"/>
  <unicode hex="006B"/>
  <anchor x="269" y="0" name="bottom"/>
  <anchor x="260" y="727" name="top"/>
  <outline>
    <contour>
      <point x="396" y="517" type="line"/>
      <point x="393" y="517" type="line"/>
      <point x="133" y="283" type="line"/>
      <point x="420" y="0" type="line"/>
      <point x="423" y="0" type="line"/>
      <point x="136" y="283" type="line"/>
    </contour>
    <contour>
      <point x="127" y="730" type="line"/>
      <point x="125" y="730" type="line"/>
      <point x="125" y="0" type="line"/>
      <point x="127" y="0" type="line"/>
    </contour>
  </outline>
</glyph>
<glyph name="n" format="2">
  <advance width="580"/>
  <unicode hex="006E"/>
  <anchor x="287" y="0" name="bottom"/>
  <anchor x="295" y="517" name="top"/>
  <anchor x="115" y="517" name="topleft"/>
  <outline>
    <contour>
      <point x="326" y="527" type="curve" smooth="yes"/>
      <point x="238" y="527"/>
      <point x="174" y="475"/>
      <point x="126" y="389" type="curve"/>
      <point x="127" y="387" type="line"/>
      <point x="175" y="473"/>
      <point x="239" y="525"/>
      <point x="326" y="525" type="curve" smooth="yes"/>
      <point x="420" y="525"/>
      <point x="458" y="466"/>
      <point x="458" y="368" type="curve" smooth="yes"/>
      <point x="458" y="0" type="line"/>
      <point x="460" y="0" type="line"/>
      <point x="460" y="368" type="line" smooth="yes"/>
      <point x="460" y="467"/>
      <point x="421" y="527"/>
    </contour>
    <contour>
      <point x="127" y="517" type="line"/>
      <point x="125" y="517" type="line"/>
      <point x="125" y="0" type="line"/>
      <point x="127" y="0" type="line"/>
      <point x="127" y="389" type="line"/>
    </contour>
  </outline>
</glyph>
<glyph name="p" format="2">
  <advance width="567"/>
  <unicode hex="0070"/>
  <anchor x="284" y="-188" name="bottom"/>
  <anchor x="284" y="517" name="top"/>
  <outline>
    <contour>
      <point x="306" y="527" type="curve" smooth="yes"/>
      <point x="222" y="527"/>
      <point x="169" y="481"/>
      <point x="126" y="420" type="curve"/>
      <point x="126" y="417" type="line"/>
      <point x="172" y="482"/>
      <point x="224" y="525"/>
      <point x="306" y="525" type="curve" smooth="yes"/>
      <point x="420" y="525"/>
      <point x="480" y="429"/>
      <point x="480" y="264" type="curve" smooth="yes"/>
      <point x="480" y="97"/>
      <point x="419" y="-7"/>
      <point x="302" y="-7" type="curve" smooth="yes"/>
      <point x="223" y="-7"/>
      <point x="168" y="37"/>
      <point x="126" y="103" type="curve"/>
      <point x="126" y="100" type="line"/>
      <point x="166" y="36"/>
      <point x="222" y="-9"/>
      <point x="302" y="-9" type="curve" smooth="yes"/>
      <point x="420" y="-9"/>
      <point x="482" y="95"/>
      <point x="482" y="264" type="curve" smooth="yes"/>
      <point x="482" y="431"/>
      <point x="420" y="527"/>
    </contour>
    <contour>
      <point x="127" y="517" type="line"/>
      <point x="125" y="517" type="line"/>
      <point x="125" y="-190" type="line"/>
      <point x="127" y="-190" type="line"/>
      <point x="127" y="419" type="line"/>
      <point x="127" y="421" type="line"/>
    </contour>
  </outline>
</glyph>
<glyph name="r" format="2">
  <advance width="361"/>
  <unicode hex="0072"/>
  <anchor x="126" y="0" name="bottom"/>
  <anchor x="230" y="517" name="top"/>
  <outline>
    <contour>
      <point x="290" y="527" type="curve" smooth="yes"/>
      <point x="208" y="527"/>
      <point x="159" y="484"/>
      <point x="126" y="372" type="curve"/>
      <point x="126" y="365" type="line"/>
      <point x="160" y="482"/>
      <point x="208" y="525"/>
      <point x="290" y="525" type="curve" smooth="yes"/>
      <point x="310" y="525"/>
      <point x="323" y="523"/>
      <point x="336" y="520" type="curve"/>
      <point x="336" y="522" type="line"/>
      <point x="323" y="525"/>
      <point x="310" y="527"/>
    </contour>
    <contour>
      <point x="127" y="517" type="line"/>
      <point x="125" y="517" type="line"/>
      <point x="125" y="0" type="line"/>
      <point x="127" y="0" type="line"/>
      <point x="127" y="371" type="line"/>
      <point x="127" y="372" type="line"/>
    </contour>
  </outline>
</glyph>
<glyph name="u" format="2">
  <advance width="575"/>
  <unicode hex="0075"/>
  <anchor x="290" y="0" name="bottom"/>
  <anchor x="460" y="0" name="ogonek"/>
  <anchor x="290" y="517" name="top"/>
  <anchor x="460" y="517" name="topright"/>
  <outline>
    <contour>
      <point x="450" y="517" type="line"/>
      <point x="448" y="517" type="line"/>
      <point x="448" y="120" type="line"/>
      <point x="407" y="45"/>
      <point x="348" y="-7"/>
      <point x="261" y="-7" type="curve" smooth="yes"/>
      <point x="175" y="-7"/>
      <point x="122" y="48"/>
      <point x="122" y="150" type="curve" smooth="yes"/>
      <point x="122" y="517" type="line"/>
      <point x="120" y="517" type="line"/>
      <point x="120" y="150" type="line" smooth="yes"/>
      <point x="120" y="46"/>
      <point x="174" y="-9"/>
      <point x="261" y="-9" type="curve" smooth="yes"/>
      <point x="347" y="-9"/>
      <point x="406" y="40"/>
      <point x="448" y="116" type="curve"/>
      <point x="448" y="0" type="line"/>
      <point x="450" y="0" type="line"/>
    </contour>
  </outline>
</glyph>
<glyph name="v" format="2">
  <advance width="435"/>
  <unicode hex="0076"/>
  <anchor x="223" y="0" name="bottom"/>
  <anchor x="218" y="517" name="top"/>
  <outline>
    <contour>
      <point x="405" y="517" type="line"/>
      <point x="403" y="517" type="line"/>
      <point x="223" y="2" type="line"/>
      <point x="32" y="517" type="line"/>
      <point x="30" y="517" type="line"/>
      <point x="222" y="0" type="line"/>
      <point x="224" y="0" type="line"/>
    </contour>
  </outline>
</glyph>
<glyph name="w" format="2">
  <advance width="672"/>
  <unicode hex="0077"/>
  <anchor x="336" y="0" name="bottom"/>
  <anchor x="336" y="517" name="top"/>
  <outline>
    <contour>
      <point x="632" y="517" type="line"/>
      <point x="630" y="517" type="line"/>
      <point x="490" y="2" type="line"/>
      <point x="337" y="517" type="line"/>
      <point x="335" y="517" type="line"/>
      <point x="182" y="2" type="line"/>
      <point x="42" y="517" type="line"/>
      <point x="40" y="517" type="line"/>
      <point x="181" y="0" type="line"/>
      <point x="183" y="0" type="line"/>
      <point x="336" y="515" type="line"/>
      <point x="489" y="0" type="line"/>
      <point x="491" y="0" type="line"/>
    </contour>
  </outline>
</glyph>
<glyph name="y" format="2">
  <advance width="434"/>
  <unicode hex="0079"/>
  <anchor x="226" y="-188" name="bottom"/>
  <anchor x="217" y="517" name="top"/>
  <outline>
    <contour>
      <point x="404" y="517" type="line"/>
      <point x="402" y="517" type="line"/>
      <point x="224" y="0" type="line"/>
      <point x="32" y="517" type="line"/>
      <point x="30" y="517" type="line"/>
      <point x="222" y="0" type="line"/>
      <point x="224" y="0" type="line"/>
      <point x="185" y="-112"/>
      <point x="163" y="-157"/>
      <point x="61" y="-187" type="curve"/>
      <point x="61" y="-189" type="line"/>
      <point x="165" y="-159"/>
      <point x="187" y="-112"/>
      <point x="226" y="0" type="curve" smooth="yes"/>
    </contour>
  </outline>
</glyph>
<glyph name="z" format="2">
  <advance width="410"/>
  <unicode hex="007A"/>
  <anchor x="207" y="0" name="bottom"/>
  <anchor x="215" y="517" name="top"/>
  <outline>
    <contour>
      <point x="370" y="517" type="line"/>
      <point x="66" y="517" type="line"/>
      <point x="66" y="515" type="line"/>
      <point x="367" y="515" type="line"/>
      <point x="35" y="2" type="line"/>
      <point x="35" y="0" type="line"/>
      <point x="359" y="0" type="line"/>
      <point x="359" y="2" type="line"/>
      <point x="38" y="2" type="line"/>
      <point x="370" y="515" type="line"/>
    </contour>
  </outline>
</glyph>
<glyph name="asciitilde" format="2">
  <advance width="454"/>
  <unicode hex="007E"/>
  <anchor x="360" y="332" name="_center"/>
  <outline>
    <contour>
      <point x="299" y="291" type="curve"/>
      <point x="334" y="291"/>
      <point x="358" y="314"/>
      <point x="369" y="336" type="curve"/>
      <point x="367" y="336" type="line"/>
      <point x="354" y="313"/>
      <point x="333" y="293"/>
      <point x="299" y="293" type="curve"/>
      <point x="252" y="293"/>
      <point x="205" y="348"/>
      <point x="157" y="348" type="curve"/>
      <point x="123" y="348"/>
      <point x="99" y="325"/>
      <point x="85" y="303" type="curve"/>
      <point x="87" y="303" type="line"/>
      <point x="103" y="326"/>
      <point x="124" y="346"/>
      <point x="157" y="346" type="curve"/>
      <point x="205" y="346"/>
      <point x="252" y="291"/>
    </contour>
  </outline>
</glyph>
<glyph name="exclamdown" format="2">
  <advance width="234"/>
  <unicode hex="00A1"/>
  <outline>
    <contour>
      <point x="118" y="254" type="line"/>
      <point x="116" y="254" type="line"/>
      <point x="116" y="-188" type="line"/>
      <point x="118" y="-188" type="line"/>
    </contour>
    <contour>
      <point x="117" y="439" type="curve" smooth="yes"/>
      <point x="113" y="439"/>
      <point x="110" y="436"/>
      <point x="110" y="432" type="curve" smooth="yes"/>
      <point x="110" y="428"/>
      <point x="113" y="425"/>
      <point x="117" y="425" type="curve" smooth="yes"/>
      <point x="121" y="425"/>
      <point x="124" y="428"/>
      <point x="124" y="432" type="curve" smooth="yes"/>
      <point x="124" y="436"/>
      <point x="121" y="439"/>
    </contour>
  </outline>
</glyph>
<glyph name="cent" format="2">
  <advance width="469"/>
  <unicode hex="00A2"/>
  <anchor x="269" y="517" name="top"/>
  <anchor x="285" y="-1" name="bottom"/>
  <outline>
    <contour>
      <point x="283" y="672" type="line"/>
      <point x="281" y="672" type="line"/>
      <point x="281" y="526" type="line"/>
      <point x="283" y="526" type="line"/>
    </contour>
    <contour>
      <point x="275" y="-8" type="line"/>
      <point x="275" y="-144" type="line"/>
      <point x="277" y="-144" type="line"/>
      <point x="277" y="-8" type="line"/>
    </contour>
    <component base="c"/>
  </outline>
</glyph>
<glyph name="acute" format="2">
  <advance width="228"/>
  <unicode hex="00B4"/>
  <outline>
    <contour>
      <point x="197" y="746" type="line"/>
      <point x="30" y="664" type="line"/>
      <point x="31" y="662" type="line"/>
      <point x="198" y="744" type="line"/>
    </contour>
  </outline>
</glyph>
<glyph name="dcroat" format="2">
  <advance width="577"/>
  <unicode hex="0111"/>
  <anchor x="280" y="727" name="top"/>
  <anchor x="289" y="259" name="center"/>
  <anchor x="497" y="727" name="topright"/>
  <anchor x="288" y="0" name="bottom"/>
  <outline>
    <contour>
      <point x="522" y="640" type="line"/>
      <point x="265" y="640" type="line"/>
      <point x="265" y="638" type="line"/>
      <point x="447" y="638" type="line"/>
      <point x="522" y="638" type="line"/>
    </contour>
    <component base="d"/>
  </outline>
</glyph>
<glyph name="Hbar" format="2">
  <advance width="668"/>
  <unicode hex="0126"/>
  <anchor x="88" y="680" name="topleft"/>
  <anchor x="334" y="680" name="top"/>
  <anchor x="334" y="340" name="center"/>
  <anchor x="542" y="0" name="bottomright"/>
  <anchor x="335" y="0" name="bottom"/>
  <outline>
    <contour>
      <point x="583" y="528" type="line"/>
      <point x="530" y="528" type="line"/>
      <point x="85" y="528" type="line"/>
      <point x="85" y="526" type="line"/>
      <point x="138" y="526" type="line"/>
      <point x="583" y="526" type="line"/>
    </contour>
    <component base="H" xOffset="8"/>
  </outline>
</glyph>
<glyph name="hbar" format="2">
  <advance width="585"/>
  <unicode hex="0127"/>
  <anchor x="298" y="727" name="top"/>
  <anchor x="298" y="260" name="center"/>
  <anchor x="298" y="0" name="bottom"/>
  <outline>
    <contour>
      <point x="323" y="640" type="line"/>
      <point x="55" y="640" type="line"/>
      <point x="55" y="638" type="line"/>
      <point x="130" y="638" type="line"/>
      <point x="323" y="638" type="line"/>
    </contour>
    <component base="h" xOffset="5"/>
  </outline>
</glyph>
<glyph name="Lslash" format="2">
  <advance width="447"/>
  <unicode hex="0141"/>
  <anchor x="133" y="680" name="top"/>
  <anchor x="352" y="355" name="center"/>
  <anchor x="184" y="680" name="topright"/>
  <anchor x="277" y="0" name="bottom"/>
  <outline>
    <contour>
      <point x="341" y="456" type="line"/>
      <point x="132" y="327" type="line"/>
      <point x="52" y="278" type="line"/>
      <point x="53" y="276" type="line"/>
      <point x="342" y="454" type="line"/>
    </contour>
    <component base="L" xOffset="2"/>
  </outline>
</glyph>
<glyph name="lslash" format="2">
  <advance width="288"/>
  <unicode hex="0142"/>
  <anchor x="127" y="730" name="top"/>
  <anchor x="262" y="375" name="center"/>
  <anchor x="188" y="727" name="topright"/>
  <anchor x="180" y="0" name="bottom"/>
  <outline>
    <contour>
      <point x="56" y="317" type="line"/>
      <point x="238" y="432" type="line"/>
      <point x="237" y="434" type="line"/>
      <point x="126" y="364" type="line"/>
      <point x="55" y="319" type="line"/>
    </contour>
    <component base="l" xOffset="6"/>
  </outline>
</glyph>
<glyph name="napostrophe" format="2">
  <advance width="632"/>
  <unicode hex="0149"/>
  <anchor x="167" y="517" name="topleft"/>
  <anchor x="347" y="517" name="top"/>
  <anchor x="339" y="0" name="bottom"/>
  <outline>
    <contour>
      <point x="94" y="733" type="curve" smooth="yes"/>
      <point x="91" y="733"/>
      <point x="89" y="731"/>
      <point x="89" y="728" type="curve" smooth="yes"/>
      <point x="89" y="725"/>
      <point x="91" y="723"/>
      <point x="95" y="723" type="curve"/>
      <point x="72" y="601" type="line"/>
      <point x="73" y="601" type="line"/>
      <point x="98" y="720" type="line" smooth="yes"/>
      <point x="99" y="725"/>
      <point x="99" y="726"/>
      <point x="99" y="728" type="curve"/>
      <point x="99" y="731"/>
      <point x="97" y="733"/>
    </contour>
    <component base="n" xOffset="52"/>
  </outline>
</glyph>
<glyph name="Tbar" format="2">
  <advance width="455"/>
  <unicode hex="0166"/>
  <anchor x="236" y="680" name="top"/>
  <anchor x="236" y="340" name="center"/>
  <anchor x="247" y="0" name="bottomright"/>
  <anchor x="236" y="0" name="bottom"/>
  <outline>
    <contour>
      <point x="360" y="376" type="line"/>
      <point x="112" y="376" type="line"/>
      <point x="112" y="374" type="line"/>
      <point x="236" y="374" type="line"/>
      <point x="360" y="374" type="line"/>
    </contour>
    <component base="T"/>
  </outline>
</glyph>
<glyph name="bstroke" format="2">
  <advance width="572"/>
  <unicode hex="0180"/>
  <anchor x="294" y="727" name="top"/>
  <anchor x="289" y="0" name="bottom"/>
  <outline>
    <contour>
      <point x="323" y="640" type="line"/>
      <point x="55" y="640" type="line"/>
      <point x="55" y="638" type="line"/>
      <point x="130" y="638" type="line"/>
      <point x="323" y="638" type="line"/>
    </contour>
    <component base="b" xOffset="5"/>
  </outline>
</glyph>
<glyph name="Iotaafrican" format="2">
  <advance width="323"/>
  <unicode hex="0196"/>
  <anchor x="192" y="0" name="bottom"/>
  <anchor x="121" y="680" name="top"/>
  <outline>
    <contour>
      <point x="122" y="680" type="line"/>
      <point x="120" y="680" type="line"/>
      <point x="120" y="181" type="line"/>
      <point x="122" y="181" type="line"/>
    </contour>
    <component base="hookHELPER.case" xScale="-1" xOffset="326" yOffset="183"/>
  </outline>
</glyph>
<glyph name="Nhookleft" format="2">
  <advance width="654"/>
  <unicode hex="019D"/>
  <anchor x="331" y="680" name="top"/>
  <anchor x="321" y="0" name="bottom"/>
  <outline>
    <contour>
      <point x="48" y="-192" type="curve" smooth="yes"/>
      <point x="98" y="-192"/>
      <point x="132" y="-159"/>
      <point x="132" y="-97" type="curve" smooth="yes"/>
      <point x="132" y="1" type="line"/>
      <point x="130" y="1" type="line"/>
      <point x="130" y="-97" type="line" smooth="yes"/>
      <point x="130" y="-158"/>
      <point x="97" y="-190"/>
      <point x="48" y="-190" type="curve" smooth="yes"/>
      <point x="11" y="-190"/>
      <point x="-11" y="-178"/>
      <point x="-30" y="-162" type="curve"/>
      <point x="-31" y="-164" type="line"/>
      <point x="-13" y="-179"/>
      <point x="10" y="-192"/>
    </contour>
    <component base="N"/>
  </outline>
</glyph>
<glyph name="nlegrightlong" format="2">
  <advance width="580"/>
  <unicode hex="019E"/>
  <anchor x="115" y="517" name="topleft"/>
  <anchor x="295" y="517" name="top"/>
  <anchor x="287" y="0" name="bottom"/>
  <outline>
    <contour>
      <point x="460" y="1" type="line"/>
      <point x="458" y="1" type="line"/>
      <point x="458" y="-190" type="line"/>
      <point x="460" y="-190" type="line"/>
    </contour>
    <component base="n"/>
  </outline>
</glyph>
<glyph name="zstroke" format="2">
  <advance width="410"/>
  <unicode hex="01B6"/>
  <anchor x="205" y="0" name="bottom"/>
  <anchor x="205" y="517" name="top"/>
  <outline>
    <contour>
      <point x="370" y="517" type="line"/>
      <point x="66" y="517" type="line"/>
      <point x="66" y="515" type="line"/>
      <point x="367" y="515" type="line"/>
      <point x="35" y="2" type="line"/>
      <point x="35" y="0" type="line"/>
      <point x="359" y="0" type="line"/>
      <point x="359" y="2" type="line"/>
      <point x="38" y="2" type="line"/>
      <point x="370" y="515" type="line"/>
    </contour>
    <component base="hyphen" xOffset="10" yOffset="-45"/>
  </outline>
</glyph>
<glyph name="dotlessj" format="2">
  <advance width="252"/>
  <unicode hex="0237"/>
  <anchor x="126" y="-188" name="bottom"/>
  <anchor x="126" y="517" name="top"/>
  <outline>
    <contour>
      <point x="127" y="517" type="line"/>
      <point x="125" y="517" type="line"/>
      <point x="125" y="1" type="line" smooth="yes"/>
      <point x="125" y="-117"/>
      <point x="96" y="-153"/>
      <point x="28" y="-189" type="curve"/>
      <point x="29" y="-191" type="line"/>
      <point x="98" y="-154"/>
      <point x="127" y="-118"/>
      <point x="127" y="1" type="curve" smooth="yes"/>
    </contour>
  </outline>
</glyph>
<glyph name="Cstroke" format="2">
  <advance width="529"/>
  <unicode hex="023B"/>
  <anchor x="264.5" y="0" name="bottom"/>
  <anchor x="264.5" y="680" name="top"/>
  <anchor x="323" y="341" name="center"/>
  <outline>
    <contour>
      <point x="413" y="728" type="line"/>
      <point x="207" y="-57" type="line"/>
      <point x="209" y="-57" type="line"/>
      <point x="415" y="728" type="line"/>
    </contour>
    <component base="C"/>
  </outline>
</glyph>
<glyph name="cstroke" format="2">
  <advance width="469"/>
  <unicode hex="023C"/>
  <anchor x="269" y="517" name="top"/>
  <anchor x="285" y="-1" name="bottom"/>
  <outline>
    <contour>
      <point x="347" y="580" type="line"/>
      <point x="172" y="-57" type="line"/>
      <point x="174" y="-57" type="line"/>
      <point x="349" y="580" type="line"/>
    </contour>
    <component base="c"/>
  </outline>
</glyph>
<glyph name="Bstroke" format="2">
  <advance width="575"/>
  <unicode hex="0243"/>
  <anchor x="275" y="680" name="top"/>
  <anchor x="304" y="0" name="bottom"/>
  <outline>
    <contour>
      <point x="322" y="194" type="line"/>
      <point x="124" y="194" type="line"/>
      <point x="30" y="194" type="line"/>
      <point x="30" y="192" type="line"/>
      <point x="322" y="192" type="line"/>
    </contour>
    <component base="B" xOffset="-6"/>
  </outline>
</glyph>
<glyph name="Ubar" format="2">
  <advance width="670"/>
  <unicode hex="0244"/>
  <anchor x="335" y="680" name="top"/>
  <anchor x="415" y="0" name="ogonek"/>
  <anchor x="542" y="680" name="topright"/>
  <anchor x="335" y="0" name="bottom"/>
  <outline>
    <contour>
      <point x="585" y="528" type="line"/>
      <point x="532" y="528" type="line"/>
      <point x="85" y="528" type="line"/>
      <point x="85" y="526" type="line"/>
      <point x="138" y="526" type="line"/>
      <point x="585" y="526" type="line"/>
    </contour>
    <component base="U" xOffset="18"/>
  </outline>
</glyph>
<glyph name="Estroke" format="2">
  <advance width="495"/>
  <unicode hex="0246"/>
  <anchor x="247.5" y="0" name="bottom"/>
  <anchor x="247.5" y="680" name="top"/>
  <anchor x="80" y="680" name="topleft"/>
  <anchor x="425" y="0" name="ogonek"/>
  <outline>
    <contour>
      <point x="383" y="728" type="line"/>
      <point x="177" y="-57" type="line"/>
      <point x="179" y="-57" type="line"/>
      <point x="385" y="728" type="line"/>
    </contour>
    <component base="E"/>
  </outline>
</glyph>
<glyph name="ystroke" format="2">
  <advance width="424"/>
  <unicode hex="024F"/>
  <anchor x="212" y="517" name="top"/>
  <anchor x="221" y="-188" name="bottom"/>
  <outline>
    <contour>
      <point x="29" y="380" type="line"/>
      <point x="399" y="380" type="line"/>
      <point x="399" y="382" type="line"/>
      <point x="353" y="382" type="line"/>
      <point x="76" y="382" type="line"/>
      <point x="29" y="382" type="line"/>
    </contour>
    <component base="y" xOffset="-5"/>
  </outline>
</glyph>
<glyph name="jdotlessstroke" format="2">
  <advance width="280"/>
  <unicode hex="025F"/>
  <anchor x="144" y="517" name="top"/>
  <anchor x="144" y="-188" name="bottom"/>
  <outline>
    <contour>
      <point x="25" y="243" type="line"/>
      <point x="255" y="243" type="line"/>
      <point x="255" y="245" type="line"/>
      <point x="25" y="245" type="line"/>
    </contour>
    <component base="dotlessj" xOffset="18"/>
  </outline>
</glyph>
<glyph name="Ismall" format="2">
  <advance width="310"/>
  <unicode hex="026A"/>
  <anchor x="155" y="0" name="bottom"/>
  <anchor x="155" y="517" name="top"/>
  <outline>
    <contour>
      <point x="154" y="0" type="line"/>
      <point x="156" y="0" type="line"/>
      <point x="156" y="517" type="line"/>
      <point x="154" y="517" type="line"/>
    </contour>
    <contour>
      <point x="40" y="0" type="line"/>
      <point x="270" y="0" type="line"/>
      <point x="270" y="2" type="line"/>
      <point x="40" y="2" type="line"/>
    </contour>
    <contour>
      <point x="40" y="515" type="line"/>
      <point x="270" y="515" type="line"/>
      <point x="270" y="517" type="line"/>
      <point x="40" y="517" type="line"/>
    </contour>
  </outline>
</glyph>
<glyph name="lhookretroflex" format="2">
  <advance width="252"/>
  <unicode hex="026D"/>
  <anchor x="209" y="-188" name="bottom"/>
  <anchor x="126" y="727" name="top"/>
  <outline>
    <contour>
      <point x="125" y="0" type="line"/>
      <point x="127" y="0" type="line"/>
      <point x="127" y="730" type="line"/>
      <point x="125" y="730" type="line"/>
    </contour>
    <component base="hookHELPER" xScale="-1" xOffset="331"/>
  </outline>
</glyph>
<glyph name="lezh" format="2">
  <advance width="583"/>
  <unicode hex="026E"/>
  <anchor x="354" y="-188" name="bottom"/>
  <anchor x="303" y="727" name="top"/>
  <anchor x="182" y="727" name="topright"/>
  <anchor x="256" y="375" name="center"/>
  <outline>
    <contour>
      <point x="354" y="-192" type="curve" smooth="yes"/>
      <point x="473" y="-192"/>
      <point x="543" y="-115"/>
      <point x="543" y="1" type="curve" smooth="yes"/>
      <point x="543" y="125"/>
      <point x="470" y="190"/>
      <point x="331" y="190" type="curve"/>
      <point x="283" y="190" type="line"/>
      <point x="281" y="188" type="line"/>
      <point x="331" y="188" type="line" smooth="yes"/>
      <point x="469" y="188"/>
      <point x="541" y="124"/>
      <point x="541" y="1" type="curve" smooth="yes"/>
      <point x="541" y="-113"/>
      <point x="472" y="-190"/>
      <point x="354" y="-190" type="curve" smooth="yes"/>
      <point x="280" y="-190"/>
      <point x="231" y="-165"/>
      <point x="192" y="-125" type="curve"/>
      <point x="190" y="-126" type="line"/>
      <point x="230" y="-167"/>
      <point x="280" y="-192"/>
    </contour>
    <contour>
      <point x="281" y="188" type="line"/>
      <point x="284" y="190" type="line"/>
      <point x="510" y="515" type="line"/>
      <point x="510" y="517" type="line"/>
      <point x="122" y="517" type="line"/>
      <point x="122" y="515" type="line"/>
      <point x="507" y="515" type="line"/>
      <point x="281" y="190" type="line"/>
    </contour>
    <component base="l"/>
  </outline>
</glyph>
<glyph name="mlonglegturned" format="2">
  <advance width="845"/>
  <unicode hex="0270"/>
  <anchor x="424" y="-188" name="bottom"/>
  <anchor x="419" y="517" name="top"/>
  <outline>
    <contour>
      <point x="718" y="128" type="line"/>
      <point x="718" y="-190" type="line"/>
      <point x="720" y="-190" type="line"/>
      <point x="720" y="128" type="line"/>
    </contour>
    <component base="mturned"/>
  </outline>
</glyph>
<glyph name="rlonglegturned" format="2">
  <advance width="361"/>
  <unicode hex="027A"/>
  <anchor x="157" y="0" name="bottom"/>
  <anchor x="235" y="727" name="top"/>
  <outline>
    <contour>
      <point x="234" y="516" type="line"/>
      <point x="236" y="516" type="line"/>
      <point x="236" y="730" type="line"/>
      <point x="234" y="730" type="line"/>
    </contour>
    <component base="rturned"/>
  </outline>
</glyph>
<glyph name="rhookturned" format="2">
  <advance width="361"/>
  <unicode hex="027B"/>
  <anchor x="218" y="-188" name="bottom"/>
  <anchor x="235" y="517" name="top"/>
  <outline>
    <contour>
      <point x="71" y="-10" type="curve" smooth="yes"/>
      <point x="153" y="-10"/>
      <point x="202" y="33"/>
      <point x="235" y="145" type="curve"/>
      <point x="235" y="152" type="line"/>
      <point x="201" y="35"/>
      <point x="153" y="-8"/>
      <point x="71" y="-8" type="curve" smooth="yes"/>
      <point x="51" y="-8"/>
      <point x="38" y="-6"/>
      <point x="25" y="-3" type="curve"/>
      <point x="25" y="-5" type="line"/>
      <point x="38" y="-8"/>
      <point x="51" y="-10"/>
    </contour>
    <contour>
      <point x="234" y="0" type="line"/>
      <point x="236" y="0" type="line"/>
      <point x="236" y="517" type="line"/>
      <point x="234" y="517" type="line"/>
      <point x="234" y="146" type="line"/>
      <point x="234" y="145" type="line"/>
    </contour>
    <component base="hookHELPER" xScale="-1" xOffset="440"/>
  </outline>
</glyph>
<glyph name="rlongleg" format="2">
  <advance width="361"/>
  <unicode hex="027C"/>
  <anchor x="126" y="-188" name="bottom"/>
  <anchor x="230" y="517" name="top"/>
  <outline>
    <contour>
      <point x="125" y="1" type="line"/>
      <point x="125" y="-190" type="line"/>
      <point x="127" y="-190" type="line"/>
      <point x="127" y="1" type="line"/>
    </contour>
    <component base="r"/>
  </outline>
</glyph>
<glyph name="rfishhook" format="2">
  <advance width="313"/>
  <unicode hex="027E"/>
  <anchor x="121" y="0" name="bottom"/>
  <anchor x="204" y="517" name="top"/>
  <outline>
    <contour>
      <point x="122" y="328" type="line"/>
      <point x="120" y="328" type="line"/>
      <point x="120" y="0" type="line"/>
      <point x="122" y="0" type="line"/>
    </contour>
    <component base="hookHELPER" xScale="-1" yScale="-1" xOffset="326" yOffset="328"/>
  </outline>
</glyph>
<glyph name="Rsmall" format="2">
  <advance width="510"/>
  <unicode hex="0280"/>
  <anchor x="255" y="0" name="bottom"/>
  <anchor x="255" y="517" name="top"/>
  <outline>
    <contour>
      <point x="233" y="517" type="curve" smooth="yes"/>
      <point x="125" y="517" type="line"/>
      <point x="125" y="0" type="line"/>
      <point x="127" y="0" type="line"/>
      <point x="127" y="515" type="line"/>
      <point x="233" y="515" type="line" smooth="yes"/>
      <point x="371" y="515"/>
      <point x="418" y="464"/>
      <point x="418" y="382" type="curve" smooth="yes"/>
      <point x="418" y="287"/>
      <point x="343" y="252"/>
      <point x="277" y="252" type="curve" smooth="yes"/>
      <point x="126" y="252" type="line"/>
      <point x="126" y="250" type="line"/>
      <point x="283" y="250" type="line"/>
      <point x="345" y="252"/>
      <point x="420" y="285"/>
      <point x="420" y="382" type="curve" smooth="yes"/>
      <point x="420" y="465"/>
      <point x="372" y="517"/>
    </contour>
    <contour>
      <point x="284" y="251" type="line"/>
      <point x="281" y="251" type="line"/>
      <point x="437" y="0" type="line"/>
      <point x="440" y="0" type="line"/>
    </contour>
  </outline>
</glyph>
<glyph name="jdotlessstrokehook" format="2">
  <advance width="280"/>
  <unicode hex="0284"/>
  <anchor x="144" y="-188" name="bottom"/>
  <anchor x="218" y="727" name="top"/>
  <outline>
    <contour>
      <point x="47" y="-191" type="line"/>
      <point x="116" y="-154"/>
      <point x="145" y="-118"/>
      <point x="145" y="1" type="curve" smooth="yes"/>
      <point x="145" y="517" type="line"/>
      <point x="143" y="517" type="line"/>
      <point x="143" y="1" type="line" smooth="yes"/>
      <point x="143" y="-117"/>
      <point x="114" y="-153"/>
      <point x="46" y="-189" type="curve"/>
    </contour>
    <contour>
      <point x="25" y="0" type="line"/>
      <point x="255" y="0" type="line"/>
      <point x="255" y="2" type="line"/>
      <point x="25" y="2" type="line"/>
    </contour>
    <component base="hookaboveHELPER2" xOffset="100"/>
  </outline>
</glyph>
<glyph name="eshsquatreversed" format="2">
  <advance width="384"/>
  <unicode hex="0285"/>
  <anchor x="275" y="0" name="bottom"/>
  <anchor x="109" y="517" name="top"/>
  <outline>
    <contour>
      <point x="191" y="317" type="line"/>
      <point x="191" y="183" type="line"/>
      <point x="193" y="183" type="line"/>
      <point x="193" y="317" type="line"/>
    </contour>
    <component base="hookaboveHELPER2" xScale="-1" xOffset="236" yOffset="-206"/>
    <component base="hookHELPER" xScale="-1" xOffset="397" yOffset="183"/>
  </outline>
</glyph>
<glyph name="eshcurl" format="2">
  <advance width="269"/>
  <unicode hex="0286"/>
  <anchor x="45" y="-188" name="bottom"/>
  <anchor x="218" y="727" name="top"/>
  <outline>
    <contour>
      <point x="142" y="517" type="line"/>
      <point x="140" y="517" type="line"/>
      <point x="140" y="-33" type="line"/>
      <point x="142" y="-33" type="line"/>
    </contour>
    <contour>
      <point x="142" y="-33" type="curve"/>
      <point x="140" y="-33" type="line"/>
      <point x="140" y="-134"/>
      <point x="103" y="-190"/>
      <point x="25" y="-190" type="curve" smooth="yes"/>
      <point x="-33" y="-190"/>
      <point x="-68" y="-157"/>
      <point x="-68" y="-111" type="curve" smooth="yes"/>
      <point x="-68" y="-56"/>
      <point x="-25" y="-21"/>
      <point x="42" y="-21" type="curve" smooth="yes"/>
      <point x="83" y="-21"/>
      <point x="112" y="-26"/>
      <point x="141" y="-34" type="curve"/>
      <point x="141" y="-32" type="line"/>
      <point x="112" y="-24"/>
      <point x="83" y="-19"/>
      <point x="42" y="-19" type="curve" smooth="yes"/>
      <point x="-26" y="-19"/>
      <point x="-70" y="-54"/>
      <point x="-70" y="-111" type="curve" smooth="yes"/>
      <point x="-70" y="-158"/>
      <point x="-34" y="-192"/>
      <point x="25" y="-192" type="curve" smooth="yes"/>
      <point x="104" y="-192"/>
      <point x="142" y="-135"/>
    </contour>
    <contour>
      <point x="218" y="-64" type="curve"/>
      <point x="218" y="-62" type="line"/>
      <point x="190" y="-48"/>
      <point x="168" y="-40"/>
      <point x="141" y="-32" type="curve"/>
      <point x="141" y="-34" type="line"/>
      <point x="168" y="-42"/>
      <point x="190" y="-50"/>
    </contour>
    <component base="hookaboveHELPER2" xOffset="97"/>
  </outline>
</glyph>
<glyph name="tretroflexhook" format="2">
  <advance width="322"/>
  <unicode hex="0288"/>
  <anchor x="201" y="-188" name="bottom"/>
  <anchor x="118" y="651" name="top"/>
  <outline>
    <contour>
      <point x="117" y="0" type="line"/>
      <point x="119" y="0" type="line"/>
      <point x="119" y="651" type="line"/>
      <point x="117" y="651" type="line"/>
    </contour>
    <contour>
      <point x="30" y="515" type="line"/>
      <point x="265" y="515" type="line"/>
      <point x="265" y="517" type="line"/>
      <point x="30" y="517" type="line"/>
    </contour>
    <component base="hookHELPER" xScale="-1" xOffset="323"/>
  </outline>
</glyph>
<glyph name="ubar" format="2">
  <advance width="593"/>
  <unicode hex="0289"/>
  <anchor x="297" y="0" name="bottom"/>
  <anchor x="297" y="517" name="top"/>
  <anchor x="464" y="0" name="ogonek"/>
  <anchor x="464" y="517" name="topright"/>
  <outline>
    <contour>
      <point x="40" y="380" type="line"/>
      <point x="124" y="380" type="line"/>
      <point x="538" y="380" type="line"/>
      <point x="538" y="382" type="line"/>
      <point x="454" y="382" type="line"/>
      <point x="40" y="382" type="line"/>
    </contour>
    <component base="u" xOffset="4"/>
  </outline>
</glyph>
<glyph name="Ysmall" format="2">
  <advance width="392"/>
  <unicode hex="028F"/>
  <anchor x="196" y="0" name="bottom"/>
  <anchor x="196" y="517" name="top"/>
  <outline>
    <contour>
      <point x="372" y="517" type="line"/>
      <point x="370" y="517" type="line"/>
      <point x="197" y="214" type="line"/>
      <point x="22" y="517" type="line"/>
      <point x="20" y="517" type="line"/>
      <point x="196" y="212" type="line"/>
      <point x="196" y="0" type="line"/>
      <point x="198" y="0" type="line"/>
      <point x="198" y="212" type="line"/>
    </contour>
  </outline>
</glyph>
<glyph name="ezh" format="2">
  <advance width="438"/>
  <unicode hex="0292"/>
  <anchor x="209" y="-188" name="bottom"/>
  <anchor x="208" y="517" name="top"/>
  <outline>
    <contour>
      <point x="209" y="-192" type="curve" smooth="yes"/>
      <point x="326" y="-192"/>
      <point x="398" y="-113"/>
      <point x="398" y="1" type="curve" smooth="yes"/>
      <point x="398" y="125"/>
      <point x="325" y="190"/>
      <point x="186" y="190" type="curve"/>
      <point x="138" y="190" type="line"/>
      <point x="136" y="188" type="line"/>
      <point x="186" y="188" type="line" smooth="yes"/>
      <point x="324" y="188"/>
      <point x="396" y="124"/>
      <point x="396" y="1" type="curve" smooth="yes"/>
      <point x="396" y="-111"/>
      <point x="325" y="-190"/>
      <point x="209" y="-190" type="curve" smooth="yes"/>
      <point x="129" y="-190"/>
      <point x="77" y="-161"/>
      <point x="32" y="-113" type="curve"/>
      <point x="30" y="-114" type="line"/>
      <point x="75" y="-162"/>
      <point x="128" y="-192"/>
    </contour>
    <contour>
      <point x="136" y="190" type="line"/>
      <point x="136" y="188" type="line"/>
      <point x="139" y="190" type="line"/>
      <point x="369" y="515" type="line"/>
      <point x="369" y="517" type="line"/>
      <point x="46" y="517" type="line"/>
      <point x="46" y="515" type="line"/>
      <point x="366" y="515" type="line"/>
    </contour>
  </outline>
</glyph>
<glyph name="kturned" format="2">
  <advance width="448"/>
  <unicode hex="029E"/>
  <anchor x="181" y="-188" name="bottom"/>
  <anchor x="193" y="517" name="top"/>
  <outline>
    <contour>
      <point x="52" y="0" type="line"/>
      <point x="55" y="0" type="line"/>
      <point x="315" y="234" type="line"/>
      <point x="28" y="517" type="line"/>
      <point x="25" y="517" type="line"/>
      <point x="312" y="234" type="line"/>
    </contour>
    <contour>
      <point x="321" y="-190" type="line"/>
      <point x="323" y="-190" type="line"/>
      <point x="323" y="517" type="line"/>
      <point x="321" y="517" type="line"/>
    </contour>
  </outline>
</glyph>
<glyph name="Lsmall" format="2">
  <advance width="396"/>
  <unicode hex="029F"/>
  <anchor x="251" y="0" name="bottom"/>
  <anchor x="126" y="517" name="top"/>
  <outline>
    <contour>
      <point x="127" y="517" type="line"/>
      <point x="125" y="517" type="line"/>
      <point x="125" y="0" type="line"/>
      <point x="376" y="0" type="line"/>
      <point x="376" y="2" type="line"/>
      <point x="127" y="2" type="line"/>
    </contour>
  </outline>
</glyph>
<glyph name="glottalstopstroke" format="2">
  <advance width="419"/>
  <unicode hex="02A1"/>
  <anchor x="186" y="727" name="top"/>
  <anchor x="139" y="0" name="bottom"/>
  <outline>
    <contour>
      <point x="66" y="200" type="line"/>
      <point x="66" y="198" type="line"/>
      <point x="139" y="198" type="line"/>
      <point x="261" y="198" type="line"/>
      <point x="261" y="200" type="line"/>
    </contour>
    <component base="glottalstop"/>
  </outline>
</glyph>
<glyph name="glottalstopstrokereversed" format="2">
  <advance width="419"/>
  <unicode hex="02A2"/>
  <anchor x="239" y="727" name="top"/>
  <anchor x="280" y="0" name="bottom"/>
  <outline>
    <contour>
      <point x="359" y="200" type="line"/>
      <point x="164" y="200" type="line"/>
      <point x="164" y="198" type="line"/>
      <point x="286" y="198" type="line"/>
      <point x="359" y="198" type="line"/>
    </contour>
    <component base="glottalstopreversed"/>
  </outline>
</glyph>
<glyph name="dzaltone" format="2">
  <advance width="841"/>
  <unicode hex="02A3"/>
  <anchor x="420.5" y="0" name="bottom"/>
  <anchor x="420.5" y="727" name="top"/>
  <anchor x="497" y="727" name="topright"/>
  <anchor x="289" y="259" name="center"/>
  <outline>
    <contour>
      <point x="801" y="517" type="line"/>
      <point x="446" y="517" type="line"/>
      <point x="446" y="515" type="line"/>
      <point x="798" y="515" type="line"/>
      <point x="446" y="2" type="line"/>
      <point x="446" y="0" type="line"/>
      <point x="790" y="0" type="line"/>
      <point x="790" y="2" type="line"/>
      <point x="449" y="2" type="line"/>
      <point x="801" y="515" type="line"/>
    </contour>
    <component base="d"/>
  </outline>
</glyph>
<glyph name="turnedhfishhook" format="2">
  <advance width="651"/>
  <unicode hex="02AE"/>
  <anchor x="336" y="-188" name="bottom"/>
  <anchor x="347" y="517" name="top"/>
  <outline>
    <contour>
      <point x="325" y="-10" type="curve" smooth="yes"/>
      <point x="413" y="-10"/>
      <point x="477" y="42"/>
      <point x="525" y="128" type="curve"/>
      <point x="524" y="130" type="line"/>
      <point x="476" y="44"/>
      <point x="412" y="-8"/>
      <point x="325" y="-8" type="curve" smooth="yes"/>
      <point x="232" y="-8"/>
      <point x="193" y="53"/>
      <point x="193" y="149" type="curve" smooth="yes"/>
      <point x="193" y="328" type="line"/>
      <point x="191" y="328" type="line"/>
      <point x="191" y="149" type="line" smooth="yes"/>
      <point x="191" y="52"/>
      <point x="231" y="-10"/>
    </contour>
    <contour>
      <point x="524" y="-190" type="line"/>
      <point x="526" y="-190" type="line"/>
      <point x="526" y="517" type="line"/>
      <point x="524" y="517" type="line"/>
    </contour>
    <component base="hookHELPER" yScale="-1" xOffset="-13" yOffset="328"/>
  </outline>
</glyph>
<glyph name="primemod" format="2">
  <advance width="272"/>
  <unicode hex="02B9"/>
  <outline>
    <contour>
      <point x="90" y="446" type="line"/>
      <point x="92" y="446" type="line"/>
      <point x="182" y="680" type="line"/>
      <point x="180" y="680" type="line"/>
    </contour>
  </outline>
</glyph>
<glyph name="circumflex" format="2">
  <advance width="278"/>
  <unicode hex="02C6"/>
  <outline>
    <contour>
      <point x="32" y="660" type="line"/>
      <point x="140" y="743" type="line"/>
      <point x="246" y="660" type="line"/>
      <point x="248" y="661" type="line"/>
      <point x="141" y="745" type="line"/>
      <point x="139" y="745" type="line"/>
      <point x="30" y="661" type="line"/>
    </contour>
  </outline>
</glyph>
<glyph name="colontriangularhalfmod" format="2">
  <advance width="118"/>
  <unicode hex="02D1"/>
  <outline>
    <contour>
      <point x="57" y="423" type="line"/>
      <point x="61" y="423" type="line"/>
      <point x="65" y="437" type="line"/>
      <point x="53" y="437" type="line"/>
    </contour>
  </outline>
</glyph>
<glyph name="xsuperior" format="2">
  <advance width="330"/>
  <unicode hex="02E3"/>
  <outline>
    <contour>
      <point x="77" y="659" type="line"/>
      <point x="75" y="659" type="line"/>
      <point x="163" y="539" type="line"/>
      <point x="164" y="538" type="line"/>
      <point x="268" y="400" type="line"/>
      <point x="270" y="400" type="line"/>
      <point x="165" y="539" type="line"/>
      <point x="164" y="540" type="line"/>
    </contour>
    <contour>
      <point x="255" y="659" type="line"/>
      <point x="253" y="659" type="line"/>
      <point x="164" y="540" type="line"/>
      <point x="163" y="539" type="line"/>
      <point x="60" y="400" type="line"/>
      <point x="62" y="400" type="line"/>
      <point x="164" y="538" type="line"/>
      <point x="165" y="539" type="line"/>
    </contour>
  </outline>
</glyph>
<glyph name="gravecomb" format="2">
  <unicode hex="0300"/>
  <anchor x="109" y="517" name="_top"/>
  <anchor x="116" y="746" name="top"/>
  <outline>
    <contour>
      <point x="31" y="746" type="line"/>
      <point x="30" y="744" type="line"/>
      <point x="197" y="662" type="line"/>
      <point x="198" y="664" type="line"/>
    </contour>
  </outline>
</glyph>
<glyph name="acutecomb" format="2">
  <unicode hex="0301"/>
  <anchor x="119" y="517" name="_top"/>
  <anchor x="119" y="746" name="top"/>
  <outline>
    <contour>
      <point x="197" y="746" type="line"/>
      <point x="30" y="664" type="line"/>
      <point x="31" y="662" type="line"/>
      <point x="198" y="744" type="line"/>
    </contour>
  </outline>
</glyph>
<glyph name="circumflexcomb" format="2">
  <unicode hex="0302"/>
  <anchor x="139" y="517" name="_top"/>
  <anchor x="141" y="745" name="top"/>
  <outline>
    <contour>
      <point x="32" y="660" type="line"/>
      <point x="140" y="743" type="line"/>
      <point x="246" y="660" type="line"/>
      <point x="248" y="661" type="line"/>
      <point x="141" y="745" type="line"/>
      <point x="139" y="745" type="line"/>
      <point x="30" y="661" type="line"/>
    </contour>
  </outline>
</glyph>
<glyph name="macroncomb" format="2">
  <unicode hex="0304"/>
  <anchor x="125" y="517" name="_top"/>
  <anchor x="127" y="691" name="top"/>
  <outline>
    <contour>
      <point x="220" y="689" type="line"/>
      <point x="220" y="691" type="line"/>
      <point x="30" y="691" type="line"/>
      <point x="30" y="689" type="line"/>
    </contour>
  </outline>
</glyph>
<glyph name="brevecomb" format="2">
  <unicode hex="0306"/>
  <anchor x="126" y="517" name="_top"/>
  <anchor x="128" y="737" name="top"/>
  <outline>
    <contour>
      <point x="126" y="666" type="curve"/>
      <point x="181" y="666"/>
      <point x="211" y="698"/>
      <point x="222" y="736" type="curve"/>
      <point x="220" y="737" type="line"/>
      <point x="207" y="693"/>
      <point x="174" y="668"/>
      <point x="126" y="668" type="curve"/>
      <point x="78" y="668"/>
      <point x="45" y="693"/>
      <point x="32" y="737" type="curve"/>
      <point x="30" y="736" type="line"/>
      <point x="41" y="698"/>
      <point x="71" y="666"/>
    </contour>
  </outline>
</glyph>
<glyph name="dotaccentcomb" format="2">
  <unicode hex="0307"/>
  <anchor x="36" y="700" name="_center"/>
  <anchor x="36" y="517" name="_top"/>
  <anchor x="36" y="706" name="top"/>
  <outline>
    <contour>
      <point x="36" y="706" type="curve" smooth="yes"/>
      <point x="32" y="706"/>
      <point x="30" y="703"/>
      <point x="30" y="700" type="curve" smooth="yes"/>
      <point x="30" y="697"/>
      <point x="32" y="694"/>
      <point x="36" y="694" type="curve"/>
      <point x="40" y="694"/>
      <point x="42" y="697"/>
      <point x="42" y="700" type="curve" smooth="yes"/>
      <point x="42" y="703"/>
      <point x="40" y="706"/>
    </contour>
  </outline>
</glyph>
<glyph name="dieresiscomb" format="2">
  <unicode hex="0308"/>
  <anchor x="111" y="517" name="_top"/>
  <anchor x="113" y="691" name="top"/>
  <outline>
    <contour>
      <point x="185" y="691" type="curve" smooth="yes"/>
      <point x="181" y="691"/>
      <point x="179" y="688"/>
      <point x="179" y="685" type="curve" smooth="yes"/>
      <point x="179" y="682"/>
      <point x="181" y="679"/>
      <point x="185" y="679" type="curve" smooth="yes"/>
      <point x="189" y="679"/>
      <point x="191" y="682"/>
      <point x="191" y="685" type="curve" smooth="yes"/>
      <point x="191" y="688"/>
      <point x="189" y="691"/>
    </contour>
    <contour>
      <point x="36" y="691" type="curve" smooth="yes"/>
      <point x="32" y="691"/>
      <point x="30" y="688"/>
      <point x="30" y="685" type="curve" smooth="yes"/>
      <point x="30" y="682"/>
      <point x="32" y="679"/>
      <point x="36" y="679" type="curve" smooth="yes"/>
      <point x="40" y="679"/>
      <point x="42" y="682"/>
      <point x="42" y="685" type="curve" smooth="yes"/>
      <point x="42" y="688"/>
      <point x="40" y="691"/>
    </contour>
  </outline>
</glyph>
<glyph name="hookabovecomb" format="2">
  <unicode hex="0309"/>
  <anchor x="84" y="517" name="_top"/>
  <anchor x="71" y="488" name="_topright"/>
  <anchor x="92" y="797" name="top"/>
  <outline>
    <contour>
      <point x="80" y="625" type="line"/>
      <point x="82" y="625" type="line"/>
      <point x="82" y="683" type="line"/>
      <point x="118" y="686"/>
      <point x="149" y="698"/>
      <point x="149" y="742" type="curve" smooth="yes"/>
      <point x="149" y="777"/>
      <point x="124" y="797"/>
      <point x="88" y="797" type="curve" smooth="yes"/>
      <point x="63" y="797"/>
      <point x="44" y="788"/>
      <point x="30" y="780" type="curve"/>
      <point x="31" y="778" type="line"/>
      <point x="45" y="786"/>
      <point x="64" y="795"/>
      <point x="88" y="795" type="curve" smooth="yes"/>
      <point x="123" y="795"/>
      <point x="147" y="776"/>
      <point x="147" y="742" type="curve" smooth="yes"/>
      <point x="147" y="699"/>
      <point x="117" y="688"/>
      <point x="80" y="685" type="curve"/>
    </contour>
  </outline>
</glyph>
<glyph name="hungarumlautcomb" format="2">
  <unicode hex="030B"/>
  <anchor x="88" y="517" name="_top"/>
  <outline>
    <contour>
      <point x="197" y="785" type="line"/>
      <point x="131" y="662" type="line"/>
      <point x="133" y="661" type="line"/>
      <point x="199" y="784" type="line"/>
    </contour>
    <contour>
      <point x="91" y="782" type="line"/>
      <point x="30" y="664" type="line"/>
      <point x="32" y="663" type="line"/>
      <point x="93" y="781" type="line"/>
    </contour>
  </outline>
</glyph>
<glyph name="verticallineabovecomb" format="2">
  <unicode hex="030D"/>
  <anchor x="31" y="517" name="_top"/>
  <anchor x="33" y="838" name="top"/>
  <outline>
    <contour>
      <point x="30" y="644" type="line"/>
      <point x="32" y="644" type="line"/>
      <point x="32" y="838" type="line"/>
      <point x="30" y="838" type="line"/>
    </contour>
  </outline>
</glyph>
<glyph name="leftangleabovecomb" format="2">
  <unicode hex="031A"/>
  <anchor x="100" y="517" name="_top"/>
  <anchor x="102" y="738" name="top"/>
  <outline>
    <contour>
      <point x="30" y="738" type="line"/>
      <point x="30" y="736" type="line"/>
      <point x="167" y="736" type="line"/>
      <point x="167" y="588" type="line"/>
      <point x="169" y="588" type="line"/>
      <point x="169" y="738" type="line"/>
    </contour>
  </outline>
</glyph>
<glyph name="horncomb" format="2">
  <unicode hex="031B"/>
  <anchor x="40" y="517" name="_topright"/>
  <anchor x="92" y="517" name="topright"/>
  <outline>
    <contour>
      <point x="30" y="462" type="line"/>
      <point x="70" y="465"/>
      <point x="93" y="484"/>
      <point x="93" y="524" type="curve" smooth="yes"/>
      <point x="93" y="553"/>
      <point x="87" y="576"/>
      <point x="79" y="596" type="curve"/>
      <point x="77" y="596" type="line"/>
      <point x="85" y="576"/>
      <point x="91" y="553"/>
      <point x="91" y="524" type="curve" smooth="yes"/>
      <point x="91" y="485"/>
      <point x="69" y="467"/>
      <point x="29" y="464" type="curve"/>
    </contour>
  </outline>
</glyph>
<glyph name="bridgebelowcomb" format="2">
  <unicode hex="032A"/>
  <anchor x="145" y="0" name="_bottom"/>
  <anchor x="147" y="-206" name="bottom"/>
  <outline>
    <contour>
      <point x="30" y="-204" type="line"/>
      <point x="32" y="-204" type="line"/>
      <point x="32" y="-114" type="line"/>
      <point x="257" y="-114" type="line"/>
      <point x="257" y="-206" type="line"/>
      <point x="259" y="-206" type="line"/>
      <point x="259" y="-112" type="line"/>
      <point x="30" y="-112" type="line"/>
    </contour>
  </outline>
</glyph>
<glyph name="squarebelowcomb" format="2">
  <unicode hex="033B"/>
  <anchor x="140" y="0" name="_bottom"/>
  <anchor x="142" y="-202" name="bottom"/>
  <outline>
    <contour>
      <point x="30" y="-202" type="line"/>
      <point x="249" y="-202" type="line"/>
      <point x="249" y="-88" type="line"/>
      <point x="30" y="-88" type="line"/>
    </contour>
    <contour>
      <point x="32" y="-200" type="line"/>
      <point x="32" y="-90" type="line"/>
      <point x="247" y="-90" type="line"/>
      <point x="247" y="-200" type="line"/>
    </contour>
  </outline>
</glyph>
<glyph name="ypogegrammenicomb" format="2">
  <unicode hex="0345"/>
  <anchor x="31" y="0" name="_bottom"/>
  <anchor x="94" y="-142" name="bottom"/>
  <outline>
    <contour>
      <point x="79" y="-142" type="curve" smooth="yes"/>
      <point x="101" y="-142"/>
      <point x="115" y="-133"/>
      <point x="127" y="-125" type="curve"/>
      <point x="126" y="-123" type="line"/>
      <point x="113" y="-132"/>
      <point x="100" y="-140"/>
      <point x="79" y="-140" type="curve" smooth="yes"/>
      <point x="51" y="-140"/>
      <point x="32" y="-121"/>
      <point x="32" y="-83" type="curve" smooth="yes"/>
      <point x="32" y="-49" type="line"/>
      <point x="30" y="-49" type="line"/>
      <point x="30" y="-83" type="line" smooth="yes"/>
      <point x="30" y="-122"/>
      <point x="50" y="-142"/>
    </contour>
  </outline>
</glyph>
<glyph name="Archaicsampi" format="2">
  <advance width="494"/>
  <unicode hex="0372"/>
  <anchor x="247" y="0" name="bottom"/>
  <anchor x="247" y="680" name="top"/>
  <outline>
    <contour>
      <point x="245" y="0" type="line"/>
      <point x="247" y="0" type="line"/>
      <point x="247" y="678" type="line"/>
      <point x="472" y="678" type="line"/>
      <point x="472" y="680" type="line"/>
      <point x="20" y="680" type="line"/>
      <point x="20" y="678" type="line"/>
      <point x="245" y="678" type="line"/>
    </contour>
    <contour>
      <point x="20" y="480" type="line"/>
      <point x="22" y="480" type="line"/>
      <point x="22" y="680" type="line"/>
      <point x="20" y="680" type="line"/>
    </contour>
    <contour>
      <point x="472" y="480" type="line"/>
      <point x="474" y="480" type="line"/>
      <point x="474" y="680" type="line"/>
      <point x="472" y="680" type="line"/>
    </contour>
  </outline>
</glyph>
<glyph name="archaicsampi" format="2">
  <advance width="474"/>
  <unicode hex="0373"/>
  <anchor x="237" y="-188" name="bottom"/>
  <anchor x="237" y="517" name="top"/>
  <outline>
    <contour>
      <point x="233" y="516" type="line"/>
      <point x="231" y="516" type="line"/>
      <point x="231" y="-191" type="line"/>
      <point x="233" y="-191" type="line"/>
    </contour>
    <contour>
      <point x="16" y="507" type="line"/>
      <point x="31" y="513"/>
      <point x="44" y="515"/>
      <point x="76" y="515" type="curve" smooth="yes"/>
      <point x="452" y="515" type="line"/>
      <point x="452" y="517" type="line"/>
      <point x="76" y="517" type="line" smooth="yes"/>
      <point x="44" y="517"/>
      <point x="30" y="515"/>
      <point x="15" y="509" type="curve"/>
    </contour>
  </outline>
</glyph>
<glyph name="sigmaLunateReversedSymbol" format="2">
  <advance width="509"/>
  <unicode hex="037B"/>
  <anchor x="254.5" y="0" name="bottom"/>
  <anchor x="211" y="259" name="center"/>
  <anchor x="254.5" y="517" name="top"/>
  <outline>
    <contour>
      <point x="220" y="527" type="curve" smooth="yes"/>
      <point x="149" y="527"/>
      <point x="109" y="510"/>
      <point x="59" y="477" type="curve"/>
      <point x="61" y="476" type="line"/>
      <point x="111" y="509"/>
      <point x="151" y="525"/>
      <point x="220" y="525" type="curve" smooth="yes"/>
      <point x="349" y="525"/>
      <point x="427" y="424"/>
      <point x="427" y="256" type="curve" smooth="yes"/>
      <point x="427" y="88"/>
      <point x="333" y="-7"/>
      <point x="209" y="-7" type="curve" smooth="yes"/>
      <point x="140" y="-7"/>
      <point x="100" y="14"/>
      <point x="57" y="45" type="curve"/>
      <point x="55" y="44" type="line"/>
      <point x="98" y="13"/>
      <point x="138" y="-9"/>
      <point x="209" y="-9" type="curve" smooth="yes"/>
      <point x="334" y="-9"/>
      <point x="429" y="86"/>
      <point x="429" y="256" type="curve" smooth="yes"/>
      <point x="429" y="426"/>
      <point x="351" y="527"/>
    </contour>
  </outline>
</glyph>
<glyph name="Delta" format="2">
  <advance width="566"/>
  <unicode hex="0394"/>
  <anchor x="283" y="0" name="bottom"/>
  <anchor x="283" y="680" name="top"/>
  <outline>
    <contour>
      <point x="283" y="678" type="line"/>
      <point x="528" y="2" type="line"/>
      <point x="38" y="2" type="line"/>
    </contour>
    <contour>
      <point x="284" y="680" type="line"/>
      <point x="282" y="680" type="line"/>
      <point x="35" y="0" type="line"/>
      <point x="531" y="0" type="line"/>
    </contour>
  </outline>
</glyph>
<glyph name="Lambda" format="2">
  <advance width="556"/>
  <unicode hex="039B"/>
  <anchor x="284" y="0" name="bottom"/>
  <anchor x="278" y="680" name="top"/>
  <outline>
    <contour>
      <point x="278" y="680" type="line"/>
      <point x="276" y="680" type="line"/>
      <point x="35" y="0" type="line"/>
      <point x="37" y="0" type="line"/>
      <point x="277" y="678" type="line"/>
      <point x="519" y="0" type="line"/>
      <point x="521" y="0" type="line"/>
    </contour>
  </outline>
</glyph>
<glyph name="Xi" format="2">
  <advance width="485"/>
  <unicode hex="039E"/>
  <anchor x="242.5" y="0" name="bottom"/>
  <anchor x="242.5" y="680" name="top"/>
  <outline>
    <contour>
      <point x="415" y="2" type="line"/>
      <point x="60" y="2" type="line"/>
      <point x="60" y="0" type="line"/>
      <point x="415" y="0" type="line"/>
    </contour>
    <contour>
      <point x="362" y="362" type="line"/>
      <point x="115" y="362" type="line"/>
      <point x="115" y="360" type="line"/>
      <point x="362" y="360" type="line"/>
    </contour>
    <contour>
      <point x="406" y="680" type="line"/>
      <point x="60" y="680" type="line"/>
      <point x="60" y="678" type="line"/>
      <point x="406" y="678" type="line"/>
    </contour>
  </outline>
</glyph>
<glyph name="Sigma" format="2">
  <advance width="481"/>
  <unicode hex="03A3"/>
  <anchor x="240.5" y="0" name="bottom"/>
  <anchor x="240.5" y="680" name="top"/>
  <outline>
    <contour>
      <point x="421" y="680" type="line"/>
      <point x="60" y="680" type="line"/>
      <point x="60" y="677" type="line"/>
      <point x="303" y="339" type="line"/>
      <point x="60" y="3" type="line"/>
      <point x="60" y="0" type="line"/>
      <point x="421" y="0" type="line"/>
      <point x="421" y="2" type="line"/>
      <point x="62" y="2" type="line"/>
      <point x="305" y="338" type="line"/>
      <point x="305" y="340" type="line"/>
      <point x="62" y="678" type="line"/>
      <point x="421" y="678" type="line"/>
    </contour>
  </outline>
</glyph>
<glyph name="gamma" format="2">
  <advance width="429"/>
  <unicode hex="03B3"/>
  <anchor x="214.5" y="-188" name="bottom"/>
  <anchor x="214.5" y="517" name="top"/>
  <outline>
    <contour>
      <point x="27" y="520" type="curve"/>
      <point x="25" y="519" type="line"/>
      <point x="81" y="447"/>
      <point x="144" y="320"/>
      <point x="214" y="12" type="curve"/>
      <point x="186" y="-69"/>
      <point x="191" y="-123"/>
      <point x="212" y="-190" type="curve"/>
      <point x="214" y="-190" type="line"/>
      <point x="193" y="-120"/>
      <point x="188" y="-67"/>
      <point x="217" y="14" type="curve" smooth="yes"/>
      <point x="399" y="517" type="line"/>
      <point x="397" y="518" type="line"/>
      <point x="215" y="15" type="line"/>
      <point x="146" y="323"/>
      <point x="83" y="448"/>
    </contour>
  </outline>
</glyph>
<glyph name="iota" format="2">
  <advance width="252"/>
  <unicode hex="03B9"/>
  <anchor x="126" y="0" name="bottom"/>
  <anchor x="121" y="517" name="top"/>
  <outline>
    <contour>
      <point x="122" y="517" type="line"/>
      <point x="120" y="517" type="line"/>
      <point x="120" y="97" type="line" smooth="yes"/>
      <point x="120" y="39"/>
      <point x="131" y="16"/>
      <point x="176" y="-4" type="curve"/>
      <point x="177" y="-2" type="line"/>
      <point x="133" y="16"/>
      <point x="122" y="41"/>
      <point x="122" y="97" type="curve" smooth="yes"/>
    </contour>
  </outline>
</glyph>
<glyph name="pi" format="2">
  <advance width="566"/>
  <unicode hex="03C0"/>
  <anchor x="283" y="0" name="bottom"/>
  <anchor x="283" y="517" name="top"/>
  <outline>
    <contour>
      <point x="477" y="-4" type="curve"/>
      <point x="478" y="-2" type="line"/>
      <point x="434" y="16"/>
      <point x="423" y="41"/>
      <point x="423" y="97" type="curve" smooth="yes"/>
      <point x="423" y="516" type="line"/>
      <point x="421" y="516" type="line"/>
      <point x="421" y="97" type="line" smooth="yes"/>
      <point x="421" y="39"/>
      <point x="432" y="16"/>
    </contour>
    <contour>
      <point x="148" y="0" type="line"/>
      <point x="150" y="0" type="line"/>
      <point x="150" y="516" type="line"/>
      <point x="148" y="516" type="line"/>
    </contour>
    <contour>
      <point x="49" y="507" type="line"/>
      <point x="64" y="513"/>
      <point x="77" y="515"/>
      <point x="109" y="515" type="curve" smooth="yes"/>
      <point x="505" y="515" type="line"/>
      <point x="505" y="517" type="line"/>
      <point x="109" y="517" type="line" smooth="yes"/>
      <point x="77" y="517"/>
      <point x="63" y="515"/>
      <point x="48" y="509" type="curve"/>
    </contour>
  </outline>
</glyph>
<glyph name="chi" format="2">
  <advance width="405"/>
  <unicode hex="03C7"/>
  <anchor x="202.5" y="-188" name="bottom"/>
  <anchor x="202.5" y="517" name="top"/>
  <outline>
    <contour>
      <point x="17" y="518" type="curve"/>
      <point x="15" y="517" type="line"/>
      <point x="68" y="457"/>
      <point x="119" y="379"/>
      <point x="201" y="183" type="curve"/>
      <point x="202" y="181" type="line"/>
      <point x="383" y="-188" type="line"/>
      <point x="385" y="-188" type="line"/>
      <point x="203" y="183" type="line"/>
      <point x="202" y="185" type="line"/>
      <point x="121" y="379"/>
      <point x="70" y="458"/>
    </contour>
    <contour>
      <point x="363" y="517" type="line"/>
      <point x="202" y="185" type="line"/>
      <point x="201" y="183" type="line"/>
      <point x="21" y="-188" type="line"/>
      <point x="23" y="-188" type="line"/>
      <point x="202" y="181" type="line"/>
      <point x="203" y="183" type="line"/>
      <point x="365" y="517" type="line"/>
    </contour>
  </outline>
</glyph>
<glyph name="KaiSymbol" format="2">
  <advance width="549"/>
  <unicode hex="03CF"/>
  <anchor x="274.5" y="-188" name="bottom"/>
  <anchor x="284" y="680" name="top"/>
  <outline>
    <contour>
      <point x="486" y="2" type="line"/>
      <point x="486" y="0" type="line"/>
      <point x="539" y="0" type="line"/>
      <point x="539" y="2" type="line"/>
    </contour>
    <component base="Kappa"/>
    <component base="hookHELPER.case" xOffset="333"/>
  </outline>
</glyph>
<glyph name="Digamma" format="2">
  <advance width="541"/>
  <unicode hex="03DC"/>
  <anchor x="330" y="680" name="top"/>
  <anchor x="142" y="0" name="bottomright"/>
  <anchor x="131" y="0" name="bottom"/>
  <outline>
    <contour>
      <point x="427" y="340" type="curve"/>
      <point x="428" y="342" type="line"/>
      <point x="409" y="352"/>
      <point x="389" y="359"/>
      <point x="359" y="359" type="curve" smooth="yes"/>
      <point x="130" y="359" type="line"/>
      <point x="130" y="357" type="line"/>
      <point x="359" y="357" type="line" smooth="yes"/>
      <point x="388" y="357"/>
      <point x="409" y="350"/>
    </contour>
    <component base="Gamma"/>
  </outline>
</glyph>
<glyph name="Tshe-cy" format="2">
  <advance width="692"/>
  <unicode hex="040B"/>
  <anchor x="398.5" y="680.0" name="top"/>
  <anchor x="622" y="0" name="bottomright"/>
  <anchor x="398.5" y="0.0" name="bottom"/>
  <outline>
    <contour>
      <point x="452" y="680" type="line"/>
      <point x="20" y="680" type="line"/>
      <point x="20" y="678" type="line"/>
      <point x="452" y="678" type="line"/>
    </contour>
    <component base="Shha-cy" xOffset="105"/>
  </outline>
</glyph>
<glyph name="Be-cy" format="2">
  <advance width="564"/>
  <unicode hex="0411"/>
  <anchor x="282" y="0" name="bottom"/>
  <anchor x="282" y="680" name="top"/>
  <outline>
    <contour>
      <point x="132" y="680" type="line"/>
      <point x="130" y="680" type="line"/>
      <point x="130" y="0" type="line"/>
      <point x="280" y="0" type="line" smooth="yes"/>
      <point x="409" y="0"/>
      <point x="489" y="70"/>
      <point x="489" y="210" type="curve" smooth="yes"/>
      <point x="489" y="335"/>
      <point x="412" y="399"/>
      <point x="276" y="399" type="curve" smooth="yes"/>
      <point x="131" y="399" type="line"/>
      <point x="131" y="397" type="line"/>
      <point x="276" y="397" type="line" smooth="yes"/>
      <point x="411" y="397"/>
      <point x="487" y="333"/>
      <point x="487" y="210" type="curve" smooth="yes"/>
      <point x="487" y="72"/>
      <point x="409" y="2"/>
      <point x="280" y="2" type="curve" smooth="yes"/>
      <point x="132" y="2" type="line"/>
    </contour>
    <contour>
      <point x="428" y="680" type="line"/>
      <point x="130" y="680" type="line"/>
      <point x="131" y="678" type="line"/>
      <point x="428" y="678" type="line"/>
    </contour>
  </outline>
</glyph>
<glyph name="Ge-cy" format="2">
  <advance width="521"/>
  <unicode hex="0413"/>
  <anchor x="131" y="0" name="bottom"/>
  <anchor x="142" y="0" name="bottomright"/>
  <anchor x="330" y="680" name="top"/>
  <outline>
    <contour>
      <point x="130" y="680" type="line"/>
      <point x="130" y="0" type="line"/>
      <point x="132" y="0" type="line"/>
      <point x="132" y="679" type="line"/>
    </contour>
    <contour>
      <point x="501" y="680" type="line" smooth="yes"/>
      <point x="130" y="680" type="line"/>
      <point x="131" y="678" type="line"/>
      <point x="501" y="678" type="line" smooth="yes"/>
    </contour>
  </outline>
</glyph>
<glyph name="Zhe-cy" format="2">
  <advance width="716"/>
  <unicode hex="0416"/>
  <anchor x="358" y="0" name="bottom"/>
  <anchor x="683" y="0" name="bottomright"/>
  <anchor x="358" y="680" name="top"/>
  <outline>
    <contour>
      <point x="660" y="680" type="line"/>
      <point x="657" y="680" type="line"/>
      <point x="479" y="361" type="line"/>
      <point x="359" y="361" type="line"/>
      <point x="359" y="680" type="line"/>
      <point x="357" y="680" type="line"/>
      <point x="357" y="361" type="line"/>
      <point x="242" y="361" type="line"/>
      <point x="59" y="680" type="line"/>
      <point x="56" y="680" type="line"/>
      <point x="240" y="360" type="line"/>
      <point x="40" y="0" type="line"/>
      <point x="43" y="0" type="line"/>
      <point x="242" y="359" type="line"/>
      <point x="357" y="359" type="line"/>
      <point x="357" y="1" type="line"/>
      <point x="359" y="1" type="line"/>
      <point x="359" y="359" type="line"/>
      <point x="479" y="359" type="line"/>
      <point x="673" y="0" type="line"/>
      <point x="676" y="0" type="line"/>
      <point x="481" y="360" type="line"/>
    </contour>
  </outline>
</glyph>
<glyph name="Ii-cy" format="2">
  <advance width="653"/>
  <unicode hex="0418"/>
  <anchor x="326.5" y="0" name="bottom"/>
  <anchor x="533" y="0" name="bottomright"/>
  <anchor x="334" y="680" name="top"/>
  <outline>
    <contour>
      <point x="523" y="680" type="line"/>
      <point x="520" y="680" type="line"/>
      <point x="132" y="2" type="line"/>
      <point x="132" y="13"/>
      <point x="132" y="25"/>
      <point x="132" y="36" type="curve"/>
      <point x="132" y="680" type="line"/>
      <point x="130" y="680" type="line"/>
      <point x="130" y="0" type="line"/>
      <point x="133" y="0" type="line"/>
      <point x="521" y="678" type="line"/>
      <point x="521" y="661"/>
      <point x="521" y="642"/>
      <point x="521" y="625" type="curve"/>
      <point x="521" y="0" type="line"/>
      <point x="523" y="0" type="line"/>
    </contour>
  </outline>
</glyph>
<glyph name="Ka-cy" format="2">
  <advance width="532"/>
  <unicode hex="041A"/>
  <anchor x="266" y="0" name="bottom"/>
  <anchor x="504" y="0" name="bottomright"/>
  <anchor x="295" y="680" name="top"/>
  <outline>
    <contour>
      <point x="479" y="680" type="line"/>
      <point x="476" y="680" type="line"/>
      <point x="262" y="361" type="line"/>
      <point x="132" y="361" type="line"/>
      <point x="132" y="680" type="line"/>
      <point x="130" y="680" type="line"/>
      <point x="130" y="1" type="line"/>
      <point x="132" y="1" type="line"/>
      <point x="132" y="359" type="line"/>
      <point x="262" y="359" type="line"/>
      <point x="494" y="0" type="line"/>
      <point x="497" y="0" type="line"/>
      <point x="264" y="360" type="line"/>
    </contour>
  </outline>
</glyph>
<glyph name="Pe-cy" format="2">
  <advance width="654"/>
  <unicode hex="041F"/>
  <anchor x="327" y="0" name="bottom"/>
  <anchor x="534" y="0" name="bottomright"/>
  <anchor x="327" y="680" name="top"/>
  <outline>
    <contour>
      <point x="524" y="680" type="line"/>
      <point x="130" y="680" type="line"/>
      <point x="130" y="0" type="line"/>
      <point x="132" y="0" type="line"/>
      <point x="132" y="678" type="line"/>
      <point x="522" y="678" type="line"/>
      <point x="522" y="0" type="line"/>
      <point x="524" y="0" type="line"/>
    </contour>
  </outline>
</glyph>
<glyph name="Sha-cy" format="2">
  <advance width="888"/>
  <unicode hex="0428"/>
  <anchor x="444" y="0" name="bottom"/>
  <anchor x="768" y="0" name="bottomright"/>
  <anchor x="444" y="680" name="top"/>
  <outline>
    <contour>
      <point x="758" y="682" type="line"/>
      <point x="756" y="682" type="line"/>
      <point x="756" y="2" type="line"/>
      <point x="445" y="2" type="line"/>
      <point x="445" y="682" type="line"/>
      <point x="443" y="682" type="line"/>
      <point x="443" y="2" type="line"/>
      <point x="132" y="2" type="line"/>
      <point x="132" y="682" type="line"/>
      <point x="130" y="682" type="line"/>
      <point x="130" y="0" type="line"/>
      <point x="758" y="0" type="line"/>
    </contour>
  </outline>
</glyph>
<glyph name="Hardsign-cy" format="2">
  <advance width="577"/>
  <unicode hex="042A"/>
  <anchor x="302.5" y="680.0" name="top"/>
  <anchor x="302.5" y="0.0" name="bottom"/>
  <outline>
    <contour>
      <point x="158" y="678" type="line"/>
      <point x="160" y="680" type="line"/>
      <point x="0" y="680" type="line"/>
      <point x="0" y="678" type="line"/>
    </contour>
    <component base="Softsign-cy" xOffset="28"/>
  </outline>
</glyph>
<glyph name="ge-cy" format="2">
  <advance width="415"/>
  <unicode hex="0433"/>
  <anchor x="126" y="0" name="bottom"/>
  <anchor x="137" y="0" name="bottomright"/>
  <anchor x="263" y="517" name="top"/>
  <outline>
    <contour>
      <point x="127" y="0" type="line"/>
      <point x="127" y="515" type="line"/>
      <point x="399" y="515" type="line"/>
      <point x="400" y="517" type="line"/>
      <point x="125" y="517" type="line"/>
      <point x="125" y="0" type="line"/>
    </contour>
  </outline>
</glyph>
<glyph name="de-cy" format="2">
  <advance width="538"/>
  <unicode hex="0434"/>
  <anchor x="269" y="-188" name="bottom"/>
  <anchor x="269" y="517" name="top"/>
  <outline>
    <contour>
      <point x="42" y="2" type="curve"/>
      <point x="44" y="1" type="line"/>
      <point x="97" y="35"/>
      <point x="124" y="88"/>
      <point x="139" y="306" type="curve" smooth="yes"/>
      <point x="153" y="515" type="line"/>
      <point x="411" y="515" type="line"/>
      <point x="411" y="2" type="line"/>
      <point x="42" y="2" type="line"/>
      <point x="42" y="0" type="line"/>
      <point x="413" y="0" type="line"/>
      <point x="413" y="517" type="line"/>
      <point x="151" y="517" type="line"/>
      <point x="137" y="306" type="line" smooth="yes"/>
      <point x="122" y="87"/>
      <point x="94" y="36"/>
    </contour>
    <component base="descStraight-cy" xOffset="393"/>
    <component base="descStraight-cy" xScale="-1" xOffset="80"/>
  </outline>
</glyph>
<glyph name="zhe-cy" format="2">
  <advance width="654"/>
  <unicode hex="0436"/>
  <anchor x="327" y="0" name="bottom"/>
  <anchor x="611" y="0" name="bottomright"/>
  <anchor x="327" y="517" name="top"/>
  <outline>
    <contour>
      <point x="574" y="517" type="line"/>
      <point x="571" y="517" type="line"/>
      <point x="444" y="278" type="line"/>
      <point x="328" y="278" type="line"/>
      <point x="328" y="517" type="line"/>
      <point x="326" y="517" type="line"/>
      <point x="326" y="278" type="line"/>
      <point x="210" y="278" type="line"/>
      <point x="83" y="517" type="line"/>
      <point x="80" y="517" type="line"/>
      <point x="208" y="277" type="line"/>
      <point x="50" y="0" type="line"/>
      <point x="53" y="0" type="line"/>
      <point x="210" y="276" type="line"/>
      <point x="326" y="276" type="line"/>
      <point x="326" y="0" type="line"/>
      <point x="328" y="0" type="line"/>
      <point x="328" y="276" type="line"/>
      <point x="444" y="276" type="line"/>
      <point x="601" y="0" type="line"/>
      <point x="604" y="0" type="line"/>
      <point x="446" y="277" type="line"/>
    </contour>
  </outline>
</glyph>
<glyph name="ii-cy" format="2">
  <advance width="580"/>
  <unicode hex="0438"/>
  <anchor x="290" y="0" name="bottom"/>
  <anchor x="465" y="0" name="bottomright"/>
  <anchor x="290" y="517" name="top"/>
  <outline>
    <contour>
      <point x="455" y="517" type="line"/>
      <point x="452" y="517" type="line"/>
      <point x="127" y="2" type="line"/>
      <point x="127" y="42"/>
      <point x="127" y="81"/>
      <point x="127" y="121" type="curve"/>
      <point x="127" y="517" type="line"/>
      <point x="125" y="517" type="line"/>
      <point x="125" y="0" type="line"/>
      <point x="128" y="0" type="line"/>
      <point x="453" y="515" type="line"/>
      <point x="453" y="475"/>
      <point x="453" y="434"/>
      <point x="453" y="394" type="curve"/>
      <point x="453" y="0" type="line"/>
      <point x="455" y="0" type="line"/>
    </contour>
  </outline>
</glyph>
<glyph name="ka-cy" format="2">
  <advance width="468"/>
  <unicode hex="043A"/>
  <anchor x="234" y="0" name="bottom"/>
  <anchor x="435" y="0" name="bottomright"/>
  <anchor x="265" y="517" name="top"/>
  <outline>
    <contour>
      <point x="398" y="517" type="line"/>
      <point x="395" y="517" type="line"/>
      <point x="223" y="279" type="line"/>
      <point x="127" y="279" type="line"/>
      <point x="127" y="517" type="line"/>
      <point x="125" y="517" type="line"/>
      <point x="125" y="0" type="line"/>
      <point x="127" y="0" type="line"/>
      <point x="127" y="277" type="line"/>
      <point x="223" y="277" type="line"/>
      <point x="425" y="0" type="line"/>
      <point x="428" y="0" type="line"/>
      <point x="225" y="278" type="line"/>
    </contour>
  </outline>
</glyph>
<glyph name="em-cy" format="2">
  <advance width="643"/>
  <unicode hex="043C"/>
  <anchor x="321.5" y="0" name="bottom"/>
  <anchor x="567" y="0" name="bottomright"/>
  <anchor x="321.5" y="517" name="top"/>
  <outline>
    <contour>
      <point x="513" y="517" type="line"/>
      <point x="510" y="517" type="line"/>
      <point x="322" y="84" type="line"/>
      <point x="133" y="517" type="line"/>
      <point x="130" y="517" type="line"/>
      <point x="85" y="0" type="line"/>
      <point x="87" y="0" type="line"/>
      <point x="129" y="478" type="line"/>
      <point x="130" y="490"/>
      <point x="131" y="503"/>
      <point x="132" y="514" type="curve"/>
      <point x="321" y="81" type="line"/>
      <point x="323" y="81" type="line"/>
      <point x="511" y="514" type="line"/>
      <point x="512" y="503"/>
      <point x="513" y="490"/>
      <point x="514" y="478" type="curve"/>
      <point x="556" y="0" type="line"/>
      <point x="558" y="0" type="line"/>
    </contour>
  </outline>
</glyph>
<glyph name="en-cy" format="2">
  <advance width="578"/>
  <unicode hex="043D"/>
  <anchor x="289" y="0" name="bottom"/>
  <anchor x="463" y="0" name="bottomright"/>
  <anchor x="284" y="517" name="top"/>
  <outline>
    <contour>
      <point x="451" y="0" type="line"/>
      <point x="453" y="0" type="line"/>
      <point x="453" y="517" type="line"/>
      <point x="451" y="517" type="line"/>
      <point x="451" y="273" type="line"/>
      <point x="127" y="273" type="line"/>
      <point x="127" y="517" type="line"/>
      <point x="125" y="517" type="line"/>
      <point x="125" y="0" type="line"/>
      <point x="127" y="0" type="line"/>
      <point x="127" y="271" type="line"/>
      <point x="451" y="271" type="line"/>
    </contour>
  </outline>
</glyph>
<glyph name="pe-cy" format="2">
  <advance width="573"/>
  <unicode hex="043F"/>
  <anchor x="286.5" y="0" name="bottom"/>
  <anchor x="458" y="0" name="bottomright"/>
  <anchor x="286.5" y="517" name="top"/>
  <outline>
    <contour>
      <point x="446" y="0" type="line"/>
      <point x="448" y="0" type="line"/>
      <point x="448" y="517" type="line"/>
      <point x="125" y="517" type="line"/>
      <point x="125" y="0" type="line"/>
      <point x="127" y="0" type="line"/>
      <point x="127" y="515" type="line"/>
      <point x="446" y="515" type="line"/>
    </contour>
  </outline>
</glyph>
<glyph name="te-cy" format="2">
  <advance width="410"/>
  <unicode hex="0442"/>
  <anchor x="205" y="0" name="bottom"/>
  <anchor x="216" y="0" name="bottomright"/>
  <anchor x="205" y="517" name="top"/>
  <outline>
    <contour>
      <point x="395" y="517" type="line"/>
      <point x="15" y="517" type="line"/>
      <point x="15" y="515" type="line"/>
      <point x="204" y="515" type="line"/>
      <point x="204" y="0" type="line"/>
      <point x="206" y="0" type="line"/>
      <point x="206" y="515" type="line"/>
      <point x="395" y="515" type="line"/>
    </contour>
  </outline>
</glyph>
<glyph name="che-cy" format="2">
  <advance width="520"/>
  <unicode hex="0447"/>
  <anchor x="260" y="0" name="bottom"/>
  <anchor x="373" y="0" name="bottomleft"/>
  <anchor x="405" y="0" name="bottomright"/>
  <anchor x="235" y="517" name="top"/>
  <outline>
    <contour>
      <point x="394" y="286" type="curve"/>
      <point x="394" y="290" type="line"/>
      <point x="357" y="240"/>
      <point x="305" y="192"/>
      <point x="213" y="192" type="curve" smooth="yes"/>
      <point x="128" y="192"/>
      <point x="77" y="239"/>
      <point x="77" y="322" type="curve" smooth="yes"/>
      <point x="77" y="517" type="line"/>
      <point x="75" y="517" type="line"/>
      <point x="75" y="322" type="line" smooth="yes"/>
      <point x="75" y="237"/>
      <point x="128" y="190"/>
      <point x="213" y="190" type="curve" smooth="yes"/>
      <point x="304" y="190"/>
      <point x="356" y="237"/>
    </contour>
    <contour>
      <point x="393" y="517" type="line"/>
      <point x="393" y="0" type="line"/>
      <point x="395" y="0" type="line"/>
      <point x="395" y="517" type="line"/>
    </contour>
  </outline>
</glyph>
<glyph name="sha-cy" format="2">
  <advance width="802"/>
  <unicode hex="0448"/>
  <anchor x="401" y="0" name="bottom"/>
  <anchor x="687" y="0" name="bottomright"/>
  <anchor x="401" y="517" name="top"/>
  <outline>
    <contour>
      <point x="677" y="516" type="line"/>
      <point x="675" y="516" type="line"/>
      <point x="675" y="2" type="line"/>
      <point x="402" y="2" type="line"/>
      <point x="402" y="516" type="line"/>
      <point x="400" y="516" type="line"/>
      <point x="400" y="2" type="line"/>
      <point x="127" y="2" type="line"/>
      <point x="127" y="516" type="line"/>
      <point x="125" y="516" type="line"/>
      <point x="125" y="0" type="line"/>
      <point x="677" y="0" type="line"/>
    </contour>
  </outline>
</glyph>
<glyph name="hardsign-cy" format="2">
  <advance width="527"/>
  <unicode hex="044A"/>
  <anchor x="281" y="517" name="top"/>
  <anchor x="281" y="0" name="bottom"/>
  <outline>
    <contour>
      <point x="160" y="515" type="line"/>
      <point x="161" y="517" type="line"/>
      <point x="10" y="517" type="line"/>
      <point x="10" y="515" type="line"/>
    </contour>
    <component base="softsign-cy" xOffset="35"/>
  </outline>
</glyph>
<glyph name="dje-cy" format="2">
  <advance width="585"/>
  <unicode hex="0452"/>
  <anchor x="292.5" y="-188" name="bottom"/>
  <anchor x="292.5" y="727" name="top"/>
  <outline>
    <contour>
      <point x="465" y="17" type="line"/>
      <point x="463" y="17" type="line"/>
      <point x="463" y="1" type="line" smooth="yes"/>
      <point x="463" y="-117"/>
      <point x="434" y="-153"/>
      <point x="366" y="-189" type="curve"/>
      <point x="367" y="-191" type="line"/>
      <point x="436" y="-154"/>
      <point x="465" y="-118"/>
      <point x="465" y="1" type="curve" smooth="yes"/>
    </contour>
    <contour>
      <point x="323" y="640" type="line"/>
      <point x="55" y="640" type="line"/>
      <point x="55" y="638" type="line"/>
      <point x="130" y="638" type="line"/>
      <point x="323" y="638" type="line"/>
    </contour>
    <contour>
      <point x="132" y="730" type="line"/>
      <point x="130" y="730" type="line"/>
      <point x="130" y="0" type="line"/>
      <point x="132" y="0" type="line"/>
    </contour>
    <contour>
      <point x="331" y="527" type="curve" smooth="yes"/>
      <point x="243" y="527"/>
      <point x="179" y="475"/>
      <point x="131" y="389" type="curve"/>
      <point x="132" y="387" type="line"/>
      <point x="180" y="473"/>
      <point x="244" y="525"/>
      <point x="331" y="525" type="curve" smooth="yes"/>
      <point x="424" y="525"/>
      <point x="463" y="464"/>
      <point x="463" y="368" type="curve" smooth="yes"/>
      <point x="463" y="0" type="line"/>
      <point x="465" y="0" type="line"/>
      <point x="465" y="368" type="line" smooth="yes"/>
      <point x="465" y="465"/>
      <point x="425" y="527"/>
    </contour>
  </outline>
</glyph>
<glyph name="nje-cy" format="2">
  <advance width="798"/>
  <unicode hex="045A"/>
  <anchor x="399" y="0" name="bottom"/>
  <anchor x="399" y="517" name="top"/>
  <outline>
    <contour>
      <point x="443" y="517" type="line"/>
      <point x="441" y="517" type="line"/>
      <point x="441" y="0" type="line"/>
      <point x="563" y="0" type="line" smooth="yes"/>
      <point x="678" y="0"/>
      <point x="743" y="57"/>
      <point x="743" y="161" type="curve" smooth="yes"/>
      <point x="743" y="249"/>
      <point x="692" y="308"/>
      <point x="563" y="308" type="curve" smooth="yes"/>
      <point x="442" y="308" type="line"/>
      <point x="442" y="306" type="line"/>
      <point x="563" y="306" type="line" smooth="yes"/>
      <point x="691" y="306"/>
      <point x="741" y="247"/>
      <point x="741" y="161" type="curve" smooth="yes"/>
      <point x="741" y="59"/>
      <point x="678" y="2"/>
      <point x="563" y="2" type="curve" smooth="yes"/>
      <point x="443" y="2" type="line"/>
    </contour>
    <contour>
      <point x="127" y="517" type="line"/>
      <point x="125" y="517" type="line"/>
      <point x="125" y="0" type="line"/>
      <point x="127" y="0" type="line"/>
      <point x="127" y="307" type="line"/>
      <point x="441" y="306" type="line"/>
      <point x="441" y="308" type="line"/>
      <point x="127" y="309" type="line"/>
    </contour>
  </outline>
</glyph>
<glyph name="yuslittle-cy" format="2">
  <advance width="481"/>
  <unicode hex="0467"/>
  <anchor x="240.5" y="0" name="bottom"/>
  <anchor x="240.5" y="517" name="top"/>
  <outline>
    <contour>
      <point x="240" y="517" type="line"/>
      <point x="238" y="517" type="line"/>
      <point x="30" y="0" type="line"/>
      <point x="32" y="0" type="line"/>
      <point x="239" y="514" type="line"/>
      <point x="449" y="0" type="line"/>
      <point x="451" y="0" type="line"/>
    </contour>
    <contour>
      <point x="339" y="275" type="line"/>
      <point x="141" y="275" type="line"/>
      <point x="140" y="273" type="line"/>
      <point x="339" y="273" type="line"/>
    </contour>
    <contour>
      <point x="239" y="274" type="line"/>
      <point x="239" y="0" type="line"/>
      <point x="241" y="0" type="line"/>
      <point x="241" y="274" type="line"/>
    </contour>
  </outline>
</glyph>
<glyph name="Yuslittleiotified-cy" format="2">
  <advance width="743"/>
  <unicode hex="0468"/>
  <anchor x="371.5" y="0" name="bottom"/>
  <anchor x="371.5" y="680" name="top"/>
  <outline>
    <contour>
      <point x="374" y="361" type="line"/>
      <point x="374" y="363" type="line"/>
      <point x="132" y="363" type="line"/>
      <point x="132" y="680" type="line"/>
      <point x="130" y="680" type="line"/>
      <point x="130" y="0" type="line"/>
      <point x="132" y="0" type="line"/>
      <point x="132" y="361" type="line"/>
    </contour>
    <component base="Yuslittle-cy" xOffset="187"/>
  </outline>
</glyph>
<glyph name="Gheupturn-cy" format="2">
  <advance width="521"/>
  <unicode hex="0490"/>
  <anchor x="330" y="680" name="top"/>
  <anchor x="142" y="0" name="bottomright"/>
  <anchor x="131" y="0" name="bottom"/>
  <outline>
    <contour>
      <point x="499" y="679" type="line"/>
      <point x="501" y="680" type="line"/>
      <point x="501" y="779" type="line"/>
      <point x="499" y="779" type="line"/>
    </contour>
    <component base="Ge-cy"/>
  </outline>
</glyph>
<glyph name="gheupturn-cy" format="2">
  <advance width="415"/>
  <unicode hex="0491"/>
  <anchor x="263" y="517" name="top"/>
  <anchor x="137" y="0" name="bottomright"/>
  <anchor x="126" y="0" name="bottom"/>
  <outline>
    <contour>
      <point x="398" y="516" type="line"/>
      <point x="400" y="517" type="line"/>
      <point x="400" y="610" type="line"/>
      <point x="398" y="610" type="line"/>
    </contour>
    <component base="ge-cy"/>
  </outline>
</glyph>
<glyph name="Ghestroke-cy" format="2">
  <advance width="524"/>
  <unicode hex="0492"/>
  <anchor x="333" y="680" name="top"/>
  <anchor x="145" y="0" name="bottomright"/>
  <anchor x="134" y="0" name="bottom"/>
  <outline>
    <contour>
      <point x="299" y="379" type="line"/>
      <point x="35" y="379" type="line"/>
      <point x="35" y="377" type="line"/>
      <point x="133" y="377" type="line"/>
      <point x="299" y="377" type="line"/>
    </contour>
    <component base="Ge-cy" xOffset="3"/>
  </outline>
</glyph>
<glyph name="ghestroke-cy" format="2">
  <advance width="415"/>
  <unicode hex="0493"/>
  <anchor x="263" y="517" name="top"/>
  <anchor x="137" y="0" name="bottomright"/>
  <anchor x="126" y="0" name="bottom"/>
  <outline>
    <contour>
      <point x="266" y="293" type="line"/>
      <point x="125" y="293" type="line"/>
      <point x="58" y="293" type="line"/>
      <point x="58" y="291" type="line"/>
      <point x="266" y="291" type="line"/>
    </contour>
    <component base="ge-cy"/>
  </outline>
</glyph>
<glyph name="Kaverticalstroke-cy" format="2">
  <advance width="537"/>
  <unicode hex="049C"/>
  <anchor x="268.5" y="0" name="bottom"/>
  <anchor x="268.5" y="680" name="top"/>
  <outline>
    <contour>
      <point x="479" y="680" type="line"/>
      <point x="476" y="680" type="line"/>
      <point x="262" y="361" type="line"/>
      <point x="132" y="361" type="line"/>
      <point x="132" y="680" type="line"/>
      <point x="130" y="680" type="line"/>
      <point x="130" y="1" type="line"/>
      <point x="132" y="1" type="line"/>
      <point x="132" y="359" type="line"/>
      <point x="262" y="359" type="line"/>
      <point x="494" y="0" type="line"/>
      <point x="497" y="0" type="line"/>
      <point x="264" y="360" type="line"/>
    </contour>
    <contour>
      <point x="213" y="551" type="line"/>
      <point x="211" y="551" type="line"/>
      <point x="211" y="169" type="line"/>
      <point x="213" y="169" type="line"/>
    </contour>
  </outline>
</glyph>
<glyph name="kaverticalstroke-cy" format="2">
  <advance width="488"/>
  <unicode hex="049D"/>
  <anchor x="244" y="0" name="bottom"/>
  <anchor x="244" y="517" name="top"/>
  <outline>
    <contour>
      <point x="398" y="517" type="line"/>
      <point x="395" y="517" type="line"/>
      <point x="258" y="279" type="line"/>
      <point x="127" y="279" type="line"/>
      <point x="127" y="517" type="line"/>
      <point x="125" y="517" type="line"/>
      <point x="125" y="0" type="line"/>
      <point x="127" y="0" type="line"/>
      <point x="127" y="277" type="line"/>
      <point x="258" y="277" type="line"/>
      <point x="425" y="0" type="line"/>
      <point x="428" y="0" type="line"/>
      <point x="260" y="278" type="line"/>
    </contour>
    <contour>
      <point x="196" y="393" type="line"/>
      <point x="194" y="393" type="line"/>
      <point x="194" y="126" type="line"/>
      <point x="196" y="126" type="line"/>
    </contour>
  </outline>
</glyph>
<glyph name="Kabashkir-cy" format="2">
  <advance width="560"/>
  <unicode hex="04A0"/>
  <anchor x="323" y="680" name="top"/>
  <anchor x="532" y="0" name="bottomright"/>
  <anchor x="294" y="0" name="bottom"/>
  <outline>
    <contour>
      <point x="159" y="680" type="line"/>
      <point x="0" y="680" type="line"/>
      <point x="0" y="678" type="line"/>
      <point x="159" y="678" type="line"/>
    </contour>
    <component base="Ka-cy" xOffset="28"/>
  </outline>
</glyph>
<glyph name="kabashkir-cy" format="2">
  <advance width="503"/>
  <unicode hex="04A1"/>
  <anchor x="300" y="517" name="top"/>
  <anchor x="470" y="0" name="bottomright"/>
  <anchor x="269" y="0" name="bottom"/>
  <outline>
    <contour>
      <point x="160" y="515" type="line"/>
      <point x="162" y="517" type="line"/>
      <point x="10" y="517" type="line"/>
      <point x="10" y="515" type="line"/>
    </contour>
    <component base="ka-cy" xOffset="35"/>
  </outline>
</glyph>
<glyph name="Enghe-cy" format="2">
  <advance width="682"/>
  <unicode hex="04A4"/>
  <anchor x="80" y="680" name="topleft"/>
  <anchor x="326" y="680" name="top"/>
  <anchor x="326" y="340" name="center"/>
  <anchor x="534" y="0" name="bottomright"/>
  <anchor x="327" y="0" name="bottom"/>
  <outline>
    <contour>
      <point x="523" y="680" type="line"/>
      <point x="523" y="678" type="line"/>
      <point x="682" y="678" type="line"/>
      <point x="682" y="680" type="line"/>
    </contour>
    <component base="H"/>
  </outline>
</glyph>
<glyph name="enghe-cy" format="2">
  <advance width="613"/>
  <unicode hex="04A5"/>
  <anchor x="284" y="517" name="top"/>
  <anchor x="463" y="0" name="bottomright"/>
  <anchor x="289" y="0" name="bottom"/>
  <outline>
    <contour>
      <point x="453" y="515" type="line"/>
      <point x="603" y="515" type="line"/>
      <point x="603" y="517" type="line"/>
      <point x="451" y="517" type="line"/>
    </contour>
    <component base="en-cy"/>
  </outline>
</glyph>
<glyph name="ustrait-cy" format="2">
  <advance width="435"/>
  <unicode hex="04AF"/>
  <anchor x="217.5" y="-188" name="bottom"/>
  <anchor x="217.5" y="517" name="top"/>
  <outline>
    <contour>
      <point x="405" y="517" type="line"/>
      <point x="403" y="517" type="line"/>
      <point x="224" y="22" type="line"/>
      <point x="32" y="517" type="line"/>
      <point x="30" y="517" type="line"/>
      <point x="223" y="20" type="line"/>
      <point x="223" y="-190" type="line"/>
      <point x="225" y="-190" type="line"/>
      <point x="225" y="20" type="line"/>
    </contour>
  </outline>
</glyph>
<glyph name="Ustraitstroke-cy" format="2">
  <advance width="479"/>
  <unicode hex="04B0"/>
  <anchor x="15" y="680" name="topleft"/>
  <anchor x="240" y="680" name="top"/>
  <anchor x="240" y="0" name="bottom"/>
  <outline>
    <contour>
      <point x="359" y="272" type="line"/>
      <point x="239" y="272" type="line"/>
      <point x="121" y="272" type="line"/>
      <point x="121" y="270" type="line"/>
      <point x="241" y="270" type="line"/>
      <point x="359" y="270" type="line"/>
    </contour>
    <component base="Y"/>
  </outline>
</glyph>
<glyph name="ustraitstroke-cy" format="2">
  <advance width="435"/>
  <unicode hex="04B1"/>
  <anchor x="217.5" y="517.0" name="top"/>
  <anchor x="217.5" y="-188.0" name="bottom"/>
  <outline>
    <contour>
      <point x="218" y="20" type="line"/>
      <point x="220" y="20" type="line"/>
      <point x="333" y="20" type="line"/>
      <point x="333" y="22" type="line"/>
      <point x="105" y="22" type="line"/>
      <point x="105" y="20" type="line"/>
    </contour>
    <component base="ustrait-cy"/>
  </outline>
</glyph>
<glyph name="Tetse-cy" format="2">
  <advance width="765"/>
  <unicode hex="04B4"/>
  <anchor x="382.5" y="-188" name="bottom"/>
  <anchor x="382.5" y="680" name="top"/>
  <anchor x="635" y="0" name="bottomright"/>
  <outline>
    <contour>
      <point x="452" y="680" type="line"/>
      <point x="20" y="680" type="line"/>
      <point x="20" y="678" type="line"/>
      <point x="235" y="678" type="line"/>
      <point x="237" y="678" type="line"/>
      <point x="452" y="678" type="line"/>
    </contour>
    <component base="Tse-cy" xOffset="105"/>
  </outline>
</glyph>
<glyph name="tetse-cy" format="2">
  <advance width="646"/>
  <unicode hex="04B5"/>
  <anchor x="323" y="-188" name="bottom"/>
  <anchor x="323" y="517" name="top"/>
  <anchor x="531" y="0" name="bottomright"/>
  <outline>
    <contour>
      <point x="395" y="517" type="line"/>
      <point x="15" y="517" type="line"/>
      <point x="15" y="515" type="line"/>
      <point x="204" y="515" type="line"/>
      <point x="206" y="515" type="line"/>
      <point x="395" y="515" type="line"/>
    </contour>
    <component base="tse-cy" xOffset="79"/>
  </outline>
</glyph>
<glyph name="Cheverticalstroke-cy" format="2">
  <advance width="566"/>
  <unicode hex="04B8"/>
  <anchor x="248" y="680" name="top"/>
  <anchor x="414" y="0" name="bottomleft"/>
  <anchor x="446" y="0" name="bottomright"/>
  <anchor x="283" y="0" name="bottom"/>
  <outline>
    <contour>
      <point x="248" y="512" type="line"/>
      <point x="246" y="512" type="line"/>
      <point x="246" y="111" type="line"/>
      <point x="248" y="111" type="line"/>
    </contour>
    <component base="Che-cy"/>
  </outline>
</glyph>
<glyph name="cheverticalstroke-cy" format="2">
  <advance width="520"/>
  <unicode hex="04B9"/>
  <anchor x="235" y="517" name="top"/>
  <anchor x="373" y="0" name="bottomleft"/>
  <anchor x="405" y="0" name="bottomright"/>
  <anchor x="260" y="0" name="bottom"/>
  <outline>
    <contour>
      <point x="218" y="368" type="line"/>
      <point x="216" y="368" type="line"/>
      <point x="216" y="101" type="line"/>
      <point x="218" y="101" type="line"/>
    </contour>
    <component base="che-cy"/>
  </outline>
</glyph>
<glyph name="Shha-cy" format="2">
  <advance width="587"/>
  <unicode hex="04BA"/>
  <anchor x="293.5" y="0" name="bottom"/>
  <anchor x="517" y="0" name="bottomright"/>
  <anchor x="293.5" y="680" name="top"/>
  <outline>
    <contour>
      <point x="341" y="410" type="curve" smooth="yes"/>
      <point x="251" y="410"/>
      <point x="187" y="369"/>
      <point x="131" y="295" type="curve"/>
      <point x="131" y="292" type="line"/>
      <point x="189" y="368"/>
      <point x="251" y="408"/>
      <point x="341" y="408" type="curve" smooth="yes"/>
      <point x="459" y="408"/>
      <point x="505" y="336"/>
      <point x="505" y="244" type="curve" smooth="yes"/>
      <point x="505" y="0" type="line"/>
      <point x="507" y="0" type="line"/>
      <point x="507" y="244" type="line" smooth="yes"/>
      <point x="507" y="337"/>
      <point x="460" y="410"/>
    </contour>
    <contour>
      <point x="132" y="680" type="line"/>
      <point x="130" y="680" type="line"/>
      <point x="130" y="0" type="line"/>
      <point x="132" y="0" type="line"/>
    </contour>
  </outline>
</glyph>
<glyph name="shha-cy" format="2">
  <advance width="575"/>
  <unicode hex="04BB"/>
  <anchor x="287.5" y="0" name="bottom"/>
  <anchor x="470" y="0" name="bottomright"/>
  <anchor x="287.5" y="727" name="top"/>
  <outline>
    <contour>
      <point x="127" y="0" type="line"/>
      <point x="127" y="730" type="line"/>
      <point x="125" y="730" type="line"/>
      <point x="125" y="0" type="line"/>
    </contour>
    <contour>
      <point x="326" y="467" type="curve" smooth="yes"/>
      <point x="238" y="467"/>
      <point x="174" y="415"/>
      <point x="126" y="329" type="curve"/>
      <point x="127" y="327" type="line"/>
      <point x="175" y="413"/>
      <point x="239" y="465"/>
      <point x="326" y="465" type="curve" smooth="yes"/>
      <point x="420" y="465"/>
      <point x="458" y="406"/>
      <point x="458" y="308" type="curve" smooth="yes"/>
      <point x="458" y="0" type="line"/>
      <point x="460" y="0" type="line"/>
      <point x="460" y="308" type="line" smooth="yes"/>
      <point x="460" y="407"/>
      <point x="421" y="467"/>
    </contour>
  </outline>
</glyph>
<glyph name="cheabkhasian-cy" format="2">
  <advance width="588"/>
  <unicode hex="04BD"/>
  <anchor x="336" y="517" name="top"/>
  <anchor x="424" y="4" name="ogonek"/>
  <anchor x="336" y="0" name="bottom"/>
  <outline>
    <contour>
      <point x="25" y="336" type="curve" smooth="yes"/>
      <point x="25" y="282"/>
      <point x="58" y="252"/>
      <point x="123" y="252" type="curve" smooth="yes"/>
      <point x="141" y="252" type="line"/>
      <point x="141" y="254" type="line"/>
      <point x="123" y="254" type="line" smooth="yes"/>
      <point x="59" y="254"/>
      <point x="27" y="283"/>
      <point x="27" y="336" type="curve" smooth="yes"/>
      <point x="27" y="371"/>
      <point x="39" y="392"/>
      <point x="55" y="414" type="curve"/>
      <point x="53" y="415" type="line"/>
      <point x="38" y="394"/>
      <point x="25" y="372"/>
    </contour>
    <component base="e" xOffset="60"/>
  </outline>
</glyph>
<glyph name="Obarred-cy" format="2">
  <advance width="687"/>
  <unicode hex="04E8"/>
  <anchor x="343.5" y="0" name="bottom"/>
  <anchor x="343" y="680" name="top"/>
  <outline>
    <contour>
      <point x="343" y="690" type="curve" smooth="yes"/>
      <point x="188" y="690"/>
      <point x="85" y="557"/>
      <point x="85" y="342" type="curve" smooth="yes"/>
      <point x="85" y="118"/>
      <point x="184" y="-9"/>
      <point x="343" y="-9" type="curve" smooth="yes"/>
      <point x="510" y="-9"/>
      <point x="602" y="119"/>
      <point x="602" y="342" type="curve" smooth="yes"/>
      <point x="602" y="563"/>
      <point x="504" y="690"/>
    </contour>
    <contour>
      <point x="343" y="688" type="curve" smooth="yes"/>
      <point x="503" y="688"/>
      <point x="600" y="561"/>
      <point x="600" y="342" type="curve" smooth="yes"/>
      <point x="600" y="121"/>
      <point x="509" y="-7"/>
      <point x="343" y="-7" type="curve" smooth="yes"/>
      <point x="185" y="-7"/>
      <point x="87" y="120"/>
      <point x="87" y="342" type="curve" smooth="yes"/>
      <point x="87" y="555"/>
      <point x="189" y="688"/>
    </contour>
    <contour>
      <point x="601" y="343" type="line"/>
      <point x="86" y="343" type="line"/>
      <point x="86" y="341" type="line"/>
      <point x="601" y="341" type="line"/>
    </contour>
  </outline>
</glyph>
<glyph name="Gestrokehook-cy" format="2">
  <advance width="524"/>
  <unicode hex="04FA"/>
  <anchor x="333" y="680" name="top"/>
  <anchor x="145" y="0" name="bottomright"/>
  <anchor x="134" y="0" name="bottom"/>
  <outline>
    <contour>
      <point x="134" y="2" type="line"/>
      <point x="134" y="0" type="line"/>
      <point x="188" y="0" type="line"/>
      <point x="188" y="2" type="line"/>
    </contour>
    <component base="Ghestroke-cy"/>
    <component base="hookHELPER.case" xOffset="-18"/>
  </outline>
</glyph>
<glyph name="gestrokehook-cy" format="2">
  <advance width="415"/>
  <unicode hex="04FB"/>
  <anchor x="207.5" y="-188" name="bottom"/>
  <anchor x="207.5" y="517" name="top"/>
  <anchor x="137" y="0" name="bottomright"/>
  <outline>
    <contour>
      <point x="126" y="2" type="line"/>
      <point x="126" y="0" type="line"/>
      <point x="180" y="0" type="line"/>
      <point x="180" y="2" type="line"/>
    </contour>
    <component base="ghestroke-cy"/>
    <component base="hookHELPER" xOffset="-26"/>
  </outline>
</glyph>
<glyph name="lha-cy" format="2">
  <advance width="635"/>
  <unicode hex="0515"/>
  <anchor x="317.5" y="0" name="bottom"/>
  <anchor x="317.5" y="517" name="top"/>
  <anchor x="618" y="0" name="bottomright"/>
  <outline>
    <contour>
      <point x="147" y="517" type="line"/>
      <point x="148" y="515" type="line"/>
      <point x="265" y="515" type="line"/>
      <point x="265" y="517" type="line"/>
    </contour>
    <contour>
      <point x="149" y="515" type="line"/>
      <point x="147" y="517" type="line"/>
      <point x="139" y="285" type="line" smooth="yes"/>
      <point x="131" y="67"/>
      <point x="115" y="23"/>
      <point x="53" y="1" type="curve"/>
      <point x="53" y="-1" type="line"/>
      <point x="117" y="22"/>
      <point x="133" y="65"/>
      <point x="141" y="285" type="curve" smooth="yes"/>
    </contour>
    <component base="x" xOffset="211"/>
  </outline>
</glyph>
<glyph name="Aleutka-cy" format="2">
  <advance width="532"/>
  <unicode hex="051E"/>
  <anchor x="295" y="680" name="top"/>
  <anchor x="504" y="0" name="bottomright"/>
  <anchor x="266" y="0" name="bottom"/>
  <outline>
    <contour>
      <point x="248" y="610" type="line"/>
      <point x="498" y="441" type="line"/>
      <point x="500" y="443" type="line"/>
      <point x="250" y="612" type="line"/>
    </contour>
    <component base="Ka-cy"/>
  </outline>
</glyph>
<glyph name="aleutka-cy" format="2">
  <advance width="468"/>
  <unicode hex="051F"/>
  <anchor x="234" y="0" name="bottom"/>
  <anchor x="234" y="517" name="top"/>
  <anchor x="435" y="0" name="bottomright"/>
  <outline>
    <contour>
      <point x="207" y="477" type="line"/>
      <point x="419" y="333" type="line"/>
      <point x="421" y="335" type="line"/>
      <point x="209" y="479" type="line"/>
    </contour>
    <component base="ka-cy"/>
  </outline>
</glyph>
<glyph name="Elmiddlehook-cy" format="2">
  <advance width="957"/>
  <unicode hex="0520"/>
  <anchor x="478.5" y="-188" name="bottom"/>
  <anchor x="478.5" y="680" name="top"/>
  <anchor x="511" y="0" name="bottomright"/>
  <outline>
    <contour>
      <point x="711" y="410" type="curve" smooth="yes"/>
      <point x="621" y="410"/>
      <point x="557" y="369"/>
      <point x="501" y="295" type="curve"/>
      <point x="501" y="292" type="line"/>
      <point x="559" y="368"/>
      <point x="621" y="408"/>
      <point x="711" y="408" type="curve" smooth="yes"/>
      <point x="829" y="408"/>
      <point x="875" y="336"/>
      <point x="875" y="244" type="curve" smooth="yes"/>
      <point x="875" y="0" type="line"/>
      <point x="877" y="0" type="line"/>
      <point x="877" y="244" type="line" smooth="yes"/>
      <point x="877" y="339"/>
      <point x="828" y="410"/>
    </contour>
    <component base="El-cy"/>
    <component base="hookHELPER.case" xOffset="671"/>
  </outline>
</glyph>
<glyph name="elmiddlehook-cy" format="2">
  <advance width="853"/>
  <unicode hex="0521"/>
  <anchor x="426.5" y="-188" name="bottom"/>
  <anchor x="426.5" y="517" name="top"/>
  <anchor x="440" y="0" name="bottomright"/>
  <outline>
    <contour>
      <point x="761" y="0" type="line"/>
      <point x="763" y="0" type="line"/>
      <point x="763" y="178" type="line" smooth="yes"/>
      <point x="763" y="277"/>
      <point x="724" y="337"/>
      <point x="629" y="337" type="curve" smooth="yes"/>
      <point x="541" y="337"/>
      <point x="477" y="285"/>
      <point x="429" y="199" type="curve"/>
      <point x="430" y="197" type="line"/>
      <point x="478" y="283"/>
      <point x="542" y="335"/>
      <point x="629" y="335" type="curve" smooth="yes"/>
      <point x="723" y="335"/>
      <point x="761" y="276"/>
      <point x="761" y="178" type="curve" smooth="yes"/>
    </contour>
    <component base="el-cy"/>
    <component base="hookHELPER" xOffset="557"/>
  </outline>
</glyph>
<glyph name="Enmiddlehook-cy" format="2">
  <advance width="980"/>
  <unicode hex="0522"/>
  <anchor x="490" y="-188" name="bottom"/>
  <anchor x="490" y="680" name="top"/>
  <anchor x="80" y="680" name="topleft"/>
  <anchor x="326" y="340" name="center"/>
  <anchor x="534" y="0" name="bottomright"/>
  <outline>
    <contour>
      <point x="734" y="410" type="curve" smooth="yes"/>
      <point x="644" y="410"/>
      <point x="580" y="369"/>
      <point x="524" y="295" type="curve"/>
      <point x="524" y="292" type="line"/>
      <point x="582" y="368"/>
      <point x="644" y="408"/>
      <point x="734" y="408" type="curve" smooth="yes"/>
      <point x="852" y="408"/>
      <point x="898" y="336"/>
      <point x="898" y="244" type="curve" smooth="yes"/>
      <point x="898" y="0" type="line"/>
      <point x="900" y="0" type="line"/>
      <point x="900" y="244" type="line" smooth="yes"/>
      <point x="900" y="339"/>
      <point x="851" y="410"/>
    </contour>
    <component base="H"/>
    <component base="hookHELPER.case" xOffset="694"/>
  </outline>
</glyph>
<glyph name="dche-cy" format="2">
  <advance width="598"/>
  <unicode hex="052D"/>
  <anchor x="299" y="-188" name="bottom"/>
  <anchor x="299" y="517" name="top"/>
  <outline>
    <contour>
      <point x="102" y="2" type="curve"/>
      <point x="104" y="1" type="line"/>
      <point x="157" y="35"/>
      <point x="194" y="88"/>
      <point x="209" y="306" type="curve" smooth="yes"/>
      <point x="223" y="515" type="line"/>
      <point x="471" y="515" type="line"/>
      <point x="471" y="2" type="line"/>
      <point x="102" y="2" type="line"/>
      <point x="102" y="0" type="line"/>
      <point x="473" y="0" type="line"/>
      <point x="473" y="517" type="line"/>
      <point x="221" y="517" type="line"/>
      <point x="207" y="306" type="line" smooth="yes"/>
      <point x="192" y="87"/>
      <point x="154" y="36"/>
    </contour>
    <contour>
      <point x="472" y="290" type="line"/>
      <point x="472" y="292" type="line"/>
      <point x="239" y="292" type="line"/>
      <point x="139" y="292"/>
      <point x="103" y="334"/>
      <point x="103" y="422" type="curve" smooth="yes"/>
      <point x="103" y="517" type="line"/>
      <point x="101" y="517" type="line"/>
      <point x="101" y="422" type="line" smooth="yes"/>
      <point x="101" y="332"/>
      <point x="139" y="290"/>
      <point x="239" y="290" type="curve"/>
    </contour>
    <component base="descStraight-cy" xScale="-1" xOffset="140"/>
    <component base="descStraight-cy" xOffset="453"/>
  </outline>
</glyph>
<glyph name="uni1D6C" format="2">
  <advance width="635"/>
  <unicode hex="1D6C"/>
  <anchor x="362" y="727" name="top"/>
  <anchor x="357" y="0" name="bottom"/>
  <outline>
    <contour>
      <point x="269" y="604" type="curve"/>
      <point x="304" y="604"/>
      <point x="328" y="627"/>
      <point x="339" y="649" type="curve"/>
      <point x="337" y="649" type="line"/>
      <point x="324" y="626"/>
      <point x="303" y="606"/>
      <point x="269" y="606" type="curve"/>
      <point x="222" y="606"/>
      <point x="175" y="661"/>
      <point x="127" y="661" type="curve"/>
      <point x="93" y="661"/>
      <point x="69" y="638"/>
      <point x="55" y="616" type="curve"/>
      <point x="57" y="616" type="line"/>
      <point x="73" y="639"/>
      <point x="94" y="659"/>
      <point x="127" y="659" type="curve"/>
      <point x="175" y="659"/>
      <point x="222" y="604"/>
    </contour>
    <component base="b" xOffset="73"/>
  </outline>
</glyph>
<glyph name="uni1D6D" format="2">
  <advance width="632"/>
  <unicode hex="1D6D"/>
  <anchor x="275" y="727" name="top"/>
  <anchor x="284" y="259" name="center"/>
  <anchor x="492" y="727" name="topright"/>
  <anchor x="283" y="0" name="bottom"/>
  <outline>
    <contour>
      <point x="507" y="604" type="curve"/>
      <point x="542" y="604"/>
      <point x="566" y="627"/>
      <point x="577" y="649" type="curve"/>
      <point x="575" y="649" type="line"/>
      <point x="562" y="626"/>
      <point x="541" y="606"/>
      <point x="507" y="606" type="curve"/>
      <point x="460" y="606"/>
      <point x="413" y="661"/>
      <point x="365" y="661" type="curve"/>
      <point x="331" y="661"/>
      <point x="307" y="638"/>
      <point x="293" y="616" type="curve"/>
      <point x="295" y="616" type="line"/>
      <point x="311" y="639"/>
      <point x="332" y="659"/>
      <point x="365" y="659" type="curve"/>
      <point x="413" y="659"/>
      <point x="460" y="604"/>
    </contour>
    <component base="d" xOffset="-5"/>
  </outline>
</glyph>
<glyph name="uni1D70" format="2">
  <advance width="523"/>
  <unicode hex="1D70"/>
  <anchor x="84" y="517" name="topleft"/>
  <anchor x="264" y="517" name="top"/>
  <anchor x="256" y="0" name="bottom"/>
  <outline>
    <contour>
      <point x="27" y="261" type="line"/>
      <point x="40" y="284"/>
      <point x="61" y="304"/>
      <point x="95" y="304" type="curve"/>
      <point x="95" y="306" type="line"/>
      <point x="59" y="306"/>
      <point x="36" y="283"/>
      <point x="25" y="261" type="curve"/>
    </contour>
    <contour>
      <point x="427" y="248" type="curve"/>
      <point x="427" y="250" type="line"/>
      <point x="360" y="252"/>
      <point x="149" y="306"/>
      <point x="95" y="306" type="curve"/>
      <point x="95" y="304" type="line"/>
      <point x="149" y="304"/>
      <point x="360" y="250"/>
    </contour>
    <contour>
      <point x="428" y="248" type="line"/>
      <point x="464" y="248"/>
      <point x="487" y="271"/>
      <point x="498" y="293" type="curve"/>
      <point x="496" y="293" type="line"/>
      <point x="483" y="270"/>
      <point x="462" y="250"/>
      <point x="428" y="250" type="curve"/>
    </contour>
    <component base="n" xOffset="-31"/>
  </outline>
</glyph>
<glyph name="uni1D74" format="2">
  <advance width="457"/>
  <unicode hex="1D74"/>
  <anchor x="234" y="517" name="top"/>
  <anchor x="229" y="0" name="bottom"/>
  <outline>
    <contour>
      <point x="77" y="253" type="line"/>
      <point x="90" y="276"/>
      <point x="111" y="296"/>
      <point x="165" y="296" type="curve"/>
      <point x="165" y="298" type="line"/>
      <point x="110" y="298"/>
      <point x="88" y="278"/>
      <point x="75" y="253" type="curve"/>
    </contour>
    <contour>
      <point x="290" y="255" type="line"/>
      <point x="345" y="255"/>
      <point x="367" y="275"/>
      <point x="380" y="300" type="curve"/>
      <point x="378" y="300" type="line"/>
      <point x="365" y="277"/>
      <point x="344" y="257"/>
      <point x="290" y="257" type="curve"/>
    </contour>
    <component base="s"/>
  </outline>
</glyph>
<glyph name="gravemacron" format="2">
  <advance width="344"/>
  <unicode hex="1DC5"/>
  <outline>
    <contour>
      <point x="163" y="628" type="line"/>
      <point x="164" y="630" type="line"/>
      <point x="31" y="725" type="line"/>
      <point x="30" y="723" type="line"/>
    </contour>
    <contour>
      <point x="163" y="628" type="line"/>
      <point x="314" y="628" type="line"/>
      <point x="314" y="630" type="line"/>
      <point x="164" y="630" type="line"/>
    </contour>
  </outline>
</glyph>
<glyph name="acutemacron" format="2">
  <advance width="344"/>
  <unicode hex="1DC7"/>
  <anchor x="172" y="517" name="_top"/>
  <anchor x="174" y="711" name="top"/>
  <outline>
    <contour>
      <point x="31" y="614" type="line"/>
      <point x="164" y="709" type="line"/>
      <point x="163" y="711" type="line"/>
      <point x="30" y="616" type="line"/>
    </contour>
    <contour>
      <point x="164" y="709" type="line"/>
      <point x="314" y="709" type="line"/>
      <point x="314" y="711" type="line"/>
      <point x="163" y="711" type="line"/>
    </contour>
  </outline>
</glyph>
<glyph name="acutegraveacute" format="2">
  <advance width="384"/>
  <unicode hex="1DC9"/>
  <anchor x="192" y="517" name="_top"/>
  <anchor x="194" y="765" name="top"/>
  <outline>
    <contour>
      <point x="245" y="695" type="line"/>
      <point x="354" y="763" type="line"/>
      <point x="353" y="765" type="line"/>
      <point x="245" y="697" type="line"/>
      <point x="149" y="765" type="line"/>
      <point x="30" y="700" type="line"/>
      <point x="31" y="699" type="line"/>
      <point x="149" y="763" type="line"/>
    </contour>
  </outline>
</glyph>
<glyph name="psilivaria" format="2">
  <advance width="163"/>
  <unicode hex="1FCD"/>
  <anchor x="87" y="517" name="_top"/>
  <outline>
    <contour>
      <point x="101" y="726" type="line"/>
      <point x="98" y="726" type="line"/>
      <point x="138" y="599" type="line"/>
      <point x="140" y="599" type="line"/>
    </contour>
    <component base="psili"/>
  </outline>
</glyph>
<glyph name="psiliperispomeni" format="2">
  <advance width="303"/>
  <unicode hex="1FCF"/>
  <anchor x="152" y="517" name="_top"/>
  <anchor x="244" y="718" name="_topleft"/>
  <anchor x="154" y="723" name="top"/>
  <outline>
    <contour>
      <point x="143" y="568" type="line"/>
      <point x="145" y="568" type="line"/>
      <point x="160" y="638" type="line" smooth="yes"/>
      <point x="161" y="643"/>
      <point x="161" y="644"/>
      <point x="161" y="646" type="curve"/>
      <point x="161" y="649"/>
      <point x="159" y="651"/>
      <point x="156" y="651" type="curve" smooth="yes"/>
      <point x="153" y="651"/>
      <point x="151" y="649"/>
      <point x="151" y="646" type="curve" smooth="yes"/>
      <point x="151" y="643"/>
      <point x="153" y="641"/>
      <point x="157" y="641" type="curve"/>
    </contour>
    <component base="perispomeni" yOffset="-9"/>
  </outline>
</glyph>
<glyph name="dasiavaria" format="2">
  <advance width="163"/>
  <unicode hex="1FDD"/>
  <anchor x="87" y="517" name="_top"/>
  <outline>
    <contour>
      <point x="101" y="726" type="line"/>
      <point x="98" y="726" type="line"/>
      <point x="138" y="599" type="line"/>
      <point x="140" y="599" type="line"/>
    </contour>
    <component base="dasia"/>
  </outline>
</glyph>
<glyph name="dasiaoxia" format="2">
  <advance width="163"/>
  <unicode hex="1FDE"/>
  <anchor x="77" y="517" name="_top"/>
  <outline>
    <contour>
      <point x="137" y="726" type="line"/>
      <point x="98" y="599" type="line"/>
      <point x="100" y="599" type="line"/>
      <point x="140" y="726" type="line"/>
    </contour>
    <component base="dasia"/>
  </outline>
</glyph>
<glyph name="dasiaperispomeni" format="2">
  <advance width="303"/>
  <unicode hex="1FDF"/>
  <anchor x="152" y="517" name="_top"/>
  <anchor x="244" y="718" name="_topleft"/>
  <anchor x="154" y="723" name="top"/>
  <outline>
    <contour>
      <point x="161" y="568" type="line"/>
      <point x="147" y="641" type="line"/>
      <point x="151" y="641"/>
      <point x="153" y="643"/>
      <point x="153" y="646" type="curve" smooth="yes"/>
      <point x="153" y="649"/>
      <point x="151" y="651"/>
      <point x="148" y="651" type="curve" smooth="yes"/>
      <point x="145" y="651"/>
      <point x="143" y="649"/>
      <point x="143" y="646" type="curve"/>
      <point x="143" y="644"/>
      <point x="143" y="643"/>
      <point x="144" y="638" type="curve" smooth="yes"/>
      <point x="159" y="568" type="line"/>
    </contour>
    <component base="perispomeni" yOffset="-9"/>
  </outline>
</glyph>
<glyph name="bullet" format="2">
  <advance width="224"/>
  <unicode hex="2022"/>
  <outline>
    <contour>
      <point x="112" y="360" type="curve" smooth="yes"/>
      <point x="108" y="360"/>
      <point x="105" y="358"/>
      <point x="105" y="353" type="curve" smooth="yes"/>
      <point x="105" y="348"/>
      <point x="108" y="346"/>
      <point x="112" y="346" type="curve" smooth="yes"/>
      <point x="116" y="346"/>
      <point x="119" y="348"/>
      <point x="119" y="353" type="curve" smooth="yes"/>
      <point x="119" y="358"/>
      <point x="116" y="360"/>
    </contour>
  </outline>
</glyph>
<glyph name="drachma" format="2">
  <advance width="1064"/>
  <unicode hex="20AF"/>
  <anchor x="802" y="517" name="top"/>
  <anchor x="786" y="-188" name="bottom"/>
  <outline>
    <contour>
      <point x="86" y="0" type="line"/>
      <point x="237" y="0" type="line" smooth="yes"/>
      <point x="376" y="0"/>
      <point x="524" y="69"/>
      <point x="524" y="338" type="curve" smooth="yes"/>
      <point x="524" y="606"/>
      <point x="374" y="660"/>
      <point x="230" y="660" type="curve" smooth="yes"/>
      <point x="175" y="660" type="line"/>
      <point x="175" y="658" type="line"/>
      <point x="230" y="658" type="line" smooth="yes"/>
      <point x="373" y="658"/>
      <point x="522" y="604"/>
      <point x="522" y="338" type="curve" smooth="yes"/>
      <point x="522" y="71"/>
      <point x="376" y="2"/>
      <point x="237" y="2" type="curve" smooth="yes"/>
      <point x="86" y="2" type="line"/>
    </contour>
    <contour>
      <point x="86" y="0" type="line"/>
      <point x="91" y="2" type="line"/>
      <point x="144" y="23"/>
      <point x="167" y="52"/>
      <point x="167" y="118" type="curve" smooth="yes"/>
      <point x="167" y="486" type="line"/>
      <point x="165" y="486" type="line"/>
      <point x="165" y="118" type="line" smooth="yes"/>
      <point x="165" y="51"/>
      <point x="141" y="23"/>
      <point x="86" y="2" type="curve"/>
    </contour>
    <component base="rho" xOffset="508"/>
    <component base="hookaboveHELPER2.case" yOffset="-20"/>
  </outline>
</glyph>
<glyph name="rightBlackSmallTriangle" format="2">
  <advance width="500"/>
  <unicode hex="25B8"/>
  <outline>
    <contour>
      <point x="98" y="96" type="line"/>
      <point x="434" y="312" type="line"/>
      <point x="98" y="527" type="line"/>
    </contour>
  </outline>
</glyph>
<glyph name="zNotationSpot" format="2">
  <advance width="627"/>
  <unicode hex="2981"/>
  <outline>
    <contour>
      <point x="314" y="98" type="curve" smooth="yes"/>
      <point x="431" y="98"/>
      <point x="527" y="194"/>
      <point x="527" y="312" type="curve" smooth="yes"/>
      <point x="527" y="429"/>
      <point x="431" y="525"/>
      <point x="314" y="525" type="curve" smooth="yes"/>
      <point x="196" y="525"/>
      <point x="100" y="429"/>
      <point x="100" y="312" type="curve" smooth="yes"/>
      <point x="100" y="194"/>
      <point x="196" y="98"/>
    </contour>
  </outline>
</glyph>
<glyph name="downBlackArrow" format="2">
  <advance width="720"/>
  <unicode hex="2B07"/>
  <outline>
    <contour>
      <point x="441" y="750" type="curve"/>
      <point x="279" y="750" type="line" smooth="yes"/>
      <point x="249" y="750"/>
      <point x="229" y="730"/>
      <point x="229" y="700" type="curve" smooth="yes"/>
      <point x="229" y="204" type="line"/>
      <point x="60" y="204" type="line"/>
      <point x="360" y="-94" type="line"/>
      <point x="660" y="204" type="line"/>
      <point x="491" y="204" type="line"/>
      <point x="491" y="700" type="line" smooth="yes"/>
      <point x="491" y="730"/>
      <point x="471" y="750"/>
    </contour>
  </outline>
</glyph>
<glyph name="uniA7AD" format="2">
  <advance width="461"/>
  <unicode hex="A7AD"/>
  <anchor x="147" y="680" name="top"/>
  <anchor x="366" y="355" name="center"/>
  <anchor x="198" y="680" name="topright"/>
  <anchor x="291" y="0" name="bottom"/>
  <outline>
    <contour>
      <point x="146" y="287" type="curve"/>
      <point x="148" y="287" type="line"/>
      <point x="188" y="287"/>
      <point x="236" y="292"/>
      <point x="268" y="296" type="curve"/>
      <point x="268" y="298" type="line"/>
      <point x="236" y="294"/>
      <point x="188" y="289"/>
      <point x="148" y="289" type="curve"/>
      <point x="146" y="289" type="line"/>
      <point x="77" y="289"/>
      <point x="42" y="313"/>
      <point x="42" y="362" type="curve" smooth="yes"/>
      <point x="42" y="407"/>
      <point x="74" y="430"/>
      <point x="119" y="430" type="curve" smooth="yes"/>
      <point x="130" y="430"/>
      <point x="139" y="429"/>
      <point x="147" y="428" type="curve"/>
      <point x="147" y="430" type="line"/>
      <point x="139" y="431"/>
      <point x="130" y="432"/>
      <point x="119" y="432" type="curve" smooth="yes"/>
      <point x="73" y="432"/>
      <point x="40" y="408"/>
      <point x="40" y="362" type="curve" smooth="yes"/>
      <point x="40" y="312"/>
      <point x="76" y="287"/>
    </contour>
    <component base="L" xOffset="16"/>
  </outline>
</glyph>
<glyph name="uniA7AE" format="2">
  <advance width="350"/>
  <unicode hex="A7AE"/>
  <anchor x="175" y="0" name="bottom"/>
  <anchor x="175" y="680" name="top"/>
  <outline>
    <contour>
      <point x="174" y="0" type="line"/>
      <point x="176" y="0" type="line"/>
      <point x="176" y="680" type="line"/>
      <point x="174" y="680" type="line"/>
    </contour>
    <contour>
      <point x="40" y="0" type="line"/>
      <point x="310" y="0" type="line"/>
      <point x="310" y="2" type="line"/>
      <point x="40" y="2" type="line"/>
    </contour>
    <contour>
      <point x="40" y="678" type="line"/>
      <point x="310" y="678" type="line"/>
      <point x="310" y="680" type="line"/>
      <point x="40" y="680" type="line"/>
    </contour>
  </outline>
</glyph>
<glyph name="Iotaafrican.sc" format="2">
  <advance width="323"/>
  <anchor x="161.5" y="0" name="bottom"/>
  <anchor x="121" y="557" name="top"/>
  <outline>
    <contour>
      <point x="122" y="557" type="line"/>
      <point x="120" y="557" type="line"/>
      <point x="120" y="185" type="line"/>
      <point x="122" y="185" type="line"/>
    </contour>
    <component base="hookHELPER" xScale="-1" xOffset="326" yOffset="185"/>
  </outline>
</glyph>
<glyph name="Rtail.ss01" format="2">
  <advance width="391"/>
  <anchor x="195.5" y="-188" name="bottom"/>
  <anchor x="195.5" y="680" name="top"/>
  <outline>
    <contour>
      <point x="310" y="690" type="curve" smooth="yes"/>
      <point x="223" y="690"/>
      <point x="164" y="647"/>
      <point x="131" y="535" type="curve"/>
      <point x="131" y="528" type="line"/>
      <point x="165" y="645"/>
      <point x="223" y="688"/>
      <point x="310" y="688" type="curve" smooth="yes"/>
      <point x="339" y="688"/>
      <point x="357" y="684"/>
      <point x="371" y="679" type="curve"/>
      <point x="371" y="681" type="line"/>
      <point x="357" y="686"/>
      <point x="339" y="690"/>
    </contour>
    <contour>
      <point x="132" y="680" type="line"/>
      <point x="130" y="680" type="line"/>
      <point x="130" y="0" type="line"/>
      <point x="132" y="0" type="line"/>
      <point x="132" y="534" type="line"/>
      <point x="132" y="535" type="line"/>
    </contour>
    <component base="hookHELPER.case" xScale="-1" xOffset="336"/>
  </outline>
</glyph>
<glyph name="acute.loclPLK" format="2">
  <advance width="227"/>
  <anchor x="104" y="517" name="_top"/>
  <outline>
    <contour>
      <point x="179" y="725" type="line"/>
      <point x="88" y="583" type="line"/>
      <point x="90" y="582" type="line"/>
      <point x="181" y="724" type="line"/>
    </contour>
  </outline>
</glyph>
<glyph name="ae.sc" format="2">
  <advance width="659"/>
  <anchor x="329.5" y="0" name="bottom"/>
  <anchor x="393" y="557" name="top"/>
  <outline>
    <contour>
      <point x="562" y="557" type="line"/>
      <point x="249" y="557" type="line"/>
      <point x="21" y="0" type="line"/>
      <point x="23" y="0" type="line"/>
      <point x="250" y="555" type="line"/>
      <point x="403" y="0" type="line"/>
      <point x="609" y="0" type="line"/>
      <point x="609" y="2" type="line"/>
      <point x="405" y="2" type="line"/>
      <point x="252" y="555" type="line"/>
      <point x="561" y="555" type="line"/>
    </contour>
    <contour>
      <point x="358" y="170" type="line"/>
      <point x="91" y="170" type="line"/>
      <point x="90" y="168" type="line"/>
      <point x="358" y="168" type="line"/>
    </contour>
    <contour>
      <point x="552" y="297" type="line"/>
      <point x="323" y="297" type="line"/>
      <point x="323" y="295" type="line"/>
      <point x="552" y="295" type="line"/>
    </contour>
  </outline>
</glyph>
<glyph name="aleutka-cy.sc" format="2">
  <advance width="483"/>
  <anchor x="281" y="557" name="top"/>
  <anchor x="456" y="0" name="bottomright"/>
  <anchor x="241.5" y="0.0" name="bottom"/>
  <outline>
    <contour>
      <point x="223" y="490" type="line"/>
      <point x="439" y="351" type="line"/>
      <point x="440" y="353" type="line"/>
      <point x="224" y="492" type="line"/>
    </contour>
    <component base="ka-cy.sc"/>
  </outline>
</glyph>
<glyph name="apple" format="2">
  <advance width="803"/>
  <outline>
    <contour>
      <point x="279" y="-22" type="curve"/>
      <point x="296" y="-22"/>
      <point x="318" y="-16"/>
      <point x="347" y="-5" type="curve"/>
      <point x="373" y="6"/>
      <point x="397" y="11"/>
      <point x="420" y="11" type="curve"/>
      <point x="441" y="11"/>
      <point x="466" y="6"/>
      <point x="496" y="-4" type="curve"/>
      <point x="525" y="-15"/>
      <point x="550" y="-20"/>
      <point x="568" y="-20" type="curve"/>
      <point x="612" y="-20"/>
      <point x="655" y="12"/>
      <point x="699" y="78" type="curve"/>
      <point x="728" y="122"/>
      <point x="748" y="165"/>
      <point x="761" y="205" type="curve"/>
      <point x="685" y="234"/>
      <point x="645" y="304"/>
      <point x="645" y="378" type="curve"/>
      <point x="645" y="452"/>
      <point x="681" y="505"/>
      <point x="737" y="549" type="curve"/>
      <point x="693" y="604"/>
      <point x="642" y="632"/>
      <point x="575" y="632" type="curve"/>
      <point x="551" y="632"/>
      <point x="521" y="626"/>
      <point x="487" y="615" type="curve"/>
      <point x="452" y="604"/>
      <point x="428" y="598"/>
      <point x="415" y="598" type="curve"/>
      <point x="403" y="598"/>
      <point x="380" y="603"/>
      <point x="345" y="613" type="curve"/>
      <point x="309" y="623"/>
      <point x="279" y="628"/>
      <point x="254" y="628" type="curve"/>
      <point x="127" y="628"/>
      <point x="52" y="509"/>
      <point x="52" y="365" type="curve"/>
      <point x="52" y="280"/>
      <point x="77" y="195"/>
      <point x="127" y="109" type="curve"/>
      <point x="177" y="21"/>
      <point x="228" y="-22"/>
    </contour>
    <contour>
      <point x="400" y="618" type="curve"/>
      <point x="446" y="621"/>
      <point x="471" y="627"/>
      <point x="508" y="663" type="curve"/>
      <point x="550" y="706"/>
      <point x="578" y="767"/>
      <point x="567" y="824" type="curve"/>
      <point x="448" y="797"/>
      <point x="401" y="718"/>
    </contour>
  </outline>
</glyph>
<glyph name="archaicsampi.sc" format="2">
  <advance width="440"/>
  <anchor x="220" y="0" name="bottom"/>
  <anchor x="220" y="557" name="top"/>
  <outline>
    <contour>
      <point x="218" y="0" type="line"/>
      <point x="220" y="0" type="line"/>
      <point x="220" y="556" type="line"/>
      <point x="418" y="556" type="line"/>
      <point x="418" y="558" type="line"/>
      <point x="20" y="558" type="line"/>
      <point x="20" y="556" type="line"/>
      <point x="218" y="556" type="line"/>
    </contour>
    <contour>
      <point x="418" y="393" type="line"/>
      <point x="420" y="393" type="line"/>
      <point x="420" y="557" type="line"/>
      <point x="418" y="557" type="line"/>
    </contour>
    <contour>
      <point x="20" y="393" type="line"/>
      <point x="22" y="393" type="line"/>
      <point x="22" y="557" type="line"/>
      <point x="20" y="557" type="line"/>
    </contour>
  </outline>
</glyph>
<glyph name="b.sc" format="2">
  <advance width="529"/>
  <anchor x="280" y="0" name="bottom"/>
  <anchor x="264.5" y="557" name="top"/>
  <outline>
    <contour>
      <point x="246" y="557" type="curve" smooth="yes"/>
      <point x="130" y="557" type="line"/>
      <point x="130" y="0" type="line"/>
      <point x="266" y="0" type="line" smooth="yes"/>
      <point x="379" y="0"/>
      <point x="464" y="38"/>
      <point x="464" y="150" type="curve" smooth="yes"/>
      <point x="464" y="241"/>
      <point x="389" y="292"/>
      <point x="306" y="295" type="curve"/>
      <point x="377" y="302"/>
      <point x="432" y="352"/>
      <point x="432" y="424" type="curve" smooth="yes"/>
      <point x="432" y="506"/>
      <point x="374" y="557"/>
    </contour>
    <contour>
      <point x="247" y="555" type="line" smooth="yes"/>
      <point x="373" y="555"/>
      <point x="430" y="504"/>
      <point x="430" y="424" type="curve" smooth="yes"/>
      <point x="430" y="351"/>
      <point x="371" y="296"/>
      <point x="288" y="296" type="curve" smooth="yes"/>
      <point x="131" y="296" type="line"/>
      <point x="131" y="294" type="line"/>
      <point x="292" y="294" type="line" smooth="yes"/>
      <point x="390" y="294"/>
      <point x="462" y="239"/>
      <point x="462" y="150" type="curve" smooth="yes"/>
      <point x="462" y="38"/>
      <point x="377" y="2"/>
      <point x="267" y="2" type="curve" smooth="yes"/>
      <point x="132" y="2" type="line"/>
      <point x="132" y="555" type="line"/>
    </contour>
  </outline>
</glyph>
<glyph name="brevecomb.case" format="2">
  <anchor x="126" y="680" name="_top"/>
  <anchor x="128" y="835" name="top"/>
  <outline>
    <contour>
      <point x="126" y="774" type="curve"/>
      <point x="181" y="774"/>
      <point x="211" y="805"/>
      <point x="222" y="834" type="curve"/>
      <point x="220" y="835" type="line"/>
      <point x="207" y="801"/>
      <point x="174" y="776"/>
      <point x="126" y="776" type="curve"/>
      <point x="78" y="776"/>
      <point x="45" y="801"/>
      <point x="32" y="835" type="curve"/>
      <point x="30" y="834" type="line"/>
      <point x="41" y="805"/>
      <point x="71" y="774"/>
    </contour>
  </outline>
</glyph>
<glyph name="bstroke.sc" format="2">
  <advance width="528"/>
  <anchor x="264" y="0" name="bottom"/>
  <anchor x="264" y="557" name="top"/>
  <outline>
    <contour>
      <point x="299" y="159" type="line"/>
      <point x="129" y="159" type="line"/>
      <point x="75" y="159" type="line"/>
      <point x="75" y="157" type="line"/>
      <point x="299" y="157" type="line"/>
    </contour>
    <contour>
      <point x="245" y="557" type="curve" smooth="yes"/>
      <point x="129" y="557" type="line"/>
      <point x="129" y="0" type="line"/>
      <point x="265" y="0" type="line" smooth="yes"/>
      <point x="378" y="0"/>
      <point x="463" y="38"/>
      <point x="463" y="150" type="curve" smooth="yes"/>
      <point x="463" y="241"/>
      <point x="388" y="292"/>
      <point x="305" y="295" type="curve"/>
      <point x="376" y="302"/>
      <point x="431" y="353"/>
      <point x="431" y="421" type="curve" smooth="yes"/>
      <point x="431" y="507"/>
      <point x="366" y="557"/>
    </contour>
    <contour>
      <point x="246" y="555" type="line" smooth="yes"/>
      <point x="365" y="555"/>
      <point x="429" y="505"/>
      <point x="429" y="421" type="curve" smooth="yes"/>
      <point x="429" y="352"/>
      <point x="370" y="296"/>
      <point x="287" y="296" type="curve" smooth="yes"/>
      <point x="130" y="296" type="line"/>
      <point x="130" y="294" type="line"/>
      <point x="291" y="294" type="line" smooth="yes"/>
      <point x="389" y="294"/>
      <point x="461" y="239"/>
      <point x="461" y="150" type="curve" smooth="yes"/>
      <point x="461" y="38"/>
      <point x="376" y="2"/>
      <point x="266" y="2" type="curve" smooth="yes"/>
      <point x="131" y="2" type="line"/>
      <point x="131" y="555" type="line"/>
    </contour>
  </outline>
</glyph>
<glyph name="caron.case" format="2">
  <advance width="278"/>
  <outline>
    <contour>
      <point x="246" y="845" type="line"/>
      <point x="138" y="767" type="line"/>
      <point x="32" y="845" type="line"/>
      <point x="30" y="844" type="line"/>
      <point x="137" y="765" type="line"/>
      <point x="139" y="765" type="line"/>
      <point x="248" y="844" type="line"/>
    </contour>
  </outline>
</glyph>
<glyph name="che-cy.sc" format="2">
  <advance width="515"/>
  <anchor x="257.5" y="0" name="bottom"/>
  <anchor x="384" y="0" name="bottomleft"/>
  <anchor x="393" y="0" name="bottomright"/>
  <anchor x="223" y="557" name="top"/>
  <outline>
    <contour>
      <point x="62" y="557" type="line"/>
      <point x="60" y="557" type="line"/>
      <point x="60" y="338" type="line" smooth="yes"/>
      <point x="60" y="248"/>
      <point x="123" y="196"/>
      <point x="213" y="196" type="curve" smooth="yes"/>
      <point x="289" y="196"/>
      <point x="345" y="226"/>
      <point x="384" y="278" type="curve"/>
      <point x="384" y="281" type="line"/>
      <point x="345" y="228"/>
      <point x="289" y="198"/>
      <point x="213" y="198" type="curve" smooth="yes"/>
      <point x="124" y="198"/>
      <point x="62" y="249"/>
      <point x="62" y="338" type="curve" smooth="yes"/>
    </contour>
    <contour>
      <point x="385" y="557" type="line"/>
      <point x="383" y="557" type="line"/>
      <point x="383" y="0" type="line"/>
      <point x="385" y="0" type="line"/>
    </contour>
  </outline>
</glyph>
<glyph name="circumflex.case" format="2">
  <advance width="278"/>
  <outline>
    <contour>
      <point x="246" y="770" type="line"/>
      <point x="248" y="771" type="line"/>
      <point x="139" y="850" type="line"/>
      <point x="137" y="850" type="line"/>
      <point x="30" y="771" type="line"/>
      <point x="32" y="770" type="line"/>
      <point x="138" y="848" type="line"/>
    </contour>
  </outline>
</glyph>
<glyph name="cstroke.sc" format="2">
  <advance width="472"/>
  <anchor x="308" y="557" name="top"/>
  <anchor x="306" y="2" name="bottom"/>
  <outline>
    <contour>
      <point x="355" y="597" type="line"/>
      <point x="178" y="-47" type="line"/>
      <point x="180" y="-47" type="line"/>
      <point x="357" y="597" type="line"/>
    </contour>
    <component base="c.sc"/>
  </outline>
</glyph>
<glyph name="d.sc" format="2">
  <advance width="560"/>
  <anchor x="279" y="0" name="bottom"/>
  <anchor x="285" y="279" name="center"/>
  <anchor x="263" y="557" name="top"/>
  <outline>
    <contour>
      <point x="221" y="557" type="curve" smooth="yes"/>
      <point x="130" y="557" type="line"/>
      <point x="130" y="0" type="line"/>
      <point x="226" y="0" type="line" smooth="yes"/>
      <point x="346" y="0"/>
      <point x="475" y="56"/>
      <point x="475" y="285" type="curve" smooth="yes"/>
      <point x="475" y="512"/>
      <point x="345" y="557"/>
    </contour>
    <contour>
      <point x="221" y="555" type="line" smooth="yes"/>
      <point x="344" y="555"/>
      <point x="473" y="511"/>
      <point x="473" y="285" type="curve" smooth="yes"/>
      <point x="473" y="58"/>
      <point x="346" y="2"/>
      <point x="227" y="2" type="curve" smooth="yes"/>
      <point x="132" y="2" type="line"/>
      <point x="132" y="555" type="line"/>
    </contour>
  </outline>
</glyph>
<glyph name="dasia.case" format="2">
  <advance width="27"/>
  <anchor x="69" y="680" name="_topleft"/>
  <anchor x="46" y="682" name="top"/>
  <outline>
    <contour>
      <point x="35" y="682" type="curve" smooth="yes"/>
      <point x="32" y="682"/>
      <point x="30" y="680"/>
      <point x="30" y="677" type="curve"/>
      <point x="30" y="675"/>
      <point x="30" y="674"/>
      <point x="31" y="669" type="curve" smooth="yes"/>
      <point x="56" y="550" type="line"/>
      <point x="57" y="550" type="line"/>
      <point x="34" y="672" type="line"/>
      <point x="38" y="672"/>
      <point x="40" y="674"/>
      <point x="40" y="677" type="curve" smooth="yes"/>
      <point x="40" y="680"/>
      <point x="38" y="682"/>
    </contour>
  </outline>
</glyph>
<glyph name="dasiaoxia.case" format="2">
  <advance width="97"/>
  <anchor x="155" y="680" name="_topleft"/>
  <anchor x="90" y="682" name="top"/>
  <outline>
    <contour>
      <point x="144" y="679" type="line"/>
      <point x="105" y="552" type="line"/>
      <point x="107" y="552" type="line"/>
      <point x="147" y="679" type="line"/>
    </contour>
    <contour>
      <point x="35" y="682" type="curve" smooth="yes"/>
      <point x="32" y="682"/>
      <point x="30" y="680"/>
      <point x="30" y="677" type="curve"/>
      <point x="30" y="675"/>
      <point x="30" y="674"/>
      <point x="31" y="669" type="curve" smooth="yes"/>
      <point x="56" y="550" type="line"/>
      <point x="57" y="550" type="line"/>
      <point x="34" y="672" type="line"/>
      <point x="38" y="672"/>
      <point x="40" y="674"/>
      <point x="40" y="677" type="curve" smooth="yes"/>
      <point x="40" y="680"/>
      <point x="38" y="682"/>
    </contour>
  </outline>
</glyph>
<glyph name="dasiaperispomeni.case" format="2">
  <advance width="112"/>
  <anchor x="153" y="680" name="_topleft"/>
  <anchor x="63" y="685" name="top"/>
  <outline>
    <contour>
      <point x="70" y="530" type="line"/>
      <point x="56" y="603" type="line"/>
      <point x="60" y="603"/>
      <point x="62" y="605"/>
      <point x="62" y="608" type="curve" smooth="yes"/>
      <point x="62" y="611"/>
      <point x="60" y="613"/>
      <point x="57" y="613" type="curve" smooth="yes"/>
      <point x="54" y="613"/>
      <point x="52" y="611"/>
      <point x="52" y="608" type="curve"/>
      <point x="52" y="606"/>
      <point x="52" y="605"/>
      <point x="53" y="600" type="curve" smooth="yes"/>
      <point x="68" y="530" type="line"/>
    </contour>
    <component base="perispomeni" xOffset="-91" yOffset="-47"/>
  </outline>
</glyph>
<glyph name="de-cy.sc" format="2">
  <advance width="529"/>
  <anchor x="264.5" y="-188" name="bottom"/>
  <anchor x="264.5" y="557" name="top"/>
  <outline>
    <contour>
      <point x="31" y="2" type="curve"/>
      <point x="34" y="2" type="line"/>
      <point x="82" y="36"/>
      <point x="102" y="78"/>
      <point x="130" y="288" type="curve" smooth="yes"/>
      <point x="165" y="555" type="line"/>
      <point x="397" y="555" type="line"/>
      <point x="397" y="2" type="line"/>
      <point x="31" y="2" type="line"/>
      <point x="31" y="0" type="line"/>
      <point x="399" y="0" type="line"/>
      <point x="399" y="557" type="line"/>
      <point x="163" y="557" type="line"/>
      <point x="128" y="288" type="line" smooth="yes"/>
      <point x="100" y="77"/>
      <point x="80" y="36"/>
    </contour>
    <component base="descStraight-cy" xOffset="379"/>
    <component base="descStraight-cy" xScale="-1" xOffset="65"/>
  </outline>
</glyph>
<glyph name="delta.sc" format="2">
  <advance width="499"/>
  <anchor x="249.5" y="0" name="bottom"/>
  <anchor x="249.5" y="557" name="top"/>
  <outline>
    <contour>
      <point x="249" y="554" type="line"/>
      <point x="461" y="2" type="line"/>
      <point x="38" y="2" type="line"/>
    </contour>
    <contour>
      <point x="250" y="557" type="line"/>
      <point x="248" y="557" type="line"/>
      <point x="35" y="0" type="line"/>
      <point x="464" y="0" type="line"/>
    </contour>
  </outline>
</glyph>
<glyph name="dieresiscaroncomb" format="2">
  <advance width="221"/>
  <anchor x="111" y="517" name="_top"/>
  <outline>
    <contour>
      <point x="185" y="661" type="curve" smooth="yes"/>
      <point x="181" y="661"/>
      <point x="179" y="658"/>
      <point x="179" y="655" type="curve" smooth="yes"/>
      <point x="179" y="652"/>
      <point x="181" y="649"/>
      <point x="185" y="649" type="curve" smooth="yes"/>
      <point x="189" y="649"/>
      <point x="191" y="652"/>
      <point x="191" y="655" type="curve" smooth="yes"/>
      <point x="191" y="658"/>
      <point x="189" y="661"/>
    </contour>
    <contour>
      <point x="36" y="661" type="curve" smooth="yes"/>
      <point x="32" y="661"/>
      <point x="30" y="658"/>
      <point x="30" y="655" type="curve" smooth="yes"/>
      <point x="30" y="652"/>
      <point x="32" y="649"/>
      <point x="36" y="649" type="curve" smooth="yes"/>
      <point x="40" y="649"/>
      <point x="42" y="652"/>
      <point x="42" y="655" type="curve" smooth="yes"/>
      <point x="42" y="658"/>
      <point x="40" y="661"/>
    </contour>
    <component base="caroncomb.case" xOffset="-28" yOffset="-90"/>
  </outline>
</glyph>
<glyph name="digamma.sc" format="2">
  <advance width="431"/>
  <anchor x="269" y="557" name="top"/>
  <anchor x="140" y="0" name="bottomright"/>
  <anchor x="131" y="0" name="bottom"/>
  <outline>
    <contour>
      <point x="355" y="277" type="curve"/>
      <point x="356" y="279" type="line"/>
      <point x="341" y="285"/>
      <point x="321" y="287"/>
      <point x="295" y="287" type="curve" smooth="yes"/>
      <point x="131" y="287" type="line"/>
      <point x="131" y="285" type="line"/>
      <point x="295" y="285" type="line" smooth="yes"/>
      <point x="321" y="285"/>
      <point x="340" y="283"/>
    </contour>
    <component base="gamma.sc"/>
  </outline>
</glyph>
<glyph name="dje-cy.sc" format="2">
  <advance width="613"/>
  <anchor x="306.5" y="0" name="bottom"/>
  <anchor x="306.5" y="557" name="top"/>
  <outline>
    <contour>
      <point x="208" y="556" type="line"/>
      <point x="206" y="556" type="line"/>
      <point x="206" y="0" type="line"/>
      <point x="208" y="0" type="line"/>
    </contour>
    <contour>
      <point x="533" y="161" type="line"/>
      <point x="531" y="161" type="line"/>
      <point x="531" y="70" type="line" smooth="yes"/>
      <point x="531" y="-5"/>
      <point x="514" y="-40"/>
      <point x="428" y="-73" type="curve"/>
      <point x="429" y="-75" type="line"/>
      <point x="516" y="-41"/>
      <point x="533" y="-6"/>
      <point x="533" y="70" type="curve" smooth="yes"/>
    </contour>
    <contour>
      <point x="389" y="349" type="curve" smooth="yes"/>
      <point x="310" y="349"/>
      <point x="256" y="316"/>
      <point x="207" y="255" type="curve"/>
      <point x="207" y="252" type="line"/>
      <point x="257" y="315"/>
      <point x="310" y="347"/>
      <point x="389" y="347" type="curve" smooth="yes"/>
      <point x="491" y="347"/>
      <point x="531" y="288"/>
      <point x="531" y="213" type="curve" smooth="yes"/>
      <point x="531" y="83" type="line"/>
      <point x="533" y="83" type="line"/>
      <point x="533" y="213" type="line" smooth="yes"/>
      <point x="533" y="291"/>
      <point x="490" y="349"/>
    </contour>
    <contour>
      <point x="394" y="557" type="line"/>
      <point x="20" y="557" type="line"/>
      <point x="20" y="555" type="line"/>
      <point x="394" y="555" type="line"/>
    </contour>
  </outline>
</glyph>
<glyph name="ef-cy.sc" format="2">
  <advance width="672"/>
  <anchor x="336" y="0" name="bottom"/>
  <anchor x="336" y="557" name="top"/>
  <outline>
    <contour>
      <point x="336" y="530" type="curve"/>
      <point x="337" y="528" type="line"/>
      <point x="529" y="525"/>
      <point x="610" y="432"/>
      <point x="610" y="286" type="curve" smooth="yes"/>
      <point x="610" y="129"/>
      <point x="527" y="46"/>
      <point x="337" y="42" type="curve"/>
      <point x="336" y="40" type="line"/>
      <point x="529" y="44"/>
      <point x="612" y="129"/>
      <point x="612" y="286" type="curve" smooth="yes"/>
      <point x="612" y="432"/>
      <point x="531" y="527"/>
    </contour>
    <contour>
      <point x="336" y="530" type="line"/>
      <point x="144" y="526"/>
      <point x="60" y="441"/>
      <point x="60" y="284" type="curve" smooth="yes"/>
      <point x="60" y="138"/>
      <point x="141" y="43"/>
      <point x="336" y="40" type="curve"/>
      <point x="335" y="42" type="line"/>
      <point x="143" y="45"/>
      <point x="62" y="138"/>
      <point x="62" y="284" type="curve" smooth="yes"/>
      <point x="62" y="441"/>
      <point x="146" y="524"/>
      <point x="335" y="528" type="curve"/>
    </contour>
    <contour>
      <point x="337" y="578" type="line"/>
      <point x="335" y="578" type="line"/>
      <point x="335" y="530" type="line"/>
      <point x="335" y="529" type="line"/>
      <point x="335" y="42" type="line"/>
      <point x="335" y="41" type="line"/>
      <point x="335" y="-13" type="line"/>
      <point x="337" y="-13" type="line"/>
      <point x="337" y="41" type="line"/>
      <point x="337" y="42" type="line"/>
      <point x="337" y="529" type="line"/>
      <point x="337" y="530" type="line"/>
    </contour>
  </outline>
</glyph>
<glyph name="elmiddlehook-cy.sc" format="2">
  <advance width="855"/>
  <anchor x="427.5" y="-188" name="bottom"/>
  <anchor x="427.5" y="557" name="top"/>
  <anchor x="460" y="0" name="bottomright"/>
  <outline>
    <contour>
      <point x="631" y="349" type="curve" smooth="yes"/>
      <point x="552" y="349"/>
      <point x="498" y="316"/>
      <point x="449" y="254" type="curve"/>
      <point x="450" y="252" type="line"/>
      <point x="499" y="315"/>
      <point x="553" y="347"/>
      <point x="631" y="347" type="curve" smooth="yes"/>
      <point x="733" y="347"/>
      <point x="773" y="290"/>
      <point x="773" y="213" type="curve" smooth="yes"/>
      <point x="773" y="0" type="line"/>
      <point x="775" y="0" type="line"/>
      <point x="775" y="213" type="line" smooth="yes"/>
      <point x="775" y="291"/>
      <point x="734" y="349"/>
    </contour>
    <component base="el-cy.sc"/>
    <component base="hookHELPER" xOffset="569"/>
  </outline>
</glyph>
<glyph name="estroke.sc" format="2">
  <advance width="453"/>
  <anchor x="262" y="557" name="top"/>
  <anchor x="383" y="0" name="ogonek"/>
  <anchor x="267" y="0" name="bottom"/>
  <outline>
    <contour>
      <point x="345" y="597" type="line"/>
      <point x="168" y="-47" type="line"/>
      <point x="170" y="-47" type="line"/>
      <point x="347" y="597" type="line"/>
    </contour>
    <component base="e.sc"/>
  </outline>
</glyph>
<glyph name="eth.sc" format="2">
  <advance width="559"/>
  <anchor x="262" y="557" name="top"/>
  <anchor x="284" y="279" name="center"/>
  <anchor x="278" y="0" name="bottom"/>
  <outline>
    <contour>
      <point x="75" y="291" type="line"/>
      <point x="287" y="291" type="line"/>
      <point x="287" y="293" type="line"/>
      <point x="129" y="293" type="line"/>
      <point x="75" y="293" type="line"/>
    </contour>
    <component base="d.sc" xOffset="-1"/>
  </outline>
</glyph>
<glyph name="four.tf" format="2">
  <advance width="560"/>
  <outline>
    <contour>
      <point x="290" y="690" type="line"/>
      <point x="81" y="199" type="line"/>
      <point x="81" y="196" type="line"/>
      <point x="479" y="196" type="line"/>
      <point x="479" y="198" type="line"/>
      <point x="83" y="198" type="line"/>
      <point x="292" y="689" type="line"/>
    </contour>
    <contour>
      <point x="384" y="421" type="line"/>
      <point x="382" y="421" type="line"/>
      <point x="382" y="197" type="line"/>
      <point x="382" y="0" type="line"/>
      <point x="384" y="0" type="line"/>
    </contour>
  </outline>
</glyph>
<glyph name="ge-cy.sc" format="2">
  <advance width="411"/>
  <anchor x="131" y="0" name="bottom"/>
  <anchor x="140" y="0" name="bottomright"/>
  <anchor x="269" y="557" name="top"/>
  <outline>
    <contour>
      <point x="130" y="557" type="line"/>
      <point x="130" y="0" type="line"/>
      <point x="132" y="0" type="line"/>
      <point x="132" y="556" type="line"/>
    </contour>
    <contour>
      <point x="391" y="557" type="line"/>
      <point x="130" y="557" type="line"/>
      <point x="131" y="555" type="line"/>
      <point x="391" y="555" type="line"/>
    </contour>
  </outline>
</glyph>
<glyph name="gestrokehook-cy.sc" format="2">
  <advance width="383"/>
  <anchor x="241" y="557" name="top"/>
  <anchor x="112" y="0" name="bottomright"/>
  <anchor x="103" y="0" name="bottom"/>
  <outline>
    <contour>
      <point x="103" y="2" type="line"/>
      <point x="104" y="0" type="line"/>
      <point x="157" y="0" type="line"/>
      <point x="157" y="2" type="line"/>
    </contour>
    <component base="ghestroke-cy.sc"/>
    <component base="hookHELPER" xOffset="-49"/>
  </outline>
</glyph>
<glyph name="ghestroke-cy.sc" format="2">
  <advance width="383"/>
  <anchor x="241" y="557" name="top"/>
  <anchor x="112" y="0" name="bottomright"/>
  <anchor x="103" y="0" name="bottom"/>
  <outline>
    <contour>
      <point x="280" y="322" type="line"/>
      <point x="102" y="322" type="line"/>
      <point x="35" y="322" type="line"/>
      <point x="35" y="320" type="line"/>
      <point x="280" y="320" type="line"/>
    </contour>
    <component base="ge-cy.sc" xOffset="-28"/>
  </outline>
</glyph>
<glyph name="gheupturn-cy.sc" format="2">
  <advance width="411"/>
  <anchor x="269" y="557" name="top"/>
  <anchor x="140" y="0" name="bottomright"/>
  <anchor x="131" y="0" name="bottom"/>
  <outline>
    <contour>
      <point x="389" y="556" type="line"/>
      <point x="391" y="557" type="line"/>
      <point x="391" y="653" type="line"/>
      <point x="389" y="653" type="line"/>
    </contour>
    <component base="ge-cy.sc"/>
  </outline>
</glyph>
<glyph name="gravecomb.case" format="2">
  <anchor x="107" y="680" name="_top"/>
  <anchor x="108" y="842" name="top"/>
  <outline>
    <contour>
      <point x="31" y="842" type="line"/>
      <point x="30" y="840" type="line"/>
      <point x="196" y="771" type="line"/>
      <point x="197" y="773" type="line"/>
    </contour>
  </outline>
</glyph>
<glyph name="gravedbl" format="2">
  <advance width="160"/>
  <anchor x="119" y="517" name="_top"/>
  <anchor x="138" y="517" name="_topleft"/>
  <outline>
    <contour>
      <point x="41" y="772" type="line"/>
      <point x="39" y="770" type="line"/>
      <point x="128" y="663" type="line"/>
      <point x="130" y="664" type="line"/>
    </contour>
  </outline>
</glyph>
<glyph name="h.sc" format="2">
  <advance width="601"/>
  <anchor x="301" y="0" name="bottom"/>
  <anchor x="479" y="0" name="bottomright"/>
  <anchor x="300" y="279" name="center"/>
  <anchor x="300" y="557" name="top"/>
  <outline>
    <contour>
      <point x="471" y="557" type="line"/>
      <point x="469" y="557" type="line"/>
      <point x="469" y="297" type="line"/>
      <point x="132" y="297" type="line"/>
      <point x="132" y="557" type="line"/>
      <point x="130" y="557" type="line"/>
      <point x="130" y="0" type="line"/>
      <point x="132" y="0" type="line"/>
      <point x="132" y="295" type="line"/>
      <point x="469" y="295" type="line"/>
      <point x="469" y="0" type="line"/>
      <point x="471" y="0" type="line"/>
    </contour>
  </outline>
</glyph>
<glyph name="hastroke-cy.sc" format="2">
  <advance width="410"/>
  <anchor x="205" y="0" name="bottom"/>
  <anchor x="205" y="557" name="top"/>
  <outline>
    <contour>
      <point x="49" y="557" type="line"/>
      <point x="47" y="557" type="line"/>
      <point x="202" y="303" type="line"/>
      <point x="203" y="302" type="line"/>
      <point x="388" y="0" type="line"/>
      <point x="390" y="0" type="line"/>
      <point x="204" y="303" type="line"/>
      <point x="203" y="304" type="line"/>
    </contour>
    <contour>
      <point x="363" y="557" type="line"/>
      <point x="361" y="557" type="line"/>
      <point x="203" y="304" type="line"/>
      <point x="202" y="303" type="line"/>
      <point x="20" y="0" type="line"/>
      <point x="22" y="0" type="line"/>
      <point x="203" y="302" type="line"/>
      <point x="204" y="303" type="line"/>
    </contour>
    <component base="hyphen" xScale="1.3" xOffset="-55" yOffset="-9"/>
  </outline>
</glyph>
<glyph name="hbar.sc" format="2">
  <advance width="602"/>
  <anchor x="303" y="557" name="top"/>
  <anchor x="303" y="279" name="center"/>
  <anchor x="482" y="0" name="bottomright"/>
  <anchor x="304" y="0" name="bottom"/>
  <outline>
    <contour>
      <point x="517" y="434" type="line"/>
      <point x="474" y="434" type="line"/>
      <point x="85" y="434" type="line"/>
      <point x="85" y="432" type="line"/>
      <point x="133" y="432" type="line"/>
      <point x="517" y="432" type="line"/>
    </contour>
    <component base="h.sc" xOffset="3"/>
  </outline>
</glyph>
<glyph name="hookabovecomb.case" format="2">
  <anchor x="84" y="680" name="_top"/>
  <anchor x="61" y="656" name="_topright"/>
  <anchor x="91" y="930" name="top"/>
  <outline>
    <contour>
      <point x="80" y="778" type="line"/>
      <point x="82" y="778" type="line"/>
      <point x="82" y="816" type="line"/>
      <point x="118" y="819"/>
      <point x="149" y="832"/>
      <point x="149" y="875" type="curve" smooth="yes"/>
      <point x="149" y="910"/>
      <point x="124" y="930"/>
      <point x="88" y="930" type="curve" smooth="yes"/>
      <point x="63" y="930"/>
      <point x="44" y="921"/>
      <point x="30" y="913" type="curve"/>
      <point x="31" y="911" type="line"/>
      <point x="45" y="919"/>
      <point x="64" y="928"/>
      <point x="88" y="928" type="curve" smooth="yes"/>
      <point x="123" y="928"/>
      <point x="147" y="909"/>
      <point x="147" y="875" type="curve" smooth="yes"/>
      <point x="147" y="833"/>
      <point x="117" y="821"/>
      <point x="80" y="818" type="curve"/>
    </contour>
  </outline>
</glyph>
<glyph name="horncomb.case" format="2">
  <advance width="123"/>
  <anchor x="40" y="680" name="_topright"/>
  <anchor x="92" y="680" name="topright"/>
  <outline>
    <contour>
      <point x="30" y="625" type="line"/>
      <point x="70" y="628"/>
      <point x="93" y="647"/>
      <point x="93" y="687" type="curve" smooth="yes"/>
      <point x="93" y="716"/>
      <point x="87" y="739"/>
      <point x="79" y="759" type="curve"/>
      <point x="77" y="759" type="line"/>
      <point x="85" y="739"/>
      <point x="91" y="716"/>
      <point x="91" y="687" type="curve" smooth="yes"/>
      <point x="91" y="648"/>
      <point x="69" y="630"/>
      <point x="29" y="627" type="curve"/>
    </contour>
  </outline>
</glyph>
<glyph name="ia-cy.sc" format="2">
  <advance width="528"/>
  <anchor x="264" y="0" name="bottom"/>
  <anchor x="264" y="557" name="top"/>
  <outline>
    <contour>
      <point x="209" y="256" type="line"/>
      <point x="207" y="256" type="line"/>
      <point x="65" y="0" type="line"/>
      <point x="67" y="0" type="line"/>
    </contour>
    <contour>
      <point x="207" y="255" type="curve"/>
      <point x="208" y="255" type="line"/>
      <point x="397" y="255" type="line"/>
      <point x="397" y="257" type="line"/>
      <point x="212" y="257" type="line"/>
      <point x="144" y="257"/>
      <point x="70" y="310"/>
      <point x="70" y="399" type="curve" smooth="yes"/>
      <point x="70" y="495"/>
      <point x="130" y="555"/>
      <point x="277" y="555" type="curve" smooth="yes"/>
      <point x="396" y="555" type="line"/>
      <point x="396" y="0" type="line"/>
      <point x="398" y="0" type="line"/>
      <point x="398" y="557" type="line"/>
      <point x="277" y="557" type="line" smooth="yes"/>
      <point x="129" y="557"/>
      <point x="68" y="496"/>
      <point x="68" y="399" type="curve" smooth="yes"/>
      <point x="68" y="310"/>
      <point x="140" y="258"/>
    </contour>
  </outline>
</glyph>
<glyph name="ii-cy.sc" format="2">
  <advance width="601"/>
  <anchor x="300.5" y="0" name="bottom"/>
  <anchor x="481" y="0" name="bottomright"/>
  <anchor x="300" y="557" name="top"/>
  <outline>
    <contour>
      <point x="471" y="557" type="line"/>
      <point x="468" y="557" type="line"/>
      <point x="132" y="2" type="line"/>
      <point x="132" y="12"/>
      <point x="132" y="23"/>
      <point x="132" y="33" type="curve"/>
      <point x="132" y="557" type="line"/>
      <point x="130" y="557" type="line"/>
      <point x="130" y="0" type="line"/>
      <point x="133" y="0" type="line"/>
      <point x="469" y="555" type="line"/>
      <point x="469" y="540"/>
      <point x="469" y="523"/>
      <point x="469" y="508" type="curve"/>
      <point x="469" y="0" type="line"/>
      <point x="471" y="0" type="line"/>
    </contour>
  </outline>
</glyph>
<glyph name="iu-cy.sc" format="2">
  <advance width="761"/>
  <anchor x="380.5" y="0" name="bottom"/>
  <anchor x="380.5" y="557" name="top"/>
  <outline>
    <contour>
      <point x="460" y="565" type="curve" smooth="yes"/>
      <point x="328" y="565"/>
      <point x="245" y="455"/>
      <point x="245" y="291" type="curve"/>
      <point x="245" y="290" type="line"/>
      <point x="245" y="95"/>
      <point x="325" y="-7"/>
      <point x="460" y="-7" type="curve" smooth="yes"/>
      <point x="604" y="-7"/>
      <point x="676" y="98"/>
      <point x="676" y="279" type="curve" smooth="yes"/>
      <point x="676" y="461"/>
      <point x="599" y="565"/>
    </contour>
    <contour>
      <point x="132" y="557" type="line"/>
      <point x="130" y="557" type="line"/>
      <point x="130" y="0" type="line"/>
      <point x="132" y="0" type="line"/>
      <point x="132" y="290" type="line"/>
      <point x="246" y="290" type="line"/>
      <point x="246" y="292" type="line"/>
      <point x="132" y="292" type="line"/>
    </contour>
    <contour>
      <point x="460" y="563" type="curve" smooth="yes"/>
      <point x="598" y="563"/>
      <point x="674" y="460"/>
      <point x="674" y="279" type="curve" smooth="yes"/>
      <point x="674" y="99"/>
      <point x="603" y="-5"/>
      <point x="460" y="-5" type="curve" smooth="yes"/>
      <point x="326" y="-5"/>
      <point x="247" y="96"/>
      <point x="247" y="291" type="curve" smooth="yes"/>
      <point x="247" y="454"/>
      <point x="329" y="563"/>
    </contour>
  </outline>
</glyph>
<glyph name="j.sc" format="2">
  <advance width="258"/>
  <anchor x="129" y="-188" name="bottom"/>
  <anchor x="133" y="557" name="top"/>
  <outline>
    <contour>
      <point x="134" y="557" type="line"/>
      <point x="132" y="557" type="line"/>
      <point x="132" y="70" type="line" smooth="yes"/>
      <point x="132" y="-5"/>
      <point x="116" y="-40"/>
      <point x="30" y="-73" type="curve"/>
      <point x="31" y="-75" type="line"/>
      <point x="118" y="-41"/>
      <point x="134" y="-6"/>
      <point x="134" y="70" type="curve" smooth="yes"/>
    </contour>
  </outline>
</glyph>
<glyph name="k.sc" format="2">
  <advance width="456"/>
  <anchor x="264" y="0" name="bottom"/>
  <anchor x="264" y="557" name="top"/>
  <outline>
    <contour>
      <point x="428" y="557" type="line"/>
      <point x="425" y="557" type="line"/>
      <point x="135" y="300" type="line"/>
      <point x="438" y="0" type="line"/>
      <point x="441" y="0" type="line"/>
      <point x="138" y="300" type="line"/>
    </contour>
    <contour>
      <point x="132" y="557" type="line"/>
      <point x="130" y="557" type="line"/>
      <point x="130" y="1" type="line"/>
      <point x="132" y="1" type="line"/>
    </contour>
  </outline>
</glyph>
<glyph name="ka-cy.sc" format="2">
  <advance width="483"/>
  <anchor x="241.5" y="0" name="bottom"/>
  <anchor x="456" y="0" name="bottomright"/>
  <anchor x="281" y="557" name="top"/>
  <outline>
    <contour>
      <point x="433" y="557" type="line"/>
      <point x="431" y="557" type="line"/>
      <point x="244" y="296" type="line"/>
      <point x="132" y="296" type="line"/>
      <point x="132" y="557" type="line"/>
      <point x="130" y="557" type="line"/>
      <point x="130" y="1" type="line"/>
      <point x="132" y="1" type="line"/>
      <point x="132" y="294" type="line"/>
      <point x="244" y="294" type="line"/>
      <point x="446" y="0" type="line"/>
      <point x="448" y="0" type="line"/>
      <point x="246" y="295" type="line"/>
    </contour>
  </outline>
</glyph>
<glyph name="kabashkir-cy.sc" format="2">
  <advance width="493"/>
  <anchor x="291" y="557" name="top"/>
  <anchor x="466" y="0" name="bottomright"/>
  <anchor x="251.5" y="0.0" name="bottom"/>
  <outline>
    <contour>
      <point x="140" y="555" type="line"/>
      <point x="142" y="557" type="line"/>
      <point x="0" y="557" type="line"/>
      <point x="0" y="555" type="line"/>
    </contour>
    <component base="ka-cy.sc" xOffset="10"/>
  </outline>
</glyph>
<glyph name="kastroke-cy.sc" format="2">
  <advance width="437"/>
  <anchor x="235" y="557" name="top"/>
  <anchor x="410" y="0" name="bottomright"/>
  <anchor x="195.5" y="0.0" name="bottom"/>
  <outline>
    <contour>
      <point x="30" y="455" type="line"/>
      <point x="212" y="455" type="line"/>
      <point x="212" y="457" type="line"/>
      <point x="84" y="457" type="line"/>
      <point x="30" y="457" type="line"/>
    </contour>
    <component base="ka-cy.sc" xOffset="-46"/>
  </outline>
</glyph>
<glyph name="koppaArchaic.sc" format="2">
  <advance width="618"/>
  <anchor x="309" y="-188" name="bottom"/>
  <anchor x="99" y="557" name="topleft"/>
  <anchor x="308" y="557" name="top"/>
  <anchor x="372" y="0" name="ogonek"/>
  <anchor x="470" y="557" name="topright"/>
  <outline>
    <contour>
      <point x="308" y="-188" type="line"/>
      <point x="310" y="-188" type="line"/>
      <point x="310" y="-6" type="line"/>
      <point x="308" y="-6" type="line"/>
    </contour>
    <component base="o.sc"/>
  </outline>
</glyph>
<glyph name="l.sc" format="2">
  <advance width="406"/>
  <anchor x="256" y="0" name="bottom"/>
  <anchor x="327" y="285" name="center"/>
  <anchor x="131" y="557" name="top"/>
  <anchor x="192" y="557" name="topright"/>
  <outline>
    <contour>
      <point x="132" y="557" type="line"/>
      <point x="130" y="557" type="line"/>
      <point x="130" y="0" type="line"/>
      <point x="381" y="0" type="line"/>
      <point x="381" y="2" type="line"/>
      <point x="132" y="2" type="line"/>
    </contour>
  </outline>
</glyph>
<glyph name="lambda.sc" format="2">
  <advance width="491"/>
  <anchor x="245.5" y="0" name="bottom"/>
  <anchor x="245.5" y="557" name="top"/>
  <outline>
    <contour>
      <point x="245" y="557" type="line"/>
      <point x="243" y="557" type="line"/>
      <point x="35" y="0" type="line"/>
      <point x="37" y="0" type="line"/>
      <point x="244" y="554" type="line"/>
      <point x="454" y="0" type="line"/>
      <point x="456" y="0" type="line"/>
    </contour>
  </outline>
</glyph>
<glyph name="lha-cy.sc" format="2">
  <advance width="679"/>
  <anchor x="339.5" y="0" name="bottom"/>
  <anchor x="339.5" y="557" name="top"/>
  <anchor x="665" y="0" name="bottomright"/>
  <outline>
    <contour>
      <point x="183" y="557" type="line"/>
      <point x="184" y="555" type="line"/>
      <point x="318" y="555" type="line"/>
      <point x="318" y="557" type="line"/>
    </contour>
    <contour>
      <point x="185" y="555" type="line"/>
      <point x="183" y="557" type="line"/>
      <point x="156" y="285" type="line" smooth="yes"/>
      <point x="134" y="67"/>
      <point x="123" y="23"/>
      <point x="61" y="1" type="curve"/>
      <point x="61" y="-1" type="line"/>
      <point x="125" y="22"/>
      <point x="136" y="65"/>
      <point x="158" y="285" type="curve" smooth="yes"/>
    </contour>
    <component base="x.sc" xOffset="269"/>
  </outline>
</glyph>
<glyph name="lslash.sc" format="2">
  <advance width="400"/>
  <anchor x="125" y="557" name="top"/>
  <anchor x="321" y="285" name="center"/>
  <anchor x="186" y="557" name="topright"/>
  <anchor x="250" y="0" name="bottom"/>
  <outline>
    <contour>
      <point x="315" y="363" type="line"/>
      <point x="125" y="246" type="line"/>
      <point x="52" y="201" type="line"/>
      <point x="52" y="199" type="line"/>
      <point x="315" y="361" type="line"/>
    </contour>
    <component base="l.sc" xOffset="-6"/>
  </outline>
</glyph>
<glyph name="minus.dnom" format="2">
  <advance width="400"/>
  <outline>
    <contour>
      <point x="95" y="202" type="line"/>
      <point x="305" y="202" type="line"/>
      <point x="305" y="204" type="line"/>
      <point x="95" y="204" type="line"/>
    </contour>
  </outline>
</glyph>
<glyph name="n.sc" format="2">
  <advance width="601"/>
  <anchor x="301" y="0" name="bottom"/>
  <anchor x="304" y="557" name="top"/>
  <outline>
    <contour>
      <point x="471" y="557" type="line"/>
      <point x="469" y="557" type="line"/>
      <point x="469" y="113" type="line"/>
      <point x="469" y="79"/>
      <point x="469" y="36"/>
      <point x="469" y="3" type="curve"/>
      <point x="133" y="557" type="line"/>
      <point x="130" y="557" type="line"/>
      <point x="130" y="0" type="line"/>
      <point x="132" y="0" type="line"/>
      <point x="132" y="470" type="line"/>
      <point x="132" y="509"/>
      <point x="132" y="535"/>
      <point x="132" y="554" type="curve"/>
      <point x="468" y="0" type="line"/>
      <point x="471" y="0" type="line"/>
    </contour>
  </outline>
</glyph>
<glyph name="one.osf" format="2">
  <advance width="380"/>
  <outline>
    <contour>
      <point x="250" y="560" type="line"/>
      <point x="248" y="560" type="line"/>
      <point x="55" y="443" type="line"/>
      <point x="56" y="441" type="line"/>
      <point x="248" y="558" type="line"/>
      <point x="248" y="0" type="line"/>
      <point x="250" y="0" type="line"/>
    </contour>
  </outline>
</glyph>
<glyph name="oslash.sc" format="2">
  <advance width="618"/>
  <anchor x="309" y="0" name="bottom"/>
  <anchor x="310" y="557" name="top"/>
  <outline>
    <contour>
      <point x="308" y="567" type="curve" smooth="yes"/>
      <point x="175" y="567"/>
      <point x="85" y="457"/>
      <point x="85" y="277" type="curve" smooth="yes"/>
      <point x="85" y="98"/>
      <point x="170" y="-7"/>
      <point x="308" y="-7" type="curve" smooth="yes"/>
      <point x="453" y="-7"/>
      <point x="533" y="98"/>
      <point x="533" y="279" type="curve" smooth="yes"/>
      <point x="533" y="462"/>
      <point x="448" y="567"/>
    </contour>
    <contour>
      <point x="308" y="565" type="curve" smooth="yes"/>
      <point x="448" y="565"/>
      <point x="531" y="460"/>
      <point x="531" y="279" type="curve" smooth="yes"/>
      <point x="531" y="100"/>
      <point x="452" y="-5"/>
      <point x="308" y="-5" type="curve" smooth="yes"/>
      <point x="171" y="-5"/>
      <point x="87" y="99"/>
      <point x="87" y="277" type="curve" smooth="yes"/>
      <point x="87" y="455"/>
      <point x="176" y="565"/>
    </contour>
    <contour>
      <point x="421" y="646" type="line"/>
      <point x="391" y="552" type="line"/>
      <point x="391" y="551" type="line"/>
      <point x="225" y="9" type="line"/>
      <point x="225" y="8" type="line"/>
      <point x="195" y="-84" type="line"/>
      <point x="197" y="-85" type="line"/>
      <point x="227" y="7" type="line"/>
      <point x="227" y="8" type="line"/>
      <point x="393" y="550" type="line"/>
      <point x="393" y="551" type="line"/>
      <point x="423" y="645" type="line"/>
    </contour>
  </outline>
</glyph>
<glyph name="p.sc" format="2">
  <advance width="504"/>
  <anchor x="252" y="0" name="bottom"/>
  <anchor x="252" y="557" name="top"/>
  <outline>
    <contour>
      <point x="236" y="557" type="curve" smooth="yes"/>
      <point x="130" y="557" type="line"/>
      <point x="130" y="0" type="line"/>
      <point x="132" y="0" type="line"/>
      <point x="132" y="555" type="line"/>
      <point x="236" y="555" type="line" smooth="yes"/>
      <point x="372" y="555"/>
      <point x="437" y="508"/>
      <point x="437" y="398" type="curve" smooth="yes"/>
      <point x="437" y="285"/>
      <point x="359" y="240"/>
      <point x="233" y="240" type="curve" smooth="yes"/>
      <point x="131" y="240" type="line"/>
      <point x="131" y="238" type="line"/>
      <point x="233" y="238" type="line" smooth="yes"/>
      <point x="361" y="238"/>
      <point x="439" y="284"/>
      <point x="439" y="398" type="curve" smooth="yes"/>
      <point x="439" y="509"/>
      <point x="373" y="557"/>
    </contour>
  </outline>
</glyph>
<glyph name="pe-cy.sc" format="2">
  <advance width="601"/>
  <anchor x="300.5" y="0" name="bottom"/>
  <anchor x="480" y="0" name="bottomright"/>
  <anchor x="300.5" y="557" name="top"/>
  <outline>
    <contour>
      <point x="471" y="557" type="line"/>
      <point x="130" y="557" type="line"/>
      <point x="130" y="0" type="line"/>
      <point x="132" y="0" type="line"/>
      <point x="132" y="555" type="line"/>
      <point x="469" y="555" type="line"/>
      <point x="469" y="0" type="line"/>
      <point x="471" y="0" type="line"/>
    </contour>
  </outline>
</glyph>
<glyph name="pemiddlehook-cy.sc" format="2">
  <advance width="876"/>
  <anchor x="438" y="-188" name="bottom"/>
  <anchor x="438" y="557" name="top"/>
  <anchor x="480" y="0" name="bottomright"/>
  <outline>
    <contour>
      <point x="652" y="349" type="curve" smooth="yes"/>
      <point x="573" y="349"/>
      <point x="519" y="316"/>
      <point x="470" y="254" type="curve"/>
      <point x="471" y="252" type="line"/>
      <point x="520" y="315"/>
      <point x="574" y="347"/>
      <point x="652" y="347" type="curve" smooth="yes"/>
      <point x="754" y="347"/>
      <point x="794" y="290"/>
      <point x="794" y="213" type="curve" smooth="yes"/>
      <point x="794" y="0" type="line"/>
      <point x="796" y="0" type="line"/>
      <point x="796" y="213" type="line" smooth="yes"/>
      <point x="796" y="291"/>
      <point x="755" y="349"/>
    </contour>
    <component base="pe-cy.sc"/>
    <component base="hookHELPER" xOffset="590"/>
  </outline>
</glyph>
<glyph name="psi.sc" format="2">
  <advance width="568"/>
  <anchor x="284" y="0" name="bottom"/>
  <anchor x="284" y="557" name="top"/>
  <outline>
    <contour>
      <point x="284" y="178" type="curve"/>
      <point x="284" y="180" type="line"/>
      <point x="138" y="181"/>
      <point x="57" y="239"/>
      <point x="57" y="350" type="curve" smooth="yes"/>
      <point x="57" y="557" type="line"/>
      <point x="55" y="557" type="line"/>
      <point x="55" y="350" type="line" smooth="yes"/>
      <point x="55" y="239"/>
      <point x="138" y="179"/>
    </contour>
    <contour>
      <point x="284" y="180" type="curve"/>
      <point x="284" y="178" type="line"/>
      <point x="433" y="180"/>
      <point x="513" y="239"/>
      <point x="513" y="350" type="curve" smooth="yes"/>
      <point x="513" y="557" type="line"/>
      <point x="511" y="557" type="line"/>
      <point x="511" y="350" type="line" smooth="yes"/>
      <point x="511" y="241"/>
      <point x="432" y="182"/>
    </contour>
    <contour>
      <point x="285" y="179" type="line"/>
      <point x="285" y="180" type="line"/>
      <point x="285" y="557" type="line"/>
      <point x="283" y="557" type="line"/>
      <point x="283" y="180" type="line"/>
      <point x="283" y="179" type="line"/>
      <point x="283" y="0" type="line"/>
      <point x="285" y="0" type="line"/>
    </contour>
  </outline>
</glyph>
<glyph name="psili.case" format="2">
  <advance width="22"/>
  <anchor x="69" y="680" name="_topleft"/>
  <anchor x="52" y="682" name="top"/>
  <outline>
    <contour>
      <point x="52" y="682" type="curve" smooth="yes"/>
      <point x="49" y="682"/>
      <point x="47" y="680"/>
      <point x="47" y="677" type="curve" smooth="yes"/>
      <point x="47" y="674"/>
      <point x="49" y="672"/>
      <point x="53" y="672" type="curve"/>
      <point x="30" y="550" type="line"/>
      <point x="31" y="550" type="line"/>
      <point x="56" y="669" type="line" smooth="yes"/>
      <point x="57" y="674"/>
      <point x="57" y="675"/>
      <point x="57" y="677" type="curve"/>
      <point x="57" y="680"/>
      <point x="55" y="682"/>
    </contour>
  </outline>
</glyph>
<glyph name="psilioxia.case" format="2">
  <advance width="97"/>
  <anchor x="155" y="680" name="_topleft"/>
  <anchor x="52" y="682" name="top"/>
  <outline>
    <contour>
      <point x="107" y="552" type="line"/>
      <point x="147" y="679" type="line"/>
      <point x="144" y="679" type="line"/>
      <point x="105" y="552" type="line"/>
    </contour>
    <contour>
      <point x="30" y="550" type="line"/>
      <point x="31" y="550" type="line"/>
      <point x="56" y="669" type="line" smooth="yes"/>
      <point x="57" y="674"/>
      <point x="57" y="675"/>
      <point x="57" y="677" type="curve"/>
      <point x="57" y="680"/>
      <point x="55" y="682"/>
      <point x="52" y="682" type="curve" smooth="yes"/>
      <point x="49" y="682"/>
      <point x="47" y="680"/>
      <point x="47" y="677" type="curve" smooth="yes"/>
      <point x="47" y="674"/>
      <point x="49" y="672"/>
      <point x="53" y="672" type="curve"/>
    </contour>
  </outline>
</glyph>
<glyph name="rhoStrokeSymbol.sc" format="2">
  <advance width="524"/>
  <anchor x="272" y="557" name="top"/>
  <anchor x="272" y="0" name="bottom"/>
  <outline>
    <contour>
      <point x="75" y="150" type="line"/>
      <point x="75" y="148" type="line"/>
      <point x="150" y="148" type="line"/>
      <point x="332" y="148" type="line"/>
      <point x="332" y="150" type="line"/>
    </contour>
    <component base="rho.sc" xOffset="20"/>
  </outline>
</glyph>
<glyph name="rstroke.sc" format="2">
  <advance width="511"/>
  <anchor x="262" y="557" name="top"/>
  <anchor x="279" y="0" name="bottom"/>
  <outline>
    <contour>
      <point x="257" y="274" type="line"/>
      <point x="252" y="276" type="line"/>
      <point x="131" y="276" type="line"/>
      <point x="50" y="276" type="line"/>
      <point x="50" y="274" type="line"/>
    </contour>
    <component base="r.sc" xOffset="1"/>
  </outline>
</glyph>
<glyph name="schwa-cy.sc" format="2">
  <advance width="579"/>
  <anchor x="289.5" y="0" name="bottom"/>
  <anchor x="286" y="557" name="top"/>
  <outline>
    <contour>
      <point x="492" y="286" type="curve"/>
      <point x="492" y="285" type="line"/>
      <point x="495" y="87"/>
      <point x="411" y="-5"/>
      <point x="286" y="-5" type="curve" smooth="yes"/>
      <point x="156" y="-5"/>
      <point x="72" y="94"/>
      <point x="77" y="285" type="curve"/>
      <point x="493" y="285" type="line"/>
      <point x="493" y="287" type="line"/>
      <point x="75" y="287" type="line"/>
      <point x="75" y="279"/>
      <point x="75" y="276"/>
      <point x="75" y="267" type="curve" smooth="yes"/>
      <point x="75" y="88"/>
      <point x="157" y="-7"/>
      <point x="286" y="-7" type="curve" smooth="yes"/>
      <point x="412" y="-7"/>
      <point x="494" y="84"/>
      <point x="494" y="275" type="curve" smooth="yes"/>
      <point x="494" y="482"/>
      <point x="412" y="567"/>
      <point x="285" y="567" type="curve" smooth="yes"/>
      <point x="216" y="567"/>
      <point x="167" y="544"/>
      <point x="115" y="502" type="curve"/>
      <point x="117" y="500" type="line"/>
      <point x="168" y="542"/>
      <point x="217" y="565"/>
      <point x="285" y="565" type="curve" smooth="yes"/>
      <point x="411" y="565"/>
      <point x="489" y="481"/>
    </contour>
  </outline>
</glyph>
<glyph name="sha-cy.sc" format="2">
  <advance width="804"/>
  <anchor x="402" y="0" name="bottom"/>
  <anchor x="684" y="0" name="bottomright"/>
  <anchor x="402" y="557" name="top"/>
  <outline>
    <contour>
      <point x="674" y="557" type="line"/>
      <point x="672" y="557" type="line"/>
      <point x="672" y="2" type="line"/>
      <point x="403" y="2" type="line"/>
      <point x="403" y="557" type="line"/>
      <point x="401" y="557" type="line"/>
      <point x="401" y="2" type="line"/>
      <point x="132" y="2" type="line"/>
      <point x="132" y="557" type="line"/>
      <point x="130" y="557" type="line"/>
      <point x="130" y="0" type="line"/>
      <point x="674" y="0" type="line"/>
    </contour>
  </outline>
</glyph>
<glyph name="shha-cy.sc" format="2">
  <advance width="537"/>
  <anchor x="268.5" y="0" name="bottom"/>
  <anchor x="467" y="0" name="bottomright"/>
  <anchor x="268.5" y="557" name="top"/>
  <outline>
    <contour>
      <point x="132" y="557" type="line"/>
      <point x="130" y="557" type="line"/>
      <point x="130" y="0" type="line"/>
      <point x="132" y="0" type="line"/>
    </contour>
    <contour>
      <point x="313" y="349" type="curve" smooth="yes"/>
      <point x="234" y="349"/>
      <point x="180" y="316"/>
      <point x="131" y="254" type="curve"/>
      <point x="132" y="252" type="line"/>
      <point x="181" y="315"/>
      <point x="235" y="347"/>
      <point x="313" y="347" type="curve" smooth="yes"/>
      <point x="415" y="347"/>
      <point x="455" y="290"/>
      <point x="455" y="213" type="curve" smooth="yes"/>
      <point x="455" y="0" type="line"/>
      <point x="457" y="0" type="line"/>
      <point x="457" y="213" type="line" smooth="yes"/>
      <point x="457" y="291"/>
      <point x="416" y="349"/>
    </contour>
  </outline>
</glyph>
<glyph name="sigma.sc" format="2">
  <advance width="433"/>
  <anchor x="216.5" y="0" name="bottom"/>
  <anchor x="216.5" y="557" name="top"/>
  <outline>
    <contour>
      <point x="373" y="557" type="line"/>
      <point x="60" y="557" type="line"/>
      <point x="60" y="554" type="line"/>
      <point x="270" y="278" type="line"/>
      <point x="60" y="3" type="line"/>
      <point x="60" y="0" type="line"/>
      <point x="373" y="0" type="line"/>
      <point x="373" y="2" type="line"/>
      <point x="62" y="2" type="line"/>
      <point x="272" y="277" type="line"/>
      <point x="272" y="279" type="line"/>
      <point x="62" y="555" type="line"/>
      <point x="373" y="555" type="line"/>
    </contour>
  </outline>
</glyph>
<glyph name="softsign-cy.sc" format="2">
  <advance width="501"/>
  <anchor x="250.5" y="0" name="bottom"/>
  <anchor x="250.5" y="557" name="top"/>
  <outline>
    <contour>
      <point x="130" y="557" type="line"/>
      <point x="130" y="0" type="line"/>
      <point x="260" y="0" type="line" smooth="yes"/>
      <point x="372" y="0"/>
      <point x="441" y="58"/>
      <point x="441" y="172" type="curve" smooth="yes"/>
      <point x="441" y="274"/>
      <point x="374" y="327"/>
      <point x="257" y="327" type="curve" smooth="yes"/>
      <point x="131" y="327" type="line"/>
      <point x="131" y="325" type="line"/>
      <point x="257" y="325" type="line" smooth="yes"/>
      <point x="373" y="325"/>
      <point x="439" y="273"/>
      <point x="439" y="172" type="curve" smooth="yes"/>
      <point x="439" y="59"/>
      <point x="371" y="2"/>
      <point x="260" y="2" type="curve" smooth="yes"/>
      <point x="132" y="2" type="line"/>
      <point x="132" y="557" type="line"/>
    </contour>
  </outline>
</glyph>
<glyph name="t.sc" format="2">
  <advance width="414"/>
  <anchor x="207" y="0" name="bottom"/>
  <anchor x="218" y="0" name="bottomright"/>
  <anchor x="207" y="340" name="center"/>
  <anchor x="207" y="557" name="top"/>
  <outline>
    <contour>
      <point x="394" y="557" type="line"/>
      <point x="20" y="557" type="line"/>
      <point x="20" y="555" type="line"/>
      <point x="206" y="555" type="line"/>
      <point x="206" y="0" type="line"/>
      <point x="208" y="0" type="line"/>
      <point x="208" y="555" type="line"/>
      <point x="394" y="555" type="line"/>
    </contour>
  </outline>
</glyph>
<glyph name="tbar.sc" format="2">
  <advance width="414"/>
  <anchor x="207" y="557" name="top"/>
  <anchor x="207" y="340" name="center"/>
  <anchor x="218" y="0" name="bottomright"/>
  <anchor x="207" y="0" name="bottom"/>
  <outline>
    <contour>
      <point x="331" y="309" type="line"/>
      <point x="331" y="311" type="line"/>
      <point x="99" y="311" type="line"/>
      <point x="99" y="309" type="line"/>
    </contour>
    <component base="t.sc"/>
  </outline>
</glyph>
<glyph name="tonos.case" format="2">
  <advance width="22"/>
  <anchor x="82" y="680" name="_topleft"/>
  <outline>
    <contour>
      <point x="60" y="680" type="line"/>
      <point x="30" y="572" type="line"/>
      <point x="32" y="572" type="line"/>
      <point x="62" y="680" type="line"/>
    </contour>
  </outline>
</glyph>
